# Blender 5.2.2 LTS
# www.blender.org
mtllib ColumnaPared.mtl
o ColumnaPared
v 1.000000 3.500000 0.000000
v 1.000000 0.000000 0.000000
v 1.000000 3.500000 0.799631
v 0.000000 3.500000 0.000000
v 0.000000 0.000000 0.000000
v 0.000000 3.500000 0.799631
v 1.000000 1.528477 0.000000
v 0.000000 1.528477 0.799631
v 1.000000 1.528477 0.799631
v 0.000000 1.528477 0.000000
v 1.000000 0.875000 0.000000
v 1.000000 0.875000 0.799631
v 0.000000 0.875000 0.000000
v 0.000000 0.875000 0.799631
v 0.000000 3.296032 0.799631
v 1.000000 3.296032 0.000000
v 1.000000 3.296032 0.799631
v 0.000000 3.296032 0.000000
v 1.000000 0.334101 0.000000
v 1.000000 0.334101 0.799631
v 0.000000 0.334101 0.000000
v 0.000000 0.334101 0.799631
v 0.000000 0.425757 0.799631
v 1.000000 0.437500 0.000000
v 1.000000 0.425757 0.799631
v 0.000000 0.437500 0.000000
v 1.000000 3.500000 0.500000
v 0.000000 3.500000 0.500000
v 1.000000 1.528477 0.500000
v 0.000000 1.528477 0.500000
v 0.000000 0.875000 0.500000
v 1.000000 0.875000 0.500000
v 1.000000 3.296032 0.500000
v 0.000000 3.296032 0.500000
v 1.000000 0.334101 0.500000
v 0.000000 0.334101 0.500000
v 1.000000 0.425757 0.500000
v 0.000000 0.425757 0.500000
v -0.100007 0.000000 0.500000
v -0.100007 0.000000 0.907078
v 1.100007 0.334101 0.907078
v 1.100007 0.000000 0.907078
v -0.100007 0.334101 0.907078
v 1.100007 0.334101 0.500000
v 1.100007 0.000000 0.500000
v -0.100007 0.334101 0.500000
v 1.045634 0.425757 0.848830
v 1.045634 0.334101 0.848830
v 1.045634 0.334101 0.500000
v -0.045634 0.334101 0.848830
v -0.045634 0.425757 0.848830
v 1.045634 0.425757 0.500000
v -0.045634 0.334101 0.500000
v -0.045634 0.425757 0.500000
v -0.052352 3.500000 0.843001
v 1.052351 3.500000 0.843001
v 1.052351 3.500000 0.500000
v -0.052352 3.500000 0.500000
v -0.052352 3.300820 0.843001
v -0.047307 3.296032 0.838822
v 1.052351 3.300820 0.843001
v 1.047307 3.296032 0.838822
v 1.052351 3.300820 0.500000
v 1.047317 3.296032 0.500000
v -0.047317 3.296032 0.500000
v -0.052352 3.300820 0.500000
vn -0.0000 1.0000 -0.0000
vn -0.0000 -0.0000 -1.0000
vn 1.0000 -0.0000 -0.0000
vn -1.0000 -0.0000 -0.0000
vn -0.0000 -0.0000 1.0000
vn -0.0000 -1.0000 -0.0000
vn 0.6887 -0.7250 -0.0000
vn -0.0000 -0.6576 0.7534
vn -0.6887 -0.7250 -0.0000
vt 0.589153 0.311584
vt 0.714704 0.311584
vt 0.714704 0.348868
vt 0.589153 0.348868
vt 0.714433 0.474253
vt 0.714433 0.499851
vt 0.589934 0.499851
vt 0.589934 0.474253
vt 0.715106 0.418032
vt 0.715106 0.499926
vt 0.589642 0.499926
vt 0.589641 0.418032
vt 0.803270 0.418304
vt 0.803270 0.499987
vt 0.765817 0.499987
vt 0.765817 0.418304
vt 0.603363 0.418161
vt 0.603363 0.499845
vt 0.540864 0.499845
vt 0.540864 0.418161
vt 0.640819 0.499987
vt 0.640819 0.418304
vt 0.765817 0.362333
vt 0.765817 0.418487
vt 0.640819 0.418487
vt 0.640819 0.362333
vt 0.603363 0.362332
vt 0.603363 0.418487
vt 0.540864 0.418487
vt 0.540864 0.362333
vt 0.803270 0.362333
vt 0.803270 0.418487
vt 0.715106 0.363592
vt 0.715106 0.418276
vt 0.589641 0.418276
vt 0.589640 0.363593
vt 0.714433 0.250516
vt 0.714433 0.474555
vt 0.589934 0.474555
vt 0.589934 0.250516
vt 0.803270 0.250516
vt 0.803270 0.471460
vt 0.765817 0.471460
vt 0.765817 0.250516
vt 0.603363 0.250516
vt 0.603363 0.471458
vt 0.540864 0.471458
vt 0.540864 0.250516
vt 0.765817 0.250516
vt 0.640817 0.471460
vt 0.640817 0.250516
vt 0.714974 0.309185
vt 0.714974 0.350952
vt 0.589962 0.350952
vt 0.589962 0.309185
vt 0.714974 0.363878
vt 0.589961 0.363878
vt 0.725086 0.328009
vt 0.725086 0.365463
vt 0.719382 0.371613
vt 0.719382 0.328009
vt 0.712798 0.365691
vt 0.712798 0.490690
vt 0.706648 0.496394
vt 0.706648 0.359987
vt 0.640817 0.471460
vt 0.603363 0.471460
vt 0.603363 0.250516
vt 0.865770 0.250399
vt 0.865770 0.471341
vt 0.803270 0.471341
vt 0.803270 0.250399
vt 0.865770 0.362333
vt 0.865770 0.418487
vt 0.640817 0.362332
vt 0.640817 0.418487
vt 0.603363 0.418487
vt 0.603363 0.362332
vt 0.640817 0.418303
vt 0.640817 0.499987
vt 0.603363 0.499987
vt 0.603363 0.418303
vt 0.865770 0.418304
vt 0.865770 0.499987
vt 0.589153 0.311610
vt 0.589153 0.349015
vt 0.582618 0.354429
vt 0.582618 0.311610
vt 0.588943 0.250580
vt 0.714494 0.250580
vt 0.714494 0.313402
vt 0.588943 0.313402
vt 0.733704 0.317569
vt 0.775467 0.317569
vt 0.775467 0.368453
vt 0.733704 0.368453
vt 0.661803 0.315624
vt 0.703565 0.315624
vt 0.703565 0.465625
vt 0.661803 0.465625
vt 0.745328 0.366509
vt 0.703565 0.366509
vt 0.745327 0.315624
vt 0.729968 0.328125
vt 0.729968 0.453125
vt 0.716538 0.465625
vt 0.716538 0.315624
vt 0.745327 0.353078
vt 0.757828 0.315624
vt 0.757828 0.366509
vt 0.733704 0.355022
vt 0.721204 0.368453
vt 0.721204 0.317569
vt 0.725434 0.328078
vt 0.736891 0.328078
vt 0.736891 0.371682
vt 0.725434 0.371682
vt 0.713448 0.360055
vt 0.724905 0.360055
vt 0.724905 0.496463
vt 0.713448 0.496463
vt 0.689867 0.326270
vt 0.689867 0.314813
vt 0.733470 0.314813
vt 0.733470 0.326270
vt 0.696016 0.317758
vt 0.733470 0.317758
vt 0.733470 0.323462
vt 0.689866 0.323462
vt 0.540864 0.294066
vt 0.540864 0.443755
vt 0.540864 0.443755
vt 0.540864 0.294066
vt 0.426237 0.132777
vt 0.426237 0.054086
vt 0.540864 0.499845
vt 0.714627 0.349015
vt 0.714627 0.311610
vt 0.721162 0.311610
vt 0.721162 0.354429
vt 0.589307 0.349015
vt 0.714704 0.349015
vt 0.721239 0.354429
vt 0.582772 0.354429
vt 0.760604 0.399569
vt 0.717728 0.399569
vt 0.718250 0.398700
vt 0.760604 0.398700
vt 0.729936 0.399581
vt 0.868026 0.399581
vt 0.867395 0.400376
vt 0.730566 0.400376
vt 0.760604 0.392773
vt 0.717728 0.392773
vt 0.717728 0.391905
vt 0.760081 0.391904
vt 0.588059 0.353549
vt 0.588059 0.332022
vt 0.657315 0.332022
vt 0.657315 0.353549
vt 0.817051 0.332022
vt 0.817051 0.353549
vt 0.717728 0.385990
vt 0.755182 0.385990
vt 0.861482 0.405275
vt 0.736480 0.405275
vt 0.879998 0.332022
vt 0.879998 0.353549
vt 0.723149 0.392786
vt 0.760604 0.392786
vt 0.604289 0.502898
vt 0.617389 0.502898
vt 0.604596 0.502898
vt 0.604289 0.502898
vt 0.609992 0.368538
vt 0.597753 0.368538
vt 0.598041 0.368538
s 0
usemtl TRIM
f 27/1/1 28/2/1 6/3/1 3/4/1
f 18/5/2 4/6/2 1/7/2 16/8/2
f 13/9/2 10/10/2 7/11/2 11/12/2
f 32/13/3 29/14/3 9/15/3 12/16/3
f 31/17/4 30/18/4 10/19/4 13/20/4
f 12/16/5 9/15/5 8/21/5 14/22/5
f 25/23/5 12/24/5 14/25/5 23/26/5
f 38/27/4 31/28/4 13/29/4 26/30/4
f 37/31/3 32/32/3 12/24/3 25/23/3
f 26/33/2 13/34/2 11/35/2 24/36/2
f 10/37/2 18/38/2 16/39/2 7/40/2
f 29/41/3 33/42/3 17/43/3 9/44/3
f 30/45/4 34/46/4 18/47/4 10/48/4
f 9/49/5 17/43/5 15/50/5 8/51/5
f 5/52/2 21/53/2 19/54/2 2/55/2
f 21/53/2 26/56/2 24/57/2 19/54/2
f 37/58/1 25/59/1 47/60/1 52/61/1
f 25/62/1 23/63/1 51/64/1 47/65/1
f 8/51/4 15/66/4 34/67/4 30/68/4
f 7/69/3 16/70/3 33/71/3 29/72/3
f 24/73/3 11/74/3 32/32/3 37/31/3
f 23/75/4 14/76/4 31/77/4 38/78/4
f 14/79/4 8/80/4 30/81/4 31/82/4
f 11/83/3 7/84/3 29/14/3 32/13/3
f 27/85/1 3/86/1 56/87/1 57/88/1
f 1/89/1 4/90/1 28/91/1 27/92/1
f 45/93/3 44/94/3 41/95/3 42/96/3
f 42/97/5 41/98/5 43/99/5 40/100/5
f 40/101/4 43/102/4 46/98/4 39/103/4
f 20/104/1 22/105/1 43/106/1 41/107/1
f 22/108/1 36/103/1 46/109/1 43/110/1
f 35/93/1 20/111/1 41/112/1 44/113/1
f 49/114/3 52/115/3 47/116/3 48/117/3
f 48/118/5 47/119/5 51/120/5 50/121/5
f 50/122/4 51/123/4 54/124/4 53/125/4
f 23/126/1 38/127/1 54/128/1 51/129/1
f 22/130/6 20/131/6 48/132/6 50/133/6
f 36/134/6 22/135/6 50/135/6 53/134/6
f 20/131/6 35/136/6 49/19/6 48/132/6
f 6/137/1 28/138/1 58/139/1 55/140/1
f 3/141/1 6/142/1 55/143/1 56/144/1
f 63/145/7 61/146/7 62/147/7 64/148/7
f 61/149/8 59/150/8 60/151/8 62/152/8
f 59/153/9 66/154/9 65/155/9 60/156/9
f 59/157/4 55/158/4 58/159/4 66/160/4
f 61/160/5 56/159/5 55/161/5 59/162/5
f 34/163/6 15/164/6 60/156/6 65/155/6
f 15/165/6 17/166/6 62/152/6 60/151/6
f 63/162/3 57/161/3 56/167/3 61/168/3
f 17/169/6 33/170/6 64/148/6 62/147/6
f 33/171/2 27/172/2 57/172/2 63/173/2 64/174/2
f 28/175/2 34/176/2 65/176/2 66/177/2 58/175/2
