# Blender 5.2.2 LTS
# www.blender.org
mtllib ColumnaPared_ROTA.mtl
o ColumnaPared
v 1.000000 0.000000 0.000000
v 0.000000 0.000000 0.000000
v 1.000000 1.528477 0.000000
v 0.000000 1.528477 0.799631
v 1.000000 1.528477 0.799631
v 0.000000 1.528477 0.000000
v 1.000000 0.875000 0.000000
v 1.000000 0.875000 0.799631
v 0.000000 0.875000 0.000000
v 0.000000 0.875000 0.799631
v 1.000000 0.334101 0.000000
v 1.000000 0.334101 0.799631
v 0.000000 0.334101 0.000000
v 0.000000 0.334101 0.799631
v 0.000000 0.425757 0.799631
v 1.000000 0.437500 0.000000
v 1.000000 0.425757 0.799631
v 0.000000 0.437500 0.000000
v 1.000000 1.528477 0.500000
v 0.000000 1.528477 0.500000
v 0.000000 0.875000 0.500000
v 1.000000 0.875000 0.500000
v 1.000000 0.334101 0.500000
v 0.000000 0.334101 0.500000
v 1.000000 0.425757 0.500000
v 0.000000 0.425757 0.500000
v -0.100007 0.000000 0.500000
v -0.100007 0.000000 0.907078
v 1.100007 0.334101 0.907078
v 1.100007 0.000000 0.907078
v -0.100007 0.334101 0.907078
v 1.100007 0.334101 0.500000
v 1.100007 0.000000 0.500000
v -0.100007 0.334101 0.500000
v 1.045634 0.425757 0.848830
v 1.045634 0.334101 0.848830
v 1.045634 0.334101 0.500000
v -0.045634 0.334101 0.848830
v -0.045634 0.425757 0.848830
v 1.045634 0.425757 0.500000
v -0.045634 0.334101 0.500000
v -0.045634 0.425757 0.500000
v 1.000000 1.812892 0.000000
v 1.000000 1.812892 0.799631
v 0.000000 1.812892 0.000000
v 0.000000 1.812892 0.799631
v 0.000000 1.812892 0.500000
v 1.000000 1.812892 0.500000
vn -0.0000 -0.0000 -1.0000
vn 1.0000 -0.0000 -0.0000
vn -1.0000 -0.0000 -0.0000
vn -0.0000 -0.0000 1.0000
vn -0.0000 1.0000 -0.0000
vn -0.0000 -1.0000 -0.0000
vt 0.715106 0.418032
vt 0.715106 0.499926
vt 0.589642 0.499926
vt 0.589641 0.418032
vt 0.803270 0.418304
vt 0.803270 0.499987
vt 0.765817 0.499987
vt 0.765817 0.418304
vt 0.603363 0.418161
vt 0.603363 0.499845
vt 0.540864 0.499845
vt 0.540864 0.418161
vt 0.640819 0.499987
vt 0.640819 0.418304
vt 0.765817 0.362333
vt 0.765817 0.418487
vt 0.640819 0.418487
vt 0.640819 0.362333
vt 0.603363 0.362332
vt 0.603363 0.418487
vt 0.540864 0.418487
vt 0.540864 0.362333
vt 0.803270 0.362333
vt 0.803270 0.418487
vt 0.715106 0.363592
vt 0.715106 0.418276
vt 0.589641 0.418276
vt 0.589640 0.363593
vt 0.714974 0.309185
vt 0.714974 0.350952
vt 0.589962 0.350952
vt 0.589962 0.309185
vt 0.714974 0.363878
vt 0.589961 0.363878
vt 0.725086 0.328009
vt 0.725086 0.365463
vt 0.719382 0.371613
vt 0.719382 0.328009
vt 0.712798 0.365691
vt 0.712798 0.490690
vt 0.706648 0.496394
vt 0.706648 0.359987
vt 0.865770 0.362333
vt 0.865770 0.418487
vt 0.640817 0.362332
vt 0.640817 0.418487
vt 0.603363 0.418487
vt 0.603363 0.362332
vt 0.640817 0.418303
vt 0.640817 0.499987
vt 0.603363 0.499987
vt 0.603363 0.418303
vt 0.865770 0.418304
vt 0.865770 0.499987
vt 0.733704 0.317569
vt 0.775467 0.317569
vt 0.775467 0.368453
vt 0.733704 0.368453
vt 0.661803 0.315624
vt 0.703565 0.315624
vt 0.703565 0.465625
vt 0.661803 0.465625
vt 0.745328 0.366509
vt 0.703565 0.366509
vt 0.745327 0.315624
vt 0.729968 0.328125
vt 0.729968 0.453125
vt 0.716538 0.465625
vt 0.716538 0.315624
vt 0.745327 0.353078
vt 0.757828 0.315624
vt 0.757828 0.366509
vt 0.733704 0.355022
vt 0.721204 0.368453
vt 0.721204 0.317569
vt 0.725434 0.328078
vt 0.736891 0.328078
vt 0.736891 0.371682
vt 0.725434 0.371682
vt 0.713448 0.360055
vt 0.724905 0.360055
vt 0.724905 0.496463
vt 0.713448 0.496463
vt 0.689867 0.326270
vt 0.689867 0.314813
vt 0.733470 0.314813
vt 0.733470 0.326270
vt 0.696016 0.317758
vt 0.733470 0.317758
vt 0.733470 0.323462
vt 0.689866 0.323462
vt 0.540864 0.294066
vt 0.540864 0.443755
vt 0.540864 0.443755
vt 0.540864 0.294066
vt 0.426237 0.132777
vt 0.426237 0.054086
vt 0.540864 0.499845
vt 0.865770 0.250399
vt 0.865770 0.285950
vt 0.803270 0.286009
vt 0.803270 0.250399
vt 0.640817 0.250516
vt 0.640817 0.286068
vt 0.603363 0.286068
vt 0.603363 0.250516
vt 0.765817 0.250516
vt 0.765817 0.286068
vt 0.603363 0.250516
vt 0.540864 0.286067
vt 0.540864 0.250516
vt 0.803270 0.250516
vt 0.765817 0.250516
vt 0.714433 0.250516
vt 0.714433 0.286566
vt 0.589934 0.286566
vt 0.589934 0.250516
vt 0.714933 0.286566
vt 0.714933 0.349065
vt 0.589934 0.349065
vt 0.714933 0.386519
vt 0.589934 0.386519
s 0
usemtl TRIM
f 9/1/1 6/2/1 3/3/1 7/4/1
f 22/5/2 19/6/2 5/7/2 8/8/2
f 21/9/3 20/10/3 6/11/3 9/12/3
f 8/8/4 5/7/4 4/13/4 10/14/4
f 17/15/4 8/16/4 10/17/4 15/18/4
f 26/19/3 21/20/3 9/21/3 18/22/3
f 25/23/2 22/24/2 8/16/2 17/15/2
f 18/25/1 9/26/1 7/27/1 16/28/1
f 2/29/1 13/30/1 11/31/1 1/32/1
f 13/30/1 18/33/1 16/34/1 11/31/1
f 25/35/5 17/36/5 35/37/5 40/38/5
f 17/39/5 15/40/5 39/41/5 35/42/5
f 16/43/2 7/44/2 22/24/2 25/23/2
f 15/45/3 10/46/3 21/47/3 26/48/3
f 10/49/3 4/50/3 20/51/3 21/52/3
f 7/53/2 3/54/2 19/6/2 22/5/2
f 33/55/2 32/56/2 29/57/2 30/58/2
f 30/59/4 29/60/4 31/61/4 28/62/4
f 28/63/3 31/64/3 34/60/3 27/65/3
f 12/66/5 14/67/5 31/68/5 29/69/5
f 14/70/5 24/65/5 34/71/5 31/72/5
f 23/55/5 12/73/5 29/74/5 32/75/5
f 37/76/2 40/77/2 35/78/2 36/79/2
f 36/80/4 35/81/4 39/82/4 38/83/4
f 38/84/3 39/85/3 42/86/3 41/87/3
f 15/88/5 26/89/5 42/90/5 39/91/5
f 14/92/6 12/93/6 36/94/6 38/95/6
f 24/96/6 14/97/6 38/97/6 41/96/6
f 12/93/6 23/98/6 37/11/6 36/94/6
f 3/99/2 43/100/2 48/101/2 19/102/2
f 4/103/3 46/104/3 47/105/3 20/106/3
f 5/107/4 44/108/4 46/104/4 4/103/4
f 20/109/3 47/105/3 45/110/3 6/111/3
f 19/112/2 48/101/2 44/108/2 5/113/2
f 6/114/1 45/115/1 43/116/1 3/117/1
f 43/116/5 45/118/5 47/119/5 48/120/5
f 48/120/5 47/119/5 46/121/5 44/122/5
