# Blender 4.5.2 LTS
# www.blender.org
mtllib HormaEgurra.mtl
o Estanterias.001
v 4.000000 3.500000 -0.000001
v 4.000000 0.000000 -0.000001
v 4.000000 3.500000 0.499999
v 4.000000 0.000000 0.499999
v 0.000000 3.500000 -0.000000
v 0.000000 0.000000 -0.000000
v 0.000000 3.500000 0.500000
v 0.000000 0.000000 0.500000
v 4.000000 1.750000 -0.000001
v 0.000000 1.750000 -0.000000
v 4.000000 0.875000 -0.000001
v 4.000000 0.875000 0.499999
v 0.000000 0.875000 -0.000000
v 0.000000 0.875000 0.500000
v 4.000000 3.296032 -0.000001
v 0.000000 3.296032 -0.000000
v 4.000000 0.437500 -0.000001
v 4.000000 0.437500 0.499999
v 0.000000 0.437500 -0.000000
v 0.000000 0.437500 0.500000
v 4.000000 3.296032 0.453000
v 4.000000 1.750000 0.453000
v 0.000000 1.750000 0.453000
v 4.000000 0.875000 0.453000
v 0.000000 0.875000 0.453000
v 0.000000 3.296032 0.452669
v 0.000000 3.500000 0.452669
v 0.000000 0.000000 0.453000
v 0.000000 0.437500 0.453000
v 4.000000 3.500000 0.453000
v 4.000000 0.437500 0.453000
v 4.000000 0.000000 0.453000
v 0.000000 3.296032 0.495212
v 0.000000 3.300820 0.500000
v 4.000000 3.300820 0.499999
v 4.000000 3.296032 0.495212
v 0.237983 3.296032 0.495212
v 0.237983 3.296032 0.452689
v 0.237983 0.875000 0.453000
v 0.237983 0.437500 0.500000
v 0.237983 3.500000 0.500000
v 0.237983 3.300820 0.500000
v 0.237983 0.875000 0.500000
v 0.237983 0.000000 0.500000
v 0.237983 1.750000 0.453000
v 1.951932 3.500000 0.499999
v 2.048068 3.500000 0.499999
v 2.048068 0.000000 0.499999
v 1.951932 0.000000 0.499999
v 1.951932 0.875000 0.499999
v 2.048068 0.875000 0.499999
v 2.048068 0.437500 0.499999
v 1.951932 0.437500 0.499999
v 1.951932 1.750000 0.453000
v 2.048068 1.750000 0.453000
v 2.048068 0.875000 0.453000
v 1.951932 0.875000 0.453000
v 1.951932 3.296032 0.452831
v 2.048068 3.296032 0.452839
v 1.951932 3.300820 0.499999
v 2.048068 3.300820 0.499999
v 2.048068 3.296032 0.495212
v 1.951932 3.296032 0.495212
v 0.951932 3.500000 0.500000
v 1.048068 3.500000 0.500000
v 0.951932 0.875000 0.500000
v 1.048068 0.875000 0.500000
v 1.048068 0.437500 0.500000
v 0.951932 0.437500 0.500000
v 0.951932 1.750000 0.453000
v 1.048068 1.750000 0.453000
v 1.048068 0.875000 0.453000
v 0.951932 0.875000 0.453000
v 0.951932 3.296032 0.452748
v 1.048068 3.296032 0.452756
v 0.951932 3.300820 0.500000
v 1.048068 3.300820 0.500000
v 1.048068 0.000000 0.500000
v 0.951932 0.000000 0.500000
v 1.048068 3.296032 0.495212
v 0.951932 3.296032 0.495212
v 3.048068 0.000000 0.499999
v 2.951932 0.000000 0.499999
v 2.951932 3.296032 0.495212
v 3.048068 3.296032 0.495212
v 2.951932 3.500000 0.499999
v 3.048068 3.500000 0.499999
v 3.048068 0.875000 0.499999
v 2.951932 0.875000 0.499999
v 2.951932 0.437500 0.499999
v 3.048068 0.437500 0.499999
v 3.048068 1.750000 0.453000
v 2.951932 1.750000 0.453000
v 2.951932 0.875000 0.453000
v 3.048068 0.875000 0.453000
v 3.048068 3.296032 0.452921
v 2.951932 3.296032 0.452913
v 3.048068 3.300820 0.499999
v 2.951932 3.300820 0.499999
v 3.762017 0.875000 0.453000
v 3.762017 3.296032 0.495212
v 3.762017 3.300820 0.499999
v 3.762017 0.437500 0.499999
v 3.762017 3.500000 0.499999
v 3.762017 0.000000 0.499999
v 3.762017 3.296032 0.452980
v 3.762017 0.875000 0.499999
v 3.762017 1.750000 0.453000
v 1.500000 3.300820 0.500000
v 1.500000 3.500000 0.500000
v 1.500000 0.000000 0.500000
v 1.500000 0.437500 0.500000
v 1.500000 0.875000 0.500000
v 1.500000 0.875000 0.453000
v 1.500000 3.296032 0.452793
v 1.500000 3.296032 0.495212
v 2.500000 3.300820 0.499999
v 2.500000 3.500000 0.499999
v 2.500000 0.000000 0.499999
v 2.500000 0.437500 0.499999
v 2.500000 0.875000 0.499999
v 2.500000 0.875000 0.453000
v 2.500000 3.296032 0.452876
v 2.500000 3.296032 0.495212
v 3.405043 0.000000 0.499999
v 3.405043 0.875000 0.499999
v 3.405043 3.296032 0.452951
v 3.405043 3.500000 0.499999
v 3.405043 0.437500 0.499999
v 3.405043 3.296032 0.495212
v 3.405043 3.300820 0.499999
v 3.405043 0.875000 0.453000
v 0.594958 3.296032 0.495212
v 0.594958 0.875000 0.453000
v 0.594958 3.296032 0.452719
v 0.594958 3.500000 0.500000
v 0.594958 3.300820 0.500000
v 0.594958 0.875000 0.500000
v 0.594958 0.437500 0.500000
v 0.594958 0.000000 0.500000
v 4.000000 3.076668 -0.000001
v 0.000000 3.076668 -0.000000
v 4.000000 3.076668 0.453000
v 0.000000 3.076668 0.452722
v 0.237983 3.076668 0.452739
v 1.951932 3.076668 0.452858
v 2.048068 3.076668 0.452864
v 0.951932 3.076668 0.452788
v 1.048068 3.076668 0.452795
v 2.951932 3.076668 0.452927
v 3.048068 3.076668 0.452934
v 3.762017 3.076668 0.452983
v 1.500000 3.076668 0.452826
v 2.500000 3.076668 0.452896
v 3.405043 3.076668 0.452958
v 0.594958 3.076668 0.452763
v 4.000000 2.429462 -0.000001
v 0.000000 2.429462 -0.000000
v 4.000000 2.429462 0.453000
v 0.237983 2.429462 0.452864
v 1.951932 2.429462 0.452926
v 0.951932 2.429462 0.452889
v 2.951932 2.429462 0.452962
v 3.762017 2.429462 0.452991
v 0.000000 2.429462 0.452855
v 2.048068 2.429462 0.452929
v 1.048068 2.429462 0.452893
v 3.048068 2.429462 0.452965
v 4.000000 2.161152 -0.000001
v 0.000000 2.161152 -0.000000
v 4.000000 2.161152 0.453000
v 0.237983 2.161152 0.452918
v 1.951932 2.161152 0.452955
v 0.951932 2.161152 0.452933
v 2.951932 2.161152 0.452977
v 3.762017 2.161152 0.452995
v 0.000000 2.161152 0.452912
v 2.048068 2.161152 0.452957
v 1.048068 2.161152 0.452935
v 3.048068 2.161152 0.452979
v 2.000000 3.500000 0.499999
v 2.000000 3.300820 0.499999
v 2.000000 3.296032 0.495212
v 2.000000 3.296032 0.452835
v 2.000000 0.875000 0.499999
v 2.000000 0.875000 0.453000
v 2.000000 1.750000 0.453000
v 2.000000 0.437500 0.499999
v 2.000000 0.000000 0.499999
v 2.000000 3.076668 0.452861
v 2.000000 2.429462 0.452927
v 2.000000 2.161152 0.452956
v 3.405043 2.429462 0.452978
v 3.405043 2.161152 0.452987
v 3.405043 1.750000 0.453000
v 3.405043 0.875000 0.453000
v 2.500000 2.429462 0.452945
v 2.500000 2.161152 0.452967
v 2.500000 1.750000 0.453000
v 2.500000 0.875000 0.453000
v 1.500000 1.750000 0.453000
v 1.500000 2.161152 0.452945
v 1.500000 2.429462 0.452909
v 1.500000 0.875000 0.453000
v 0.594958 2.429462 0.452877
v 0.594958 2.161152 0.452925
v 0.594958 1.750000 0.453000
v 0.594958 0.875000 0.453000
vn 1.0000 -0.0000 -0.0000
vn -0.0000 -0.0000 -1.0000
vn -0.0000 -1.0000 -0.0000
vn -1.0000 -0.0000 -0.0000
vn -0.0000 -0.0000 1.0000
vn -0.0000 1.0000 -0.0000
vn -0.0001 0.0002 1.0000
vn -0.0000 -0.7071 0.7071
vn -0.0001 -0.0000 1.0000
vn -0.0000 0.0001 1.0000
vn -0.0000 0.0002 1.0000
vn -0.0001 0.0001 1.0000
vt 0.498575 0.801309
vt 0.498575 0.815878
vt 0.277949 0.815878
vt 0.277948 0.801309
vt 0.748575 0.801309
vt 0.748575 0.815878
vt 0.157694 0.871652
vt 0.157694 0.808017
vt 0.448597 0.808017
vt 0.448597 0.871652
vt 0.207228 0.860999
vt 0.176804 0.860999
vt 0.176804 0.804899
vt 0.207228 0.804899
vt 0.249572 0.801309
vt 0.234639 0.801309
vt 0.233701 0.801309
vt 0.248575 0.801309
vt 0.404829 0.845659
vt 0.350648 0.845659
vt 0.350648 0.789558
vt 0.404829 0.789558
vt -0.007962 0.812603
vt -0.007962 0.762809
vt 0.447301 0.762809
vt 0.447301 0.812603
vt 0.448597 0.758552
vt 0.448597 0.776419
vt 0.157694 0.776419
vt 0.157694 0.758552
vt 0.974910 0.801309
vt 0.974910 0.815878
vt 0.476630 0.804899
vt 0.476630 0.860999
vt 0.368268 0.860999
vt 0.368268 0.804899
vt -0.007962 0.862397
vt 0.447301 0.862397
vt 0.459010 0.845659
vt 0.459010 0.789558
vt 0.350440 0.845659
vt 0.296259 0.845659
vt 0.296259 0.839839
vt 0.350440 0.839839
vt 0.228124 0.189629
vt 0.178805 0.189629
vt 0.178805 0.129185
vt 0.228124 0.129185
vt 0.423399 0.123122
vt 0.467345 0.123122
vt 0.467345 0.128908
vt 0.423399 0.128908
vt 0.229314 0.249749
vt 0.229314 0.189936
vt 0.180510 0.189936
vt 0.180510 0.249749
vt -0.179494 0.831469
vt -0.179494 0.858471
vt -0.223435 0.858471
vt -0.223435 0.831469
vt 0.242078 0.845659
vt 0.242078 0.839839
vt 0.334564 0.867151
vt 0.283646 0.867151
vt 0.283646 0.811050
vt 0.334564 0.811061
vt 0.175284 0.867151
vt 0.175284 0.811050
vt 0.296259 0.783738
vt 0.350440 0.783738
vt 0.242078 0.783738
vt 0.404829 0.783738
vt 0.459010 0.783738
vt 0.350648 0.783738
vt 0.035908 0.801309
vt 0.035760 0.801309
vt 0.058071 0.801309
vt 0.058308 0.801309
vt 0.996181 0.801309
vt 0.998575 0.801651
vt 0.998575 0.815878
vt 0.035760 0.801651
vt 0.013449 0.801651
vt 0.013508 0.801309
vt 0.248575 0.815878
vt 0.248575 0.801651
vt 0.077459 0.123122
vt 0.121405 0.123122
vt 0.121405 0.128908
vt 0.077459 0.128908
vt 0.229314 0.130123
vt 0.278118 0.189936
vt 0.278118 0.130123
vt 0.212239 0.801309
vt 0.189839 0.801309
vt 0.189079 0.801309
vt 0.211390 0.801309
vt 0.310322 0.189629
vt 0.310322 0.250073
vt 0.277443 0.250073
vt 0.277443 0.189629
vt 0.246746 0.756206
vt 0.246746 0.863911
vt 0.217452 0.863911
vt 0.217452 0.756206
vt 0.310322 0.129185
vt 0.277443 0.129185
vt 0.233701 0.801651
vt 0.233701 0.815878
vt 0.239638 0.831469
vt 0.239638 0.858471
vt 0.210345 0.858471
vt 0.210345 0.831469
vt 0.228124 0.250073
vt 0.178805 0.250073
vt 0.211390 0.801651
vt 0.189079 0.801651
vt 0.211390 0.815878
vt 0.189079 0.815878
vt 0.004216 0.123122
vt 0.033513 0.123122
vt 0.033513 0.128908
vt 0.004216 0.128908
vt 0.123575 0.815878
vt 0.123575 0.801651
vt 0.126579 0.801651
vt 0.126579 0.815878
vt 0.124074 0.801309
vt 0.123575 0.801309
vt 0.126579 0.801309
vt 0.127090 0.801309
vt 0.250429 0.123122
vt 0.250429 0.128908
vt 0.244512 0.128908
vt 0.244512 0.123122
vt -0.005962 0.839493
vt -0.005962 0.788884
vt -0.000045 0.788884
vt -0.000045 0.839493
vt 0.000562 0.863911
vt 0.000562 0.756206
vt 0.006479 0.756206
vt 0.006479 0.863911
vt 0.034007 0.189629
vt 0.034007 0.129185
vt 0.040648 0.129185
vt 0.040648 0.189629
vt 0.034007 0.250073
vt 0.040648 0.250073
vt 0.133240 0.123122
vt 0.133240 0.128908
vt 0.058071 0.815878
vt 0.058071 0.801651
vt 0.064079 0.801651
vt 0.064079 0.815878
vt 0.064079 0.801309
vt 0.064340 0.801309
vt -0.134971 0.839493
vt -0.134971 0.788884
vt -0.123137 0.788884
vt -0.123137 0.839493
vt -0.128446 0.863911
vt -0.128446 0.756206
vt -0.116613 0.756206
vt -0.116613 0.863911
vt 0.180510 0.130123
vt 0.167366 0.130123
vt 0.167366 0.189936
vt 0.167366 0.249749
vt 0.165523 0.250073
vt 0.165523 0.189629
vt 0.165523 0.129185
vt 0.117737 0.863911
vt 0.117737 0.756206
vt 0.129571 0.756206
vt 0.129571 0.863911
vt 0.111213 0.839493
vt 0.111213 0.788884
vt 0.123046 0.788884
vt 0.123046 0.839493
vt 0.183070 0.801651
vt 0.183807 0.801309
vt 0.183071 0.801309
vt 0.183071 0.815878
vt 0.379453 0.123122
vt 0.379453 0.128908
vt 0.367618 0.128908
vt 0.367618 0.123122
vt 0.154825 0.801651
vt 0.154825 0.815878
vt 0.092325 0.801651
vt 0.092325 0.815878
vt 0.673298 0.853934
vt 0.010357 0.853934
vt 0.010357 0.778911
vt 0.010357 0.771066
vt 0.049799 0.771066
vt 0.108963 0.771066
vt 0.168126 0.771066
vt 0.184059 0.771066
vt 0.258960 0.771066
vt 0.333861 0.771066
vt 0.341828 0.771066
vt 0.349794 0.771066
vt 0.424695 0.771066
vt 0.499597 0.771066
vt 0.515530 0.771066
vt 0.574693 0.771066
vt 0.633856 0.771066
vt 0.673298 0.771066
vt 0.673298 0.778856
vt 0.105580 0.130123
vt 0.105580 0.189936
vt 0.103086 0.129185
vt 0.103086 0.189629
vt 0.311983 0.123122
vt 0.311983 0.128908
vt 0.188876 0.123122
vt 0.188876 0.128908
vt 0.103086 0.250073
vt 0.105580 0.249749
vt 0.055001 0.831469
vt 0.055001 0.858471
vt -0.000628 0.858471
vt -0.000628 0.831469
vt -0.068091 0.831469
vt -0.068091 0.858471
vt -0.123720 0.858471
vt -0.123720 0.831469
vt 0.155448 0.801309
vt 0.154825 0.801309
vt 0.092699 0.801309
vt 0.092325 0.801309
vt 0.013449 0.815878
vt -0.001425 0.815878
vt -0.001425 0.801651
vt 0.278118 0.249749
vt 0.310654 0.249749
vt 0.310654 0.189936
vt 0.310654 0.130123
vt -0.252729 0.858471
vt -0.252729 0.831469
vt -0.216328 0.756206
vt -0.216328 0.863911
vt -0.245621 0.863911
vt -0.245621 0.756206
vt -0.001425 0.801309
vt 0.013449 0.801309
vt 0.496643 0.123122
vt 0.496643 0.128908
vt 0.035760 0.815878
vt 0.120571 0.801651
vt 0.121057 0.801309
vt 0.120571 0.801309
vt -0.012462 0.831469
vt -0.012462 0.858471
vt 0.043794 0.189936
vt 0.043794 0.249749
vt 0.043794 0.130123
vt 0.120571 0.815878
vt 0.110630 0.831469
vt 0.110630 0.858471
vt 0.256347 0.123122
vt 0.256347 0.128908
vt -0.135554 0.831469
vt -0.135554 0.858471
vt 0.122463 0.858471
vt 0.122463 0.831469
vt 0.166404 0.831469
vt 0.166404 0.858471
vt -0.223435 0.751803
vt -0.252729 0.751803
vt -0.006545 0.858471
vt -0.006545 0.831469
vt 0.239638 0.751803
vt 0.210345 0.751803
vt 0.475111 0.867151
vt 0.444686 0.867151
vt 0.444686 0.811085
vt 0.475111 0.811091
vt 0.157694 0.872890
vt 0.157694 0.827734
vt 0.448597 0.827734
vt 0.448597 0.872890
vt 0.284122 0.860999
vt 0.284122 0.804899
vt 0.317350 0.860999
vt 0.317350 0.804899
vt 0.157694 0.773136
vt 0.157694 0.753623
vt 0.448597 0.753623
vt 0.448597 0.773136
vt 0.240221 0.839493
vt 0.240221 0.872520
vt 0.210928 0.872520
vt 0.210928 0.839493
vt -0.222852 0.839493
vt -0.222852 0.872520
vt -0.252146 0.872520
vt -0.252146 0.839493
vt 0.110630 0.751803
vt 0.122463 0.751803
vt -0.135554 0.751803
vt -0.123720 0.751803
vt -0.006545 0.751803
vt -0.000628 0.751803
vt 0.367792 0.867151
vt 0.367792 0.811068
vt -0.222852 0.788884
vt -0.252146 0.788884
vt 0.240221 0.788884
vt 0.210928 0.788884
vt 0.157694 0.803038
vt 0.448597 0.803038
vt 0.111213 0.872520
vt 0.123046 0.872520
vt -0.134971 0.872520
vt -0.123137 0.872520
vt -0.005962 0.872520
vt -0.000045 0.872520
vt -0.011879 0.872520
vt -0.011879 0.839493
vt -0.012462 0.751803
vt 0.037222 0.189936
vt 0.037222 0.249749
vt 0.037222 0.130123
vt -0.005355 0.863911
vt -0.005355 0.756206
vt -0.011879 0.788884
vt -0.179494 0.751803
vt -0.178911 0.839493
vt -0.178911 0.872520
vt -0.178911 0.788884
vt -0.172387 0.756206
vt -0.172387 0.863911
vt -0.068091 0.751803
vt -0.067508 0.839493
vt -0.067508 0.872520
vt -0.067508 0.788884
vt -0.060984 0.863911
vt -0.060984 0.756206
vt 0.055001 0.751803
vt 0.055584 0.839493
vt 0.055584 0.872520
vt 0.055584 0.788884
vt 0.062108 0.756206
vt 0.062108 0.863911
vt 0.166404 0.751803
vt 0.166987 0.839493
vt 0.166987 0.872520
vt 0.166987 0.788884
vt 0.173511 0.756206
vt 0.173511 0.863911
s 0
usemtl Material.001
f 15/1/1 1/2/1 30/3/1 21/4/1
f 16/5/2 5/6/2 1/2/2 15/1/2
f 13/7/2 10/8/2 9/9/2 11/10/2
f 141/11/1 15/12/1 21/13/1 143/14/1
f 36/15/3 101/16/3 106/17/3 21/18/3
f 17/19/1 11/20/1 24/21/1 31/22/1
f 19/23/2 13/24/2 11/25/2 17/26/2
f 142/27/2 16/28/2 15/29/2 141/30/2
f 26/31/4 27/32/4 5/6/4 16/5/4
f 24/33/1 11/34/1 9/35/1 22/36/1
f 6/37/2 19/23/2 17/26/2 2/38/2
f 2/39/1 17/19/1 31/22/1 32/40/1
f 8/41/4 20/42/4 29/43/4 28/44/4
f 129/45/5 91/46/5 82/47/5 125/48/5
f 126/49/6 107/50/6 100/51/6 132/52/6
f 138/53/5 139/54/5 69/55/5 66/56/5
f 156/57/7 135/58/7 38/59/7 145/60/7
f 20/42/4 14/61/4 25/62/4 29/43/4
f 170/63/4 10/64/4 23/65/4 177/66/4
f 10/64/4 13/67/4 25/68/4 23/65/4
f 28/44/4 29/43/4 19/69/4 6/70/4
f 29/43/4 25/62/4 13/71/4 19/69/4
f 32/40/1 31/22/1 18/72/1 4/73/1
f 31/22/1 24/21/1 12/74/1 18/72/1
f 133/75/3 135/76/3 74/77/3 81/78/3
f 33/79/4 34/80/4 7/81/4 27/32/4 26/31/4
f 137/82/8 42/83/8 37/84/8 133/75/8
f 21/4/1 30/3/1 3/85/1 35/86/1 36/15/1
f 138/87/6 66/88/6 73/89/6 134/90/6
f 140/91/5 139/54/5 40/92/5 44/93/5
f 130/94/3 85/95/3 96/96/3 127/97/3
f 18/98/5 12/99/5 107/100/5 103/101/5
f 24/102/5 22/103/5 108/104/5 100/105/5
f 4/106/5 18/98/5 103/101/5 105/107/5
f 35/86/8 102/108/8 101/16/8 36/15/8
f 35/86/5 3/85/5 104/109/5 102/108/5
f 143/110/9 21/111/9 106/112/9 152/113/9
f 126/114/5 88/115/5 91/46/5 129/45/5
f 131/116/8 98/117/8 85/95/8 130/94/8
f 128/118/5 87/119/5 98/117/5 131/116/5
f 14/120/6 43/121/6 39/122/6 25/123/6
f 181/124/5 182/125/5 61/126/5 47/127/5
f 183/128/3 184/129/3 59/130/3 62/131/3
f 182/125/8 183/128/8 62/131/8 61/126/8
f 185/132/6 186/133/6 57/134/6 50/135/6
f 192/136/10 187/137/10 55/138/10 178/139/10
f 187/140/5 186/141/5 56/142/5 55/143/5
f 188/144/5 189/145/5 48/146/5 52/147/5
f 185/148/5 188/144/5 52/147/5 51/149/5
f 67/150/6 72/151/6 73/89/6 66/88/6
f 64/152/5 76/153/5 77/154/5 65/155/5
f 81/78/3 74/77/3 75/156/3 80/157/3
f 76/153/8 81/78/8 80/157/8 77/154/8
f 174/158/11 70/159/11 71/160/11 179/161/11
f 70/162/5 73/163/5 72/164/5 71/165/5
f 69/55/5 79/166/5 78/167/5 68/168/5
f 66/56/5 69/55/5 68/168/5 67/169/5
f 89/170/5 90/171/5 91/46/5 88/115/5
f 90/171/5 83/172/5 82/47/5 91/46/5
f 93/173/5 94/174/5 95/175/5 92/176/5
f 175/177/10 93/178/10 92/179/10 180/180/10
f 99/181/8 84/182/8 85/95/8 98/117/8
f 84/182/3 97/183/3 96/96/3 85/95/3
f 86/184/5 99/181/5 98/117/5 87/119/5
f 88/185/6 95/186/6 94/187/6 89/188/6
f 117/189/5 118/190/5 47/127/5 61/126/5
f 109/191/5 110/192/5 65/155/5 77/154/5
f 1/193/6 5/194/6 27/195/6 7/196/6 41/197/6 136/198/6 64/199/6 65/200/6 110/201/6 46/202/6 181/203/6 47/204/6 118/205/6 86/206/6 87/207/6 128/208/6 104/209/6 3/210/6 30/211/6
f 111/212/5 112/213/5 68/168/5 78/167/5
f 119/214/5 120/215/5 52/147/5 48/146/5
f 121/216/6 89/188/6 94/187/6 122/217/6
f 113/218/6 50/135/6 57/134/6 114/219/6
f 120/215/5 121/220/5 51/149/5 52/147/5
f 112/213/5 113/221/5 67/169/5 68/168/5
f 154/222/12 123/223/12 59/224/12 147/225/12
f 153/226/7 115/227/7 75/228/7 149/229/7
f 124/230/3 62/131/3 59/130/3 123/231/3
f 116/232/3 80/157/3 75/156/3 115/233/3
f 117/189/8 61/126/8 62/131/8 124/230/8
f 109/191/8 77/154/8 80/157/8 116/232/8
f 42/83/5 41/234/5 7/235/5 34/236/5
f 40/92/5 43/237/5 14/238/5 20/239/5
f 44/93/5 40/92/5 20/239/5 8/240/5
f 145/60/7 38/59/7 26/241/7 144/242/7
f 39/243/5 45/244/5 23/245/5 25/246/5
f 37/84/3 33/247/3 26/247/3 38/248/3
f 42/83/8 34/236/8 33/247/8 37/84/8
f 107/50/6 12/249/6 24/250/6 100/51/6
f 137/82/5 136/251/5 41/234/5 42/83/5
f 60/252/8 109/191/8 116/232/8 63/253/8
f 63/253/3 116/232/3 115/233/3 58/254/3
f 146/255/12 58/256/12 115/227/12 153/226/12
f 53/257/5 50/258/5 113/221/5 112/213/5
f 67/150/6 113/218/6 114/219/6 72/151/6
f 49/259/5 53/257/5 112/213/5 111/212/5
f 60/252/5 46/260/5 110/192/5 109/191/5
f 99/181/8 117/189/8 124/230/8 84/182/8
f 84/182/3 124/230/3 123/231/3 97/183/3
f 150/261/12 97/262/12 123/223/12 154/222/12
f 90/171/5 89/170/5 121/220/5 120/215/5
f 51/263/6 121/216/6 122/217/6 56/264/6
f 83/172/5 90/171/5 120/215/5 119/214/5
f 99/181/5 86/184/5 118/190/5 117/189/5
f 104/109/5 128/118/5 131/116/5 102/108/5
f 102/108/8 131/116/8 130/94/8 101/16/8
f 107/100/5 126/114/5 129/45/5 103/101/5
f 101/16/3 130/94/3 127/97/3 106/17/3
f 88/185/6 126/49/6 132/52/6 95/186/6
f 103/101/5 129/45/5 125/48/5 105/107/5
f 76/153/5 64/152/5 136/251/5 137/82/5
f 79/166/5 69/55/5 139/54/5 140/91/5
f 43/121/6 138/87/6 134/90/6 39/122/6
f 76/153/8 137/82/8 133/75/8 81/78/8
f 37/84/3 38/248/3 135/76/3 133/75/3
f 148/265/7 74/266/7 135/58/7 156/57/7
f 43/237/5 40/92/5 139/54/5 138/53/5
f 96/267/9 151/268/9 155/269/9 127/270/9
f 160/271/7 145/60/7 144/242/7 165/272/7
f 97/262/12 150/261/12 151/268/12 96/267/12
f 74/266/7 148/265/7 149/229/7 75/228/7
f 184/273/12 190/274/12 147/225/12 59/224/12
f 127/270/9 155/269/9 152/113/9 106/112/9
f 159/275/9 143/110/9 152/113/9 164/276/9
f 16/277/4 142/278/4 144/279/4 26/280/4
f 158/281/2 142/282/2 141/283/2 157/284/2
f 157/285/1 141/11/1 143/14/1 159/286/1
f 169/287/1 157/285/1 159/286/1 171/288/1
f 170/289/2 158/290/2 157/291/2 169/292/2
f 171/293/5 159/294/5 164/295/5 176/296/5
f 172/297/11 160/298/11 165/299/11 177/300/11
f 150/261/12 163/301/12 168/302/12 151/268/12
f 148/265/7 162/303/7 167/304/7 149/229/7
f 190/274/12 191/305/12 166/306/12 147/225/12
f 142/278/4 158/307/4 165/308/4 144/279/4
f 45/309/11 172/297/11 177/300/11 23/310/11
f 22/311/5 171/293/5 176/296/5 108/312/5
f 10/313/2 170/289/2 169/292/2 9/314/2
f 9/35/1 169/287/1 171/288/1 22/36/1
f 163/315/10 175/177/10 180/180/10 168/316/10
f 162/317/11 174/158/11 179/161/11 167/318/11
f 191/319/10 192/136/10 178/139/10 166/320/10
f 158/307/4 170/63/4 177/66/4 165/308/4
f 161/321/10 173/322/10 192/136/10 191/319/10
f 146/255/12 161/323/12 191/305/12 190/274/12
f 58/256/12 146/255/12 190/274/12 184/273/12
f 50/258/5 53/257/5 188/324/5 185/325/5
f 53/257/5 49/259/5 189/326/5 188/324/5
f 54/327/5 57/328/5 186/141/5 187/140/5
f 173/322/10 54/329/10 187/137/10 192/136/10
f 51/263/6 56/264/6 186/133/6 185/132/6
f 60/252/8 63/253/8 183/128/8 182/125/8
f 63/253/3 58/254/3 184/129/3 183/128/3
f 46/260/5 60/252/5 182/125/5 181/124/5
f 148/265/7 156/57/7 205/330/7 162/303/7
f 206/331/11 174/158/11 162/317/11 205/332/11
f 207/333/11 70/159/11 174/158/11 206/331/11
f 208/334/5 73/163/5 70/162/5 207/335/5
f 149/229/12 167/304/12 203/336/12 153/226/12
f 202/337/10 173/322/10 161/321/10 203/338/10
f 202/337/10 179/161/10 71/160/10 201/339/10
f 201/340/5 71/165/5 72/164/5 204/341/5
f 147/225/12 166/306/12 197/342/12 154/222/12
f 198/343/10 175/177/10 163/315/10 197/344/10
f 198/343/10 178/139/10 55/138/10 199/345/10
f 200/346/5 94/174/5 93/173/5 199/347/5
f 168/302/9 193/348/9 155/269/9 151/268/9
f 194/349/5 176/296/5 164/295/5 193/350/5
f 194/349/5 180/180/5 92/179/5 195/351/5
f 196/352/5 100/105/5 108/104/5 195/353/5
f 95/175/5 196/352/5 195/353/5 92/176/5
f 176/296/5 194/349/5 195/351/5 108/312/5
f 180/180/5 194/349/5 193/350/5 168/316/5
f 56/142/5 200/346/5 199/347/5 55/143/5
f 175/177/10 198/343/10 199/345/10 93/178/10
f 178/139/10 198/343/10 197/344/10 166/320/10
f 54/327/5 201/340/5 204/341/5 57/328/5
f 173/322/10 202/337/10 201/339/10 54/329/10
f 179/161/10 202/337/10 203/338/10 167/318/10
f 39/243/5 208/334/5 207/335/5 45/244/5
f 45/309/11 207/333/11 206/331/11 172/297/11
f 172/297/11 206/331/11 205/332/11 160/298/11
f 205/330/7 156/57/7 145/60/7 160/271/7
f 155/269/9 193/348/9 164/276/9 152/113/9
f 154/222/12 197/342/12 163/301/12 150/261/12
f 153/226/12 203/336/12 161/323/12 146/255/12
