# Blender 4.5.2 LTS
# www.blender.org
mtllib HormaAtea.mtl
o Puerta
v 4.000000 3.500000 0.000000
v 4.000000 0.000000 0.000000
v 4.000000 3.500000 0.500000
v 4.000000 0.000000 0.500000
v 0.000000 3.500000 0.000000
v 0.000000 0.000000 0.000000
v 0.000000 3.500000 0.500000
v 0.000000 0.000000 0.500000
v 4.000000 1.812892 0.000000
v 0.000000 1.812892 0.000000
v 4.000000 0.875000 0.000000
v 4.000000 0.875000 0.500000
v 0.000000 0.875000 0.000000
v 0.000000 0.875000 0.500000
v 0.000000 3.296032 0.500000
v 4.000000 3.296032 0.000000
v 4.000000 3.296032 0.500000
v 0.000000 3.296032 0.000000
v 4.000000 0.437500 0.000000
v 4.000000 0.437500 0.500000
v 0.000000 0.437500 0.000000
v 0.000000 0.437500 0.500000
v 4.000000 3.296032 0.453001
v 4.000000 1.812892 0.453001
v 0.000000 1.812892 0.453001
v 4.000000 0.875000 0.453001
v 0.000000 0.875000 0.453001
v 0.000000 3.296032 0.452670
v 0.000000 3.500000 0.452670
v 0.000000 0.000000 0.453001
v 0.000000 0.437500 0.453001
v 4.000000 3.500000 0.453001
v 4.000000 0.437500 0.453001
v 4.000000 0.000000 0.453001
v 1.991836 3.500000 0.500000
v 1.991836 3.296032 0.500000
v 1.991836 3.296032 0.452835
v 1.991836 3.500000 0.000000
v 1.991836 3.296032 0.000000
v 1.991836 3.500000 0.452835
v 4.000000 2.554462 0.000000
v 0.000000 2.554462 0.000000
v 4.000000 2.554462 0.453001
v 0.000000 2.554462 0.452835
v 1.991836 2.554462 0.452918
v 1.991836 2.554462 0.000000
v 1.109753 0.000000 0.000000
v 1.109753 3.500000 0.500000
v 1.109753 0.875000 0.500000
v 1.109753 3.296032 0.500000
v 1.109753 0.437500 0.500000
v 1.109753 1.812892 0.453001
v 1.109753 0.875000 0.453001
v 1.109753 3.296032 0.452752
v 1.109753 0.000000 0.500000
v 1.109753 3.500000 0.000000
v 1.109753 1.812892 0.000000
v 1.109753 0.875000 0.000000
v 1.109753 3.296032 0.000000
v 1.109753 0.437500 0.000000
v 1.109753 3.500000 0.452752
v 1.109753 2.554462 0.000000
v 1.109753 2.554462 0.452877
v 2.890247 0.000000 0.500000
v 2.890247 3.500000 0.000000
v 2.890247 1.812892 0.000000
v 2.890247 0.875000 0.000000
v 2.890247 3.296032 0.000000
v 2.890247 0.437500 0.000000
v 2.890247 3.500000 0.500000
v 2.890247 0.875000 0.500000
v 2.890247 3.296032 0.500000
v 2.890247 0.437500 0.500000
v 2.890247 1.812892 0.453001
v 2.890247 0.875000 0.453001
v 2.890247 3.296032 0.452918
v 2.890247 3.500000 0.452918
v 2.890247 0.000000 0.000000
v 2.890247 2.554462 0.452959
v 2.890247 2.554462 0.000000
v 1.109753 0.437500 0.453001
v 1.991836 2.705859 0.210423
v 1.099829 2.705859 0.210423
v 0.910945 2.705859 0.210423
v 0.910945 2.597682 0.210423
v 0.910945 0.002159 0.210423
v 1.184578 0.002159 0.468509
v 1.099829 0.002159 0.544892
v 1.139229 0.002159 0.499543
v 1.184578 2.506204 0.468509
v 1.099829 2.597682 0.544892
v 1.139229 2.551553 0.499543
v 1.991836 2.597682 0.544892
v 1.991836 2.506204 0.468509
v 1.991836 2.551553 0.499543
v 0.951960 0.002159 0.544892
v 0.910945 0.002159 0.503877
v 0.935296 0.002159 0.520542
v 0.951960 2.664844 0.544892
v 0.910945 2.705859 0.503877
v 0.935296 2.681508 0.520542
v 1.099829 2.664844 0.544892
v 1.099829 2.705859 0.503877
v 1.099829 2.681508 0.520542
v 0.910945 2.597682 0.503877
v 0.951960 2.597682 0.544892
v 0.935296 2.597682 0.520542
v 1.991836 2.705859 0.503877
v 1.991836 2.664844 0.544892
v 1.991836 2.681508 0.520542
v 1.184578 0.002159 0.210423
v 1.184578 2.506204 0.210423
v 1.991836 2.506204 0.210423
v 2.877856 2.705859 0.210423
v 3.058213 2.705859 0.210423
v 3.058213 2.597682 0.210423
v 3.058213 0.002159 0.210423
v 2.784579 0.002159 0.468509
v 2.877856 0.002159 0.544892
v 2.829928 0.002159 0.499543
v 2.784579 2.506204 0.468509
v 2.877856 2.597682 0.544892
v 2.829928 2.551553 0.499543
v 3.017198 0.002159 0.544892
v 3.058213 0.002159 0.503877
v 3.033861 0.002159 0.520542
v 3.017198 2.664844 0.544892
v 3.058213 2.705859 0.503877
v 3.033861 2.681508 0.520542
v 2.877856 2.664844 0.544892
v 2.877856 2.705859 0.503877
v 2.877856 2.681508 0.520542
v 3.058213 2.597682 0.503877
v 3.017198 2.597682 0.544892
v 3.033861 2.597682 0.520542
v 2.784579 0.002159 0.210423
v 2.784579 2.506204 0.210423
v 1.184578 0.002159 0.000000
v 1.184578 2.506204 0.000000
v 1.991836 2.506204 0.000000
v 2.784579 0.002159 0.000000
v 2.784579 2.506204 0.000000
v 3.058213 1.879043 0.210423
v 2.877856 1.879043 0.544892
v 2.829928 1.845686 0.499543
v 2.784579 1.812892 0.468509
v 3.017198 1.879043 0.544892
v 3.033861 1.879043 0.520542
v 3.058213 1.879043 0.503877
v 2.784579 1.812892 0.210423
v 2.784579 1.812892 0.000000
v 3.058213 0.906887 0.210423
v 2.877856 0.906887 0.544892
v 3.033861 0.906887 0.520542
v 3.058213 0.906887 0.503877
v 2.784579 0.875000 0.210423
v 2.829928 0.890808 0.499543
v 2.784579 0.875000 0.468509
v 3.017198 0.906887 0.544892
v 2.784579 0.875000 0.000000
v 3.058213 0.453404 0.210423
v 2.877856 0.453404 0.544892
v 3.033861 0.453404 0.520542
v 3.058213 0.453404 0.503877
v 2.784579 0.437500 0.210423
v 2.829928 0.445384 0.499543
v 2.784579 0.437500 0.468509
v 3.017198 0.453404 0.544892
v 2.784579 0.437500 0.000000
v 0.910945 0.453404 0.210423
v 1.099829 0.453404 0.544892
v 1.139229 0.445384 0.499543
v 1.184578 0.437500 0.468509
v 0.951960 0.453404 0.544892
v 0.935296 0.453404 0.520542
v 0.910945 0.453404 0.503877
v 1.184578 0.437500 0.210423
v 1.184578 0.437500 0.000000
v 1.139229 0.890808 0.499543
v 1.184578 0.875000 0.468509
v 0.951960 0.906887 0.544892
v 1.184578 0.875000 0.000000
v 0.910945 0.906887 0.210423
v 1.099829 0.906887 0.544892
v 0.935296 0.906887 0.520542
v 0.910945 0.906887 0.503877
v 1.184578 0.875000 0.210423
v 1.139229 1.845686 0.499543
v 1.184578 1.812892 0.468509
v 0.951960 1.879043 0.544892
v 1.184578 1.812892 0.000000
v 0.910945 1.879043 0.210423
v 1.099829 1.879043 0.544892
v 0.935296 1.879043 0.520542
v 0.910945 1.879043 0.503877
v 1.184578 1.812892 0.210423
vn -0.0000 1.0000 -0.0000
vn -0.0000 -0.0000 1.0000
vn -1.0000 -0.0000 -0.0000
vn 1.0000 -0.0000 -0.0000
vn -0.0000 -0.0000 -1.0000
vn -0.0000 -1.0000 -0.0000
vn -0.0001 0.0002 1.0000
vn -0.0001 0.0001 1.0000
vn -0.0000 0.0002 1.0000
vn -0.0001 -0.0000 1.0000
vn 0.7549 -0.0000 0.6559
vn 0.5648 -0.0000 0.8253
vn -0.0000 -0.7011 0.7131
vn -0.0000 -0.5648 0.8253
vn -0.8253 -0.0000 0.5647
vn -0.5647 -0.0000 0.8253
vn -0.0000 0.5648 0.8253
vn -0.0000 0.8253 0.5647
vn -0.0000 0.8253 0.5648
vn -0.6873 -0.0000 0.7264
vn -0.5648 -0.0000 0.8253
vn 0.8253 -0.0000 0.5647
vn 0.5647 -0.0000 0.8253
vt 0.642970 0.341966
vt 0.507011 0.341966
vt 0.507011 0.286508
vt 0.642971 0.286497
vt 0.644647 0.394657
vt 0.644647 0.419681
vt 0.508495 0.419681
vt 0.508495 0.394657
vt 0.572339 0.408255
vt 0.546010 0.408255
vt 0.546010 0.402146
vt 0.572339 0.402146
vt 0.572339 0.472902
vt 0.546010 0.472902
vt 0.546010 0.414427
vt 0.572339 0.414427
vt 0.640561 0.436510
vt 0.640561 0.461788
vt 0.503026 0.461788
vt 0.503026 0.436510
vt 0.640301 0.381265
vt 0.640301 0.497500
vt 0.502766 0.497500
vt 0.502766 0.381265
vt 0.668064 0.472902
vt 0.668064 0.414427
vt 0.339098 0.187103
vt 0.339098 0.248113
vt 0.184340 0.248113
vt 0.184340 0.187103
vt 0.941330 0.472902
vt 0.884856 0.472902
vt 0.884856 0.414427
vt 0.941330 0.414427
vt 0.640301 0.327044
vt 0.502766 0.327044
vt 0.644647 0.425520
vt 0.508495 0.425521
vt 0.508495 0.419714
vt 0.644647 0.419724
vt 0.640561 0.344605
vt 0.503026 0.344605
vt 0.546010 0.343713
vt 0.572339 0.343713
vt 0.763789 0.472902
vt 0.763789 0.414427
vt 0.640301 0.272823
vt 0.502766 0.272823
vt 0.997805 0.472902
vt 0.997805 0.414427
vt 0.997805 0.408255
vt 0.941330 0.408255
vt 0.941330 0.402189
vt 0.997805 0.402189
vt 0.339098 0.126092
vt 0.184340 0.126092
vt 0.087992 0.611286
vt 0.205188 0.611286
vt 0.205188 0.749958
vt 0.087992 0.749958
vt 0.297852 0.611286
vt 0.390517 0.611286
vt 0.390517 0.749958
vt 0.297852 0.749958
vt 0.189862 0.185260
vt 0.329327 0.185260
vt 0.329327 0.191166
vt 0.189862 0.191166
vt 0.884856 0.408255
vt 0.884856 0.402189
vt 0.668064 0.343713
vt 0.763789 0.343713
vt 0.763789 0.402189
vt 0.668064 0.402167
vt 0.884856 0.343713
vt 0.941330 0.343713
vt 0.997805 0.343713
vt 0.546010 0.408360
vt 0.572339 0.408360
vt 0.941330 0.408360
vt 0.997805 0.408360
vt 0.884856 0.408360
vt 0.297962 0.639552
vt 0.389731 0.639552
vt 0.389731 0.749720
vt 0.297962 0.749720
vt 0.863090 0.425520
vt 0.753868 0.425520
vt 0.753868 0.419733
vt 0.863090 0.419743
vt 0.863090 0.394657
vt 0.863090 0.419681
vt 0.753869 0.419681
vt 0.753869 0.394657
vt 0.861105 0.286477
vt 0.752038 0.286487
vt 0.752038 0.280709
vt 0.861105 0.280709
vt 0.861223 0.344605
vt 0.861223 0.436510
vt 0.750892 0.436510
vt 0.750892 0.344605
vt 0.861223 0.461788
vt 0.750892 0.461788
vt 0.861105 0.341966
vt 0.752038 0.341966
vt 0.642971 0.280709
vt 0.507011 0.280709
vt 0.640561 0.252700
vt 0.503026 0.252700
vt 0.998758 0.252700
vt 0.998758 0.344605
vt 0.861223 0.252700
vt 0.998758 0.436510
vt 0.998758 0.461788
vt 0.859311 0.390642
vt 0.859311 0.274407
vt 0.996846 0.274407
vt 0.996846 0.390643
vt 0.859311 0.444863
vt 0.996846 0.444863
vt 0.859311 0.499084
vt 0.996846 0.499084
vt 0.305949 0.123261
vt 0.166484 0.123261
vt 0.166484 0.117354
vt 0.305949 0.117354
vt 0.297852 0.500043
vt 0.390517 0.500043
vt 0.206193 0.502221
vt 0.297962 0.502221
vt 0.206193 0.639552
vt 0.997065 0.341966
vt 0.997065 0.286467
vt 0.997065 0.280709
vt 0.999242 0.394657
vt 0.999242 0.419681
vt 0.315178 0.062704
vt 0.315178 0.122564
vt 0.163338 0.122565
vt 0.163338 0.062704
vt 0.999242 0.425519
vt 0.999242 0.419753
vt 0.315178 0.002844
vt 0.163338 0.002844
vt 0.090129 0.502221
vt 0.090129 0.639552
vt 0.389731 0.502221
vt 0.294639 0.499814
vt 0.295006 0.498967
vt 0.294795 0.499268
vt 0.294475 0.499887
vt 0.759237 0.846583
vt 0.667266 0.846583
vt 0.667266 0.809027
vt 0.759237 0.809027
vt 0.932669 0.757197
vt 0.990420 0.757197
vt 0.990419 0.764885
vt 0.933696 0.764885
vt 0.990419 0.771918
vt 0.934705 0.771918
vt 0.611094 0.873245
vt 0.498850 0.873245
vt 0.503849 0.865039
vt 0.611094 0.865039
vt 0.509602 0.858067
vt 0.611094 0.858067
vt 0.758683 0.804948
vt 0.669953 0.804948
vt 0.669953 0.771918
vt 0.758683 0.771918
vt 0.509602 0.825325
vt 0.611094 0.825325
vt 0.506011 0.805682
vt 0.483959 0.819101
vt 0.448099 0.806520
vt 0.466418 0.775250
vt 0.508291 0.814314
vt 0.491466 0.823217
vt 0.487712 0.821146
vt 0.506949 0.809822
vt 0.484745 0.853836
vt 0.488707 0.851717
vt 0.492973 0.850092
vt 0.759237 0.854135
vt 0.667266 0.854135
vt 0.667266 0.850359
vt 0.759237 0.850359
vt 0.488605 0.760223
vt 0.600849 0.760223
vt 0.600849 0.763966
vt 0.488605 0.763966
vt 0.600849 0.767709
vt 0.488605 0.767709
vt 0.759237 0.873060
vt 0.667266 0.873060
vt 0.505243 0.841578
vt 0.442083 0.849124
vt 0.488605 0.804939
vt 0.600849 0.804939
vt 0.488605 0.751702
vt 0.600849 0.751702
vt 0.756675 0.780547
vt 0.756675 0.818103
vt 0.664704 0.818103
vt 0.664704 0.780547
vt 0.706132 0.756639
vt 0.721175 0.765263
vt 0.664451 0.765263
vt 0.664451 0.756819
vt 0.720166 0.772296
vt 0.664451 0.772296
vt 0.718339 0.865039
vt 0.724420 0.873245
vt 0.712586 0.858067
vt 0.896188 0.805326
vt 0.896188 0.772296
vt 0.984918 0.772296
vt 0.984918 0.805326
vt 0.712586 0.825325
vt 0.506884 0.815446
vt 0.467290 0.845878
vt 0.448973 0.814608
vt 0.484832 0.802027
vt 0.509164 0.806815
vt 0.507822 0.811306
vt 0.488585 0.799982
vt 0.492339 0.797912
vt 0.485618 0.767292
vt 0.489580 0.769411
vt 0.493846 0.771036
vt 0.756675 0.772994
vt 0.756675 0.776771
vt 0.664704 0.776771
vt 0.664704 0.772994
vt 0.714175 0.760223
vt 0.714175 0.763966
vt 0.714175 0.767709
vt 0.837819 0.756070
vt 0.664704 0.755162
vt 0.506116 0.779551
vt 0.442956 0.772005
vt 0.714175 0.804939
vt 0.714175 0.751702
vt 0.758682 0.831878
vt 0.669953 0.831878
vt 0.509602 0.798630
vt 0.611094 0.798630
vt 0.984918 0.832256
vt 0.896188 0.832256
vt 0.712586 0.798630
vt 0.852076 0.263622
vt 0.846038 0.272984
vt 0.759298 0.272984
vt 0.759298 0.263622
vt 0.776157 0.805326
vt 0.776157 0.832256
vt 0.920206 0.755600
vt 0.881092 0.772994
vt 0.881091 0.776771
vt 0.881092 0.780547
vt 0.776157 0.772296
vt 0.990721 0.765263
vt 0.900385 0.765263
vt 0.996625 0.756819
vt 0.881091 0.818103
vt 0.939128 0.780547
vt 0.939128 0.818103
vt 0.720166 0.805326
vt 0.939128 0.772994
vt 0.939128 0.776771
vt 0.958637 0.755380
vt 0.720166 0.832256
vt 0.778180 0.765263
vt 0.748021 0.756458
vt 0.664451 0.805326
vt 0.664451 0.832256
vt 0.996878 0.755162
vt 0.996878 0.772994
vt 0.996878 0.776771
vt 0.996878 0.780547
vt 0.996878 0.818103
vt 0.990420 0.804948
vt 0.990420 0.831878
vt 0.934705 0.831878
vt 0.934705 0.804948
vt 0.999440 0.873060
vt 0.941690 0.873060
vt 0.941690 0.854135
vt 0.999440 0.854135
vt 0.999440 0.850359
vt 0.941690 0.850359
vt 0.941690 0.846583
vt 0.999440 0.846583
vt 0.876691 0.764885
vt 0.878714 0.771918
vt 0.874633 0.757197
vt 0.941690 0.809027
vt 0.999440 0.809027
vt 0.750217 0.757197
vt 0.754485 0.764885
vt 0.878714 0.831878
vt 0.878714 0.804948
vt 0.883653 0.873060
vt 0.883653 0.854135
vt 0.883653 0.850359
vt 0.883653 0.846583
vt 0.883653 0.809027
vt 0.664149 0.764885
vt 0.658245 0.757197
vt 0.641959 0.272983
vt 0.641959 0.263622
vt 0.587224 0.272983
vt 0.587224 0.263622
vt 0.532759 0.272983
vt 0.532489 0.263622
vt 0.852075 0.373979
vt 0.846038 0.373979
vt 0.852075 0.486378
vt 0.846038 0.473158
vt 0.759298 0.486378
vt 0.759298 0.473158
vt 0.641960 0.486378
vt 0.641960 0.473158
vt 0.587225 0.486378
vt 0.587225 0.473158
vt 0.532489 0.486378
vt 0.532760 0.473158
s 0
usemtl Material.001
f 56/1/1 5/2/1 29/3/1 61/4/1
f 50/5/2 48/6/2 7/7/2 15/8/2
f 15/9/3 7/10/3 29/11/3 28/12/3
f 16/13/4 1/14/4 32/15/4 23/16/4
f 68/17/5 65/18/5 1/19/5 16/20/5
f 67/21/5 66/22/5 9/23/5 11/24/5
f 41/25/4 16/13/4 23/16/4 43/26/4
f 51/27/2 49/28/2 14/29/2 22/30/2
f 19/31/4 11/32/4 26/33/4 33/34/4
f 69/35/5 67/21/5 11/24/5 19/36/5
f 50/37/6 15/38/6 28/39/6 54/40/6
f 80/41/5 68/17/5 16/20/5 41/42/5
f 28/12/3 29/11/3 5/43/3 18/44/3
f 26/33/4 11/32/4 9/45/4 24/46/4
f 78/47/5 69/35/5 19/36/5 2/48/5
f 2/49/4 19/31/4 33/34/4 34/50/4
f 8/51/3 22/52/3 31/53/3 30/54/3
f 55/55/2 51/27/2 22/30/2 8/56/2
f 53/57/2 52/58/2 25/59/2 27/60/2
f 63/61/7 54/62/7 28/63/7 44/64/7
f 71/65/1 12/66/1 26/67/1 75/68/1
f 22/52/3 14/69/3 27/70/3 31/53/3
f 42/71/3 10/72/3 25/73/3 44/74/3
f 10/72/3 13/75/3 27/70/3 25/73/3
f 30/54/3 31/53/3 21/76/3 6/77/3
f 31/53/3 27/70/3 13/75/3 21/76/3
f 23/16/4 32/15/4 3/78/4 17/79/4
f 34/50/4 33/34/4 20/80/4 4/81/4
f 33/34/4 26/33/4 12/82/4 20/80/4
f 79/83/8 76/84/8 37/85/8 45/86/8
f 72/87/6 36/88/6 37/89/6 76/90/6
f 72/91/2 70/92/2 35/93/2 36/94/2
f 77/95/1 40/96/1 35/97/1 70/98/1
f 62/99/5 59/100/5 39/101/5 46/102/5
f 59/100/5 56/103/5 38/104/5 39/101/5
f 65/105/1 38/106/1 40/96/1 77/95/1
f 48/107/1 61/4/1 29/3/1 7/108/1
f 18/44/3 42/71/3 44/74/3 28/12/3
f 52/58/9 63/61/9 44/64/9 25/59/9
f 66/109/5 80/41/5 41/42/5 9/110/5
f 9/45/4 41/25/4 43/26/4 24/46/4
f 35/97/1 40/96/1 61/4/1 48/107/1
f 10/111/5 42/112/5 62/99/5 57/113/5
f 18/114/5 5/115/5 56/103/5 59/100/5
f 13/116/5 10/117/5 57/118/5 58/119/5
f 21/120/5 13/116/5 58/119/5 60/121/5
f 42/112/5 18/114/5 59/100/5 62/99/5
f 6/122/5 21/120/5 60/121/5 47/123/5
f 14/124/1 49/125/1 53/126/1 27/127/1
f 45/128/8 37/129/8 54/62/8 63/61/8
f 36/88/6 50/37/6 54/40/6 37/89/6
f 36/94/2 35/93/2 48/6/2 50/5/2
f 38/106/1 56/1/1 61/4/1 40/96/1
f 24/130/2 43/131/2 79/83/2 74/132/2
f 1/133/1 65/105/1 77/95/1 32/134/1
f 32/134/1 77/95/1 70/98/1 3/135/1
f 17/136/2 3/137/2 70/92/2 72/91/2
f 20/138/2 12/139/2 71/140/2 73/141/2
f 17/142/6 72/87/6 76/90/6 23/143/6
f 4/144/2 20/138/2 73/141/2 64/145/2
f 26/146/2 24/130/2 74/132/2 75/147/2
f 43/131/10 23/148/10 76/84/10 79/83/10
f 46/102/5 39/101/5 68/17/5 80/41/5
f 39/101/5 38/104/5 65/18/5 68/17/5
f 81/149/4 53/150/4 49/151/4 51/152/4
f 195/153/3 105/154/3 85/155/3 192/156/3
f 171/157/11 88/158/11 89/159/11 172/160/11
f 172/160/12 89/159/12 87/161/12 173/162/12
f 93/163/13 91/164/13 92/165/13 95/166/13
f 95/166/14 92/165/14 90/167/14 94/168/14
f 196/169/4 112/170/4 90/171/4 189/172/4
f 90/167/6 112/173/6 113/174/6 94/168/6
f 105/175/3 100/176/3 84/177/3 85/178/3
f 106/179/15 99/180/15 101/181/15 107/182/15
f 107/182/16 101/181/16 100/176/16 105/175/16
f 103/183/17 100/176/17 101/181/17 104/184/17
f 104/184/18 101/181/18 99/180/18 102/185/18
f 190/186/15 106/187/15 107/188/15 194/189/15
f 194/189/16 107/188/16 105/154/16 195/153/16
f 102/190/19 109/191/19 110/192/19 104/193/19
f 104/193/17 110/192/17 108/194/17 103/195/17
f 193/196/2 91/197/2 106/187/2 190/186/2
f 91/198/2 102/185/2 99/180/2 106/179/2
f 83/199/1 84/177/1 100/176/1 103/183/1
f 83/200/1 103/195/1 108/194/1 82/201/1
f 102/190/2 91/202/2 93/203/2 109/191/2
f 149/204/4 143/205/4 116/206/4 133/207/4
f 162/208/20 166/209/20 120/210/20 119/211/20
f 166/209/21 167/212/21 118/213/21 120/210/21
f 93/163/13 95/166/13 123/214/13 122/215/13
f 95/166/14 94/168/14 121/216/14 123/214/14
f 150/217/3 146/218/3 121/219/3 137/220/3
f 121/216/6 94/168/6 113/174/6 137/221/6
f 133/222/4 116/223/4 115/224/4 128/225/4
f 134/226/22 135/227/22 129/228/22 127/229/22
f 135/227/23 133/222/23 128/225/23 129/228/23
f 131/230/17 132/231/17 129/228/17 128/225/17
f 132/231/18 130/232/18 127/229/18 129/228/18
f 147/233/22 148/234/22 135/235/22 134/236/22
f 148/234/23 149/204/23 133/207/23 135/235/23
f 130/237/19 132/238/19 110/192/19 109/191/19
f 132/238/17 131/239/17 108/194/17 110/192/17
f 144/240/2 147/233/2 134/236/2 122/241/2
f 122/242/2 134/226/2 127/229/2 130/232/2
f 114/243/1 131/230/1 128/225/1 115/224/1
f 114/244/1 82/201/1 108/194/1 131/239/1
f 130/237/2 109/191/2 93/203/2 122/245/2
f 196/169/4 191/246/4 139/247/4 112/170/4
f 139/248/6 140/249/6 113/174/6 112/173/6
f 150/217/3 137/220/3 142/250/3 151/251/3
f 142/252/6 137/221/6 113/174/6 140/249/6
f 62/253/5 139/254/5 191/255/5 57/256/5
f 156/257/3 150/217/3 151/251/3 160/258/3
f 153/259/2 159/260/2 147/233/2 144/240/2
f 154/261/12 155/262/12 149/204/12 148/234/12
f 159/260/22 154/261/22 148/234/22 147/233/22
f 156/257/3 158/263/3 146/218/3 150/217/3
f 123/264/21 121/219/21 146/218/21 145/265/21
f 122/266/20 123/264/20 145/265/20 144/240/20
f 155/262/4 152/267/4 143/205/4 149/204/4
f 164/268/4 161/269/4 152/267/4 155/262/4
f 165/270/3 167/212/3 158/263/3 156/257/3
f 168/271/22 163/272/22 154/261/22 159/260/22
f 163/272/23 164/268/23 155/262/23 154/261/23
f 162/273/2 168/271/2 159/260/2 153/259/2
f 165/270/3 156/257/3 160/258/3 169/274/3
f 145/265/21 146/218/21 158/263/21 157/275/21
f 144/240/20 145/265/20 157/275/20 153/276/20
f 136/277/3 165/270/3 169/274/3 141/278/3
f 119/279/2 124/280/2 168/271/2 162/273/2
f 126/281/23 125/282/23 164/268/23 163/272/23
f 124/280/22 126/281/22 163/272/22 168/271/22
f 136/277/3 118/213/3 167/212/3 165/270/3
f 125/282/4 117/283/4 161/269/4 164/268/4
f 157/275/21 158/263/21 167/212/21 166/209/21
f 153/276/20 157/275/20 166/209/20 162/208/20
f 111/284/4 138/285/4 178/286/4 177/287/4
f 88/288/2 171/289/2 174/290/2 96/291/2
f 98/292/21 175/293/21 176/294/21 97/295/21
f 96/291/15 174/290/15 175/293/15 98/292/15
f 111/284/4 177/287/4 173/162/4 87/161/4
f 179/296/12 172/160/12 173/162/12 180/297/12
f 184/298/11 171/157/11 172/160/11 179/296/11
f 97/295/3 176/294/3 170/299/3 86/300/3
f 193/301/11 184/298/11 179/296/11 188/302/11
f 188/302/12 179/296/12 180/297/12 189/172/12
f 177/287/4 178/286/4 182/303/4 187/304/4
f 171/289/2 184/305/2 181/306/2 174/290/2
f 175/293/16 185/307/16 186/308/16 176/294/16
f 174/290/15 181/306/15 185/307/15 175/293/15
f 177/287/4 187/304/4 180/297/4 173/162/4
f 176/294/3 186/308/3 183/309/3 170/299/3
f 92/310/12 188/302/12 189/172/12 90/171/12
f 91/311/11 193/301/11 188/302/11 92/310/11
f 187/304/4 182/303/4 191/246/4 196/169/4
f 184/305/2 193/196/2 190/186/2 181/306/2
f 185/307/16 194/189/16 195/153/16 186/308/16
f 181/306/15 190/186/15 194/189/15 185/307/15
f 187/304/4 196/169/4 189/172/4 180/297/4
f 186/308/3 195/153/3 192/156/3 183/309/3
f 57/256/5 191/255/5 182/312/5 58/313/5
f 58/313/5 182/312/5 178/314/5 60/315/5
f 60/315/5 178/314/5 138/316/5 47/317/5
f 139/254/5 62/253/5 46/318/5 140/319/5
f 140/319/5 46/318/5 80/320/5 142/321/5
f 142/321/5 80/320/5 66/322/5 151/323/5
f 151/323/5 66/322/5 67/324/5 160/325/5
f 160/325/5 67/324/5 69/326/5 169/327/5
f 169/327/5 69/326/5 78/328/5 141/329/5
