# Blender 5.2.2 LTS
# www.blender.org
mtllib Pared_ROTA.mtl
o Pared_ROTA
v 4.000000 0.000000 0.000000
v 4.000000 0.000000 0.500000
v 0.000000 0.000000 0.000000
v 0.000000 0.000000 0.500000
v 0.000000 1.528477 0.452911
v 4.000000 1.528477 0.453001
v 4.000000 0.875000 0.000000
v 4.000000 0.875000 0.500000
v 0.000000 0.875000 0.000000
v 0.000000 0.875000 0.500000
v 4.000000 0.437500 0.000000
v 4.000000 0.437500 0.500000
v 0.000000 0.437500 0.000000
v 0.000000 0.437500 0.500000
v 0.000000 1.528477 0.000000
v 4.000000 1.528477 0.000000
v 4.000000 0.875000 0.453001
v 0.000000 0.875000 0.453001
v 0.000000 0.000000 0.453001
v 0.000000 0.437500 0.453001
v 4.000000 0.437500 0.453001
v 4.000000 0.000000 0.453001
v 2.000000 0.000000 0.000000
v 2.000000 0.000000 0.500000
v 2.000000 0.875000 0.500000
v 2.000000 0.875000 0.000000
v 2.000000 1.528477 0.452956
v 2.000000 0.437500 0.000000
v 2.000000 0.437500 0.500000
v 2.000000 0.875000 0.453001
v 2.000000 1.528477 0.000000
v 4.000000 1.812892 0.453001
v 0.000000 1.812892 0.000000
v 4.000000 1.812892 0.000000
v 0.000000 1.812892 0.452872
v 2.000000 1.812892 0.000000
v 2.000000 1.812892 0.452937
vn -0.0000 0.0001 1.0000
vn -0.0000 -0.0000 1.0000
vn 1.0000 -0.0000 -0.0000
vn -0.0000 -0.0000 -1.0000
vn -1.0000 -0.0000 -0.0000
vn -0.0000 1.0000 -0.0000
vt 0.333243 0.500114
vt 0.333243 0.749889
vt 0.251553 0.749889
vt 0.251553 0.500114
vt 0.001099 0.123715
vt 0.001099 0.064584
vt 0.250226 0.064584
vt 0.250226 0.123715
vt 0.589961 0.363696
vt 0.589961 0.418208
vt 0.530641 0.418207
vt 0.530641 0.363696
vt 0.836649 0.363696
vt 0.836649 0.418207
vt 0.836967 0.499926
vt 0.589642 0.499926
vt 0.589642 0.418032
vt 0.836967 0.418032
vt 0.589961 0.499214
vt 0.530641 0.499214
vt 0.836649 0.309185
vt 0.589961 0.309185
vt 0.530641 0.309185
vt 0.251499 0.131506
vt 0.251499 0.186197
vt 0.245624 0.186197
vt 0.245624 0.131506
vt 0.001099 0.123715
vt 0.001099 0.064584
vt 0.738975 0.499528
vt 0.738975 0.417839
vt 0.795604 0.417839
vt 0.795592 0.499528
vt 0.217475 0.500111
vt 0.217475 0.749886
vt 0.181921 0.749886
vt 0.181921 0.500111
vt 0.001099 0.124240
vt 0.250166 0.124240
vt 0.250166 0.130115
vt 0.001099 0.130115
vt 0.251499 0.240888
vt 0.245624 0.240888
vt 0.836510 0.287738
vt 0.589674 0.287738
vt 0.589934 0.250516
vt 0.836510 0.250516
vt 0.739155 0.286747
vt 0.739155 0.250790
vt 0.795414 0.250790
vt 0.795409 0.286747
vt 0.795604 0.308457
vt 0.795604 0.363148
vt 0.738975 0.363148
vt 0.738975 0.308457
vt 0.257562 0.132849
vt 0.257562 0.186197
vt 0.251538 0.186197
vt 0.251538 0.132849
vt 0.257562 0.239545
vt 0.251538 0.239545
vt 0.836967 0.499926
vt 0.589642 0.418032
vt 0.836967 0.418032
vt 0.836510 0.286491
vt 0.589934 0.286491
vt 0.589934 0.250441
vt 0.836510 0.250441
vt 0.001099 0.124240
vt 0.250166 0.124240
vt 0.250166 0.130115
vt 0.001099 0.130115
vt 0.217473 0.500113
vt 0.217473 0.749888
vt 0.181919 0.749888
vt 0.181919 0.500113
vt 0.001099 0.123702
vt 0.001099 0.064570
vt 0.250226 0.064570
vt 0.250226 0.123702
vt 0.836649 0.308348
vt 0.836649 0.363316
vt 0.589961 0.363316
vt 0.589961 0.308348
vt 0.836649 0.418284
vt 0.589961 0.418284
vt 0.001099 0.123715
vt 0.001099 0.064584
vt 0.250226 0.064584
vt 0.250226 0.123715
vt 0.333243 0.500113
vt 0.333243 0.749888
vt 0.251553 0.749888
vt 0.251553 0.500113
vt 0.589674 0.344347
vt 0.589674 0.287730
vt 0.836510 0.287730
vt 0.836510 0.344339
vt 0.836510 0.344347
vt 0.589674 0.344355
vt 0.589674 0.287730
vt 0.836510 0.287730
vt 0.531726 0.253836
vt 0.589413 0.253836
vt 0.531726 0.288910
s 0
usemtl TRIM
f 27/1/1 5/2/1 18/3/1 30/4/1
f 29/5/2 25/6/2 10/7/2 14/8/2
f 11/9/3 7/10/3 17/11/3 21/12/3
f 28/13/4 26/14/4 7/10/4 11/9/4
f 15/15/4 31/16/4 26/17/4 9/18/4
f 17/11/3 7/10/3 16/19/3 6/20/3
f 23/21/4 28/13/4 11/9/4 1/22/4
f 1/22/3 11/9/3 21/12/3 22/23/3
f 4/24/5 14/25/5 20/26/5 19/27/5
f 24/28/2 29/29/2 14/7/2 4/8/2
f 15/30/5 9/31/5 18/32/5 5/33/5
f 37/34/1 35/35/1 5/36/1 27/37/1
f 25/38/6 8/39/6 17/40/6 30/41/6
f 14/25/5 10/42/5 18/43/5 20/26/5
f 36/44/4 34/45/4 16/46/4 31/47/4
f 33/48/5 15/49/5 5/50/5 35/51/5
f 19/52/5 20/53/5 13/54/5 3/55/5
f 20/53/5 18/32/5 9/31/5 13/54/5
f 22/56/3 21/57/3 12/58/3 2/59/3
f 21/57/3 17/60/3 8/61/3 12/58/3
f 31/62/4 16/16/4 7/63/4 26/64/4
f 33/65/4 36/66/4 31/67/4 15/68/4
f 10/69/6 25/70/6 30/71/6 18/72/6
f 32/73/2 37/74/2 27/75/2 6/76/2
f 2/77/2 12/78/2 29/79/2 24/80/2
f 3/81/4 13/82/4 28/83/4 23/84/4
f 13/82/4 9/85/4 26/86/4 28/83/4
f 12/87/2 8/88/2 25/89/2 29/90/2
f 6/91/2 27/92/2 30/93/2 17/94/2
f 37/95/6 36/96/6 33/97/6 35/98/6
f 37/99/6 32/100/6 34/101/6 36/102/6
f 6/103/3 16/104/3 34/45/3 32/105/3
