# Blender 4.5.2 LTS
# www.blender.org
mtllib ZutabeBoss.mtl
o ColumnaEntera(Boss)
v 1.100007 3.500000 1.099631
v 1.100007 0.000000 1.099631
v 0.100007 3.500000 1.099631
v 0.100007 0.000000 1.099631
v 0.100007 1.750000 1.099631
v 1.100007 1.750000 1.099631
v 1.100007 0.875000 1.099631
v 0.100007 0.875000 1.099631
v 0.100007 3.296032 1.099631
v 1.100007 3.296032 1.099631
v 1.100007 0.334101 1.099631
v 0.100007 0.334101 1.099631
v 0.100007 0.425756 1.099631
v 1.100007 0.425756 1.099631
v 0.100007 0.000000 0.407078
v 1.100007 3.500000 0.407078
v 0.100007 3.500000 0.407078
v 1.100007 0.000000 0.407078
v 1.100007 1.750000 0.407078
v 0.100007 1.750000 0.407078
v 0.100007 0.875000 0.407078
v 1.100007 0.875000 0.407078
v 1.100007 3.296032 0.407078
v 0.100007 3.296032 0.407078
v 1.100007 0.334101 0.407078
v 0.100007 0.334101 0.407078
v 1.100007 0.425756 0.407078
v 0.100007 0.425756 0.407078
v -0.000000 0.000000 0.407078
v -0.000000 0.000000 1.207078
v 1.200014 0.334101 1.207078
v 1.200014 0.000000 1.207078
v -0.000000 0.334101 1.207078
v 1.200014 0.334101 0.407078
v 1.200014 0.000000 0.407078
v -0.000000 0.334101 0.407078
v 1.145641 0.425756 1.148830
v 1.145641 0.334101 1.148830
v 1.145641 0.334101 0.407078
v 0.054373 0.334101 1.148830
v 0.054373 0.425756 1.148830
v 1.145641 0.425756 0.407078
v 0.054373 0.334101 0.407078
v 0.054373 0.425756 0.407078
v 0.047655 3.500000 1.143000
v 1.152358 3.500000 1.143000
v 1.152358 3.500000 0.407078
v 0.047655 3.500000 0.407078
v 0.047655 3.300820 1.143000
v 0.052699 3.296032 1.138822
v 1.152358 3.300820 1.143000
v 1.147314 3.296032 1.138822
v 1.152358 3.300820 0.407078
v 1.147324 3.296032 0.407078
v 0.052690 3.296032 0.407078
v 0.047655 3.300820 0.407078
v 0.600007 3.500000 1.099631
v 0.600007 0.000000 1.099631
v 0.600007 1.750000 1.099631
v 0.600007 0.875000 1.099631
v 0.600007 3.296032 1.099631
v 0.600007 0.334101 1.099631
v 0.600007 0.425756 1.099631
v 0.600007 0.000000 0.407078
v 0.600007 3.500000 0.407078
v 0.600007 0.000000 1.207078
v 0.600007 0.334101 1.207078
v 0.600007 0.334101 1.148830
v 0.600007 0.425756 1.148830
v 0.600007 3.500000 1.143000
v 0.600007 3.300820 1.143000
v 0.600007 3.296032 1.138822
v 1.100007 3.500000 0.107447
v 1.100007 0.000000 0.107447
v 0.100007 3.500000 0.107447
v 0.100007 0.000000 0.107447
v 0.100007 1.750000 0.107447
v 1.100007 1.750000 0.107447
v 1.100007 0.875000 0.107447
v 0.100007 0.875000 0.107447
v 0.100007 3.296032 0.107447
v 1.100007 3.296032 0.107447
v 1.100007 0.334101 0.107447
v 0.100007 0.334101 0.107447
v 0.100007 0.425756 0.107447
v 1.100007 0.425756 0.107447
v -0.000000 0.000000 0.000000
v 1.200014 0.334101 0.000000
v 1.200014 0.000000 0.000000
v -0.000000 0.334101 0.000000
v 1.145641 0.425756 0.058248
v 1.145641 0.334101 0.058248
v 0.054373 0.334101 0.058248
v 0.054373 0.425756 0.058248
v 0.047655 3.500000 0.064078
v 1.152358 3.500000 0.064078
v 0.047655 3.300820 0.064078
v 0.052699 3.296032 0.068256
v 1.152358 3.300820 0.064078
v 1.147314 3.296032 0.068256
v 0.600007 3.500000 0.107447
v 0.600007 0.000000 0.107447
v 0.600007 1.750000 0.107447
v 0.600007 0.875000 0.107447
v 0.600007 3.296032 0.107447
v 0.600007 0.334101 0.107447
v 0.600007 0.425756 0.107447
v 0.600007 0.000000 0.000000
v 0.600007 0.334101 0.000000
v 0.600007 0.334101 0.058248
v 0.600007 0.425756 0.058248
v 0.600007 3.500000 0.064078
v 0.600007 3.300820 0.064078
v 0.600007 3.296032 0.068256
vn -0.0000 1.0000 -0.0000
vn -0.0000 -1.0000 -0.0000
vn 1.0000 -0.0000 -0.0000
vn -0.0000 -0.0000 1.0000
vn -1.0000 -0.0000 -0.0000
vn 0.6887 -0.7250 -0.0000
vn -0.0000 -0.6576 0.7534
vn -0.6887 -0.7250 -0.0000
vn -0.0000 -0.0000 -1.0000
vn -0.0000 -0.6576 -0.7534
vt 0.836954 0.348701
vt 0.836954 0.408029
vt 0.754777 0.408029
vt 0.754777 0.348701
vt 0.884686 0.385067
vt 0.822162 0.385067
vt 0.822162 0.298464
vt 0.884686 0.298464
vt 0.910361 0.365597
vt 0.910361 0.254529
vt 0.998269 0.254529
vt 0.998269 0.365597
vt 0.808861 0.366305
vt 0.808861 0.255238
vt 0.872328 0.255238
vt 0.872328 0.366305
vt 0.808861 0.423329
vt 0.872328 0.423329
vt 0.910361 0.422621
vt 0.998269 0.422621
vt 0.821266 0.270740
vt 0.821266 0.466984
vt 0.733358 0.466984
vt 0.733358 0.270740
vt 0.683660 0.495978
vt 0.683660 0.299734
vt 0.747127 0.299734
vt 0.747127 0.495978
vt 0.947211 0.385067
vt 0.947211 0.298464
vt 0.959717 0.285028
vt 0.959717 0.385067
vt 0.809656 0.385067
vt 0.809656 0.285028
vt 0.589502 0.312705
vt 0.589502 0.398295
vt 0.583862 0.404375
vt 0.583862 0.312705
vt 0.651295 0.398295
vt 0.713089 0.398295
vt 0.718728 0.404375
vt 0.651295 0.404375
vt 0.835035 0.299734
vt 0.835035 0.495978
vt 0.960236 0.366305
vt 0.960236 0.423329
vt 0.960236 0.255238
vt 0.836954 0.289372
vt 0.754777 0.289372
vt 0.749631 0.283160
vt 0.836954 0.283160
vt 0.721483 0.262855
vt 0.721483 0.304305
vt 0.622231 0.304305
vt 0.622231 0.262855
vt 0.920836 0.263215
vt 0.920836 0.304665
vt 0.846396 0.304665
vt 0.846396 0.263215
vt 0.747145 0.304665
vt 0.747145 0.263215
vt 0.890994 0.290542
vt 0.829316 0.290542
vt 0.816979 0.277288
vt 0.890994 0.277288
vt 0.829316 0.375973
vt 0.816979 0.375973
vt 0.884686 0.285028
vt 0.952672 0.375973
vt 0.952672 0.290542
vt 0.965009 0.277288
vt 0.965009 0.375973
vt 0.680922 0.451148
vt 0.680922 0.439911
vt 0.771862 0.439911
vt 0.771862 0.451148
vt 0.838757 0.451148
vt 0.838757 0.439911
vt 0.905652 0.439911
vt 0.905652 0.451148
vt 0.996592 0.439911
vt 0.996592 0.451148
vt 0.713089 0.312705
vt 0.718728 0.312705
vt 0.746587 0.361932
vt 0.649930 0.349600
vt 0.651307 0.339370
vt 0.746894 0.356738
vt 0.964946 0.375627
vt 0.836703 0.360831
vt 0.836208 0.351320
vt 0.965602 0.370607
vt 0.509979 0.358790
vt 0.509535 0.353270
vt 0.836954 0.414241
vt 0.749631 0.414241
vt 0.749631 0.348701
vt 0.751242 0.297737
vt 0.734753 0.387912
vt 0.734018 0.387122
vt 0.750340 0.297572
vt 0.665749 0.387950
vt 0.596744 0.387912
vt 0.597480 0.387122
vt 0.665749 0.387109
vt 0.580256 0.297737
vt 0.581158 0.297572
vt 0.673071 0.442884
vt 0.673071 0.467552
vt 0.581927 0.467552
vt 0.581927 0.442884
vt 0.741479 0.442884
vt 0.741479 0.467552
vt 0.587011 0.296506
vt 0.602606 0.382170
vt 0.665749 0.382159
vt 0.728892 0.382171
vt 0.901032 0.442884
vt 0.901032 0.467552
vt 0.809888 0.467552
vt 0.809888 0.442884
vt 0.744487 0.296506
vt 0.995276 0.263215
vt 0.995276 0.304665
vt 0.620193 0.495978
vt 0.620193 0.299734
vt 0.745394 0.423329
vt 0.745394 0.366305
vt 0.745394 0.255238
vt 0.872507 0.348701
vt 0.872507 0.408029
vt 0.884686 0.422536
vt 0.822162 0.422536
vt 0.872328 0.365597
vt 0.872328 0.254529
vt 0.808861 0.365597
vt 0.745394 0.365597
vt 0.745394 0.254529
vt 0.808861 0.254529
vt 0.808861 0.422621
vt 0.745394 0.422621
vt 0.872328 0.422621
vt 0.859299 0.270740
vt 0.859299 0.466984
vt 0.922766 0.270740
vt 0.986233 0.270740
vt 0.986233 0.466984
vt 0.922766 0.466984
vt 0.959717 0.435972
vt 0.947211 0.422536
vt 0.809656 0.435972
vt 0.965201 0.314541
vt 0.970840 0.314541
vt 0.970840 0.357652
vt 0.965201 0.351572
vt 0.903407 0.351572
vt 0.903408 0.357652
vt 0.835975 0.357652
vt 0.841614 0.351572
vt 0.873069 0.495978
vt 0.873069 0.299734
vt 0.998269 0.423329
vt 0.998269 0.366305
vt 0.998269 0.255238
vt 0.877653 0.283160
vt 0.872507 0.289372
vt 0.771987 0.262855
vt 0.771987 0.304305
vt 0.846427 0.262854
vt 0.920866 0.262854
vt 0.920866 0.304305
vt 0.846427 0.304305
vt 0.696641 0.263215
vt 0.696641 0.304665
vt 0.890994 0.412935
vt 0.890994 0.426189
vt 0.816979 0.426189
vt 0.829315 0.412935
vt 0.884686 0.435972
vt 0.965009 0.426189
vt 0.952672 0.412935
vt 0.680569 0.451148
vt 0.637802 0.451148
vt 0.637802 0.439911
vt 0.680569 0.439911
vt 0.570907 0.451148
vt 0.504012 0.451148
vt 0.504012 0.439911
vt 0.570907 0.439911
vt 0.586260 0.425708
vt 0.541150 0.425708
vt 0.541150 0.413855
vt 0.586260 0.413855
vt 0.835975 0.314541
vt 0.841614 0.314541
vt 0.774747 0.360561
vt 0.774929 0.367413
vt 0.655623 0.384319
vt 0.655475 0.371357
vt 0.968391 0.357330
vt 0.969237 0.362908
vt 0.896463 0.378237
vt 0.896902 0.365186
vt 0.583246 0.362847
vt 0.584617 0.357141
vt 0.877653 0.414241
vt 0.877653 0.348701
vt 0.688141 0.432872
vt 0.689038 0.432709
vt 0.696505 0.473887
vt 0.695774 0.474674
vt 0.764650 0.474706
vt 0.764650 0.473866
vt 0.832795 0.473887
vt 0.833526 0.474674
vt 0.840262 0.432709
vt 0.841159 0.432872
vt 0.600404 0.469890
vt 0.533081 0.469890
vt 0.533081 0.430795
vt 0.600404 0.430795
vt 0.774588 0.433339
vt 0.883002 0.433339
vt 0.883002 0.472434
vt 0.774588 0.472434
vt 0.834374 0.431648
vt 0.827657 0.468934
vt 0.764650 0.468928
vt 0.701643 0.468934
vt 0.598851 0.433339
vt 0.666174 0.433339
vt 0.666174 0.472434
vt 0.598851 0.472434
vt 0.694926 0.431648
s 0
usemtl Material.001
f 65/1/1 17/2/1 3/3/1 57/4/1
f 64/5/2 18/6/2 2/7/2 58/8/2
f 22/9/3 19/10/3 6/11/3 7/12/3
f 60/13/4 59/14/4 5/15/4 8/16/4
f 63/17/4 60/13/4 8/16/4 13/18/4
f 27/19/3 22/9/3 7/12/3 14/20/3
f 19/21/3 23/22/3 10/23/3 6/24/3
f 59/25/4 61/26/4 9/27/4 5/28/4
f 15/29/2 4/30/2 30/31/2 29/32/2
f 2/7/2 18/6/2 35/33/2 32/34/2
f 27/35/1 14/36/1 37/37/1 42/38/1
f 63/39/1 13/40/1 41/41/1 69/42/1
f 5/28/5 9/27/5 24/43/5 20/44/5
f 13/18/5 8/16/5 21/45/5 28/46/5
f 8/16/5 5/15/5 20/47/5 21/45/5
f 16/48/1 1/49/1 46/50/1 47/51/1
f 35/52/3 34/53/3 31/54/3 32/55/3
f 66/56/4 67/57/4 33/58/4 30/59/4
f 30/59/5 33/58/5 36/60/5 29/61/5
f 62/62/1 12/63/1 33/64/1 67/65/1
f 12/63/1 26/66/1 36/67/1 33/64/1
f 58/8/2 2/7/2 32/34/2 66/68/2
f 25/69/1 11/70/1 31/71/1 34/72/1
f 39/73/3 42/74/3 37/75/3 38/76/3
f 68/77/4 69/78/4 41/79/4 40/80/4
f 40/80/5 41/79/5 44/81/5 43/82/5
f 13/40/1 28/83/1 44/84/1 41/41/1
f 62/85/2 11/86/2 38/87/2 68/88/2
f 26/89/2 12/90/2 40/91/2 43/92/2
f 11/86/2 25/93/2 39/94/2 38/87/2
f 3/3/1 17/2/1 48/95/1 45/96/1
f 57/4/1 3/3/1 45/96/1 70/97/1
f 53/98/6 51/99/6 52/100/6 54/101/6
f 71/102/7 49/103/7 50/104/7 72/105/7
f 49/103/8 56/106/8 55/107/8 50/104/8
f 49/108/5 45/109/5 48/110/5 56/111/5
f 71/112/4 70/113/4 45/109/4 49/108/4
f 24/114/2 9/115/2 50/104/2 55/107/2
f 61/116/2 10/117/2 52/100/2 72/105/2
f 53/118/3 47/119/3 46/120/3 51/121/3
f 10/117/2 23/122/2 54/101/2 52/100/2
f 9/115/2 61/116/2 72/105/2 50/104/2
f 51/121/4 46/120/4 70/113/4 71/112/4
f 51/99/7 71/102/7 72/105/7 52/100/7
f 1/49/1 57/4/1 70/97/1 46/50/1
f 12/90/2 62/85/2 68/88/2 40/91/2
f 38/76/4 37/75/4 69/78/4 68/77/4
f 4/30/2 58/8/2 66/68/2 30/31/2
f 11/70/1 62/62/1 67/65/1 31/71/1
f 32/123/4 31/124/4 67/57/4 66/56/4
f 14/36/1 63/39/1 69/42/1 37/37/1
f 6/125/4 10/126/4 61/26/4 59/25/4
f 14/127/4 7/128/4 60/13/4 63/17/4
f 7/128/4 6/129/4 59/14/4 60/13/4
f 15/29/2 64/5/2 58/8/2 4/30/2
f 16/48/1 65/1/1 57/4/1 1/49/1
f 65/1/1 101/130/1 75/131/1 17/2/1
f 64/5/2 102/132/2 74/133/2 18/6/2
f 22/9/3 79/134/3 78/135/3 19/10/3
f 104/136/9 80/137/9 77/138/9 103/139/9
f 107/140/9 85/141/9 80/137/9 104/136/9
f 27/19/3 86/142/3 79/134/3 22/9/3
f 19/21/3 78/143/3 82/144/3 23/22/3
f 103/145/9 77/146/9 81/147/9 105/148/9
f 15/29/2 29/32/2 87/149/2 76/150/2
f 74/133/2 89/151/2 35/33/2 18/6/2
f 27/152/1 42/153/1 91/154/1 86/155/1
f 107/156/1 111/157/1 94/158/1 85/159/1
f 77/160/5 20/44/5 24/43/5 81/161/5
f 85/162/5 28/46/5 21/45/5 80/163/5
f 80/163/5 21/45/5 20/47/5 77/164/5
f 16/48/1 47/51/1 96/165/1 73/166/1
f 35/52/3 89/167/3 88/168/3 34/53/3
f 108/169/9 87/170/9 90/171/9 109/172/9
f 87/173/5 29/61/5 36/60/5 90/174/5
f 106/175/1 109/176/1 90/177/1 84/178/1
f 84/178/1 90/177/1 36/67/1 26/66/1
f 102/132/2 108/179/2 89/151/2 74/133/2
f 25/69/1 34/72/1 88/180/1 83/181/1
f 39/182/3 92/183/3 91/184/3 42/185/3
f 110/186/9 93/187/9 94/188/9 111/189/9
f 93/190/5 43/191/5 44/192/5 94/193/5
f 85/159/1 94/158/1 44/194/1 28/195/1
f 106/196/2 110/197/2 92/198/2 83/199/2
f 26/200/2 43/201/2 93/202/2 84/203/2
f 83/199/2 92/198/2 39/204/2 25/205/2
f 75/131/1 95/206/1 48/95/1 17/2/1
f 101/130/1 112/207/1 95/206/1 75/131/1
f 53/208/6 54/209/6 100/210/6 99/211/6
f 113/212/10 114/213/10 98/214/10 97/215/10
f 97/215/8 98/214/8 55/216/8 56/217/8
f 97/218/5 56/219/5 48/220/5 95/221/5
f 113/222/9 97/223/9 95/224/9 112/225/9
f 24/226/2 55/216/2 98/214/2 81/227/2
f 105/228/2 114/213/2 100/210/2 82/229/2
f 53/230/3 99/231/3 96/232/3 47/233/3
f 82/229/2 100/210/2 54/209/2 23/234/2
f 81/227/2 98/214/2 114/213/2 105/228/2
f 99/231/9 113/222/9 112/225/9 96/232/9
f 99/211/10 100/210/10 114/213/10 113/212/10
f 73/166/1 96/165/1 112/207/1 101/130/1
f 84/203/2 93/202/2 110/197/2 106/196/2
f 92/183/9 110/186/9 111/189/9 91/184/9
f 76/150/2 87/149/2 108/179/2 102/132/2
f 83/181/1 88/180/1 109/176/1 106/175/1
f 89/167/9 108/169/9 109/172/9 88/168/9
f 86/155/1 91/154/1 111/157/1 107/156/1
f 78/143/9 103/145/9 105/148/9 82/144/9
f 86/142/9 107/140/9 104/136/9 79/134/9
f 79/134/9 104/136/9 103/139/9 78/135/9
f 15/29/2 76/150/2 102/132/2 64/5/2
f 16/48/1 73/166/1 101/130/1 65/1/1
