# Blender 4.5.2 LTS
# www.blender.org
mtllib AlfombraMid.mtl
o AlfombraMid
v 0.000000 0.008155 3.000000
v 2.000000 0.008155 3.000000
v 0.000000 0.008155 -1.000000
v 2.000000 0.008155 -1.000000
v 0.000000 0.045575 -1.000000
v 0.000000 0.045575 3.000000
v 2.000000 0.045575 3.000000
v 2.000000 0.045575 -1.000000
v 0.000000 0.008155 -0.333333
v 0.000000 0.008155 2.333333
v 2.000000 0.008155 2.333333
v 2.000000 0.008155 -0.333333
v 0.000000 0.045575 -0.333333
v 0.000000 0.045575 2.333333
v 2.000000 0.045575 2.333333
v 2.000000 0.045575 -0.333333
v 0.000000 0.008155 1.000000
v 2.000000 0.008155 1.000000
v 0.000000 0.045575 1.000000
v 2.000000 0.045575 1.000000
v 1.000000 0.008155 3.000000
v 1.000000 0.008155 -1.000000
v 1.000000 0.045575 3.000000
v 1.000000 0.045575 -1.000000
v 1.000000 0.045575 2.333333
v 1.000000 0.045575 -0.333333
v 1.000000 0.045575 1.000000
vn -0.0000 1.0000 -0.0000
vn -0.0000 -0.0000 -1.0000
vn -0.0000 -0.0000 1.0000
vn 1.0000 -0.0000 -0.0000
vn -1.0000 -0.0000 -0.0000
vt 0.578503 0.724629
vt 0.578503 0.623868
vt 0.511329 0.623868
vt 0.511329 0.724629
vt 0.522528 0.554901
vt 0.522528 0.681332
vt 0.517797 0.681332
vt 0.517797 0.554901
vt 0.522750 0.681332
vt 0.522750 0.554901
vt 0.527481 0.554901
vt 0.527481 0.681332
vt 0.587070 0.618695
vt 0.502783 0.618695
vt 0.586972 0.632512
vt 0.502685 0.632512
vt 0.511252 0.627339
vt 0.578426 0.627339
vt 0.502728 0.632534
vt 0.587014 0.632534
vt 0.578459 0.627357
vt 0.511285 0.627357
vt 0.998387 0.576838
vt 0.998387 0.745411
vt 0.993656 0.745411
vt 0.993656 0.576838
vt 0.502685 0.618370
vt 0.586972 0.618370
vt 0.578426 0.623609
vt 0.511252 0.623609
vt 0.736568 0.674124
vt 0.736568 0.505550
vt 0.741299 0.505550
vt 0.741299 0.674124
vt 0.511252 0.724370
vt 0.578426 0.724370
vt 0.867729 0.674124
vt 0.867729 0.505550
vt 0.865574 0.744286
vt 0.739144 0.744286
vt 0.739144 0.575712
vt 0.865574 0.575712
vt 0.734413 0.744286
vt 0.734413 0.575712
vt 0.997946 0.504600
vt 0.997946 0.673174
vt 0.993215 0.673174
vt 0.993215 0.504600
vt 0.867226 0.745411
vt 0.867226 0.576838
vt 0.866784 0.673174
vt 0.866784 0.504600
vt 0.511252 0.526578
vt 0.578426 0.526578
vt 0.527704 0.681332
vt 0.527704 0.554901
vt 0.532435 0.554901
vt 0.532435 0.681332
vt 0.517574 0.554901
vt 0.517574 0.681332
vt 0.512843 0.681332
vt 0.512843 0.554901
vt 0.578459 0.526595
vt 0.511285 0.526595
s 0
usemtl Material.001
f 26/1/1 16/2/1 8/3/1 24/4/1
f 22/5/2 3/6/2 5/7/2 24/8/2
f 21/9/3 2/10/3 7/11/3 23/12/3
f 12/13/4 4/14/4 8/3/4 16/2/4
f 10/15/5 1/16/5 6/17/5 14/18/5
f 3/19/5 9/20/5 13/21/5 5/22/5
f 17/23/5 10/24/5 14/25/5 19/26/5
f 2/27/4 11/28/4 15/29/4 7/30/4
f 18/31/4 12/32/4 16/33/4 20/34/4
f 23/35/1 7/30/1 15/29/1 25/36/1
f 27/37/1 20/34/1 16/33/1 26/38/1
f 25/39/1 15/40/1 20/41/1 27/42/1
f 11/43/4 18/44/4 20/41/4 15/40/4
f 9/45/5 17/46/5 19/47/5 13/48/5
f 14/25/1 25/49/1 27/50/1 19/26/1
f 19/47/1 27/51/1 26/52/1 13/48/1
f 6/17/1 23/53/1 25/54/1 14/18/1
f 1/55/3 21/56/3 23/57/3 6/58/3
f 4/59/2 22/60/2 24/61/2 8/62/2
f 13/21/1 26/63/1 24/64/1 5/22/1
