# Blender 4.5.2 LTS
# www.blender.org
mtllib AlfombraFin.mtl
o Alfombrafin
v 0.200000 0.008155 3.000000
v 2.000000 0.008155 3.000000
v 0.200000 0.008155 -1.000000
v 2.000000 0.008155 -1.000000
v 0.200000 0.045575 -1.000000
v 0.200000 0.045575 3.000000
v 2.000000 0.045575 3.000000
v 2.000000 0.045575 -1.000000
v 0.200000 0.008155 -0.333333
v 0.200000 0.008155 2.333333
v 2.000000 0.008155 2.333333
v 2.000000 0.008155 -0.333333
v 0.200000 0.045575 -0.333333
v 0.200000 0.045575 2.333333
v 2.000000 0.045575 2.333333
v 2.000000 0.045575 -0.333333
v 0.200000 0.008155 1.000000
v 2.000000 0.008155 1.000000
v 0.200000 0.045575 1.000000
v 2.000000 0.045575 1.000000
v 1.000000 0.008155 3.000000
v 1.000000 0.008155 -1.000000
v 1.000000 0.045575 3.000000
v 1.000000 0.045575 -1.000000
v 1.000000 0.045575 2.333333
v 1.000000 0.045575 -0.333333
v 1.000000 0.045575 1.000000
v 0.600000 0.008155 -1.000000
v 0.600000 0.045575 -1.000000
v 0.600000 0.045575 2.333333
v 0.600000 0.045575 -0.333333
v 0.600000 0.045575 1.000000
v 0.600000 0.008155 3.000000
v 0.600000 0.045575 3.000000
v 2.000000 0.008155 -0.578032
v 2.000000 0.045575 -0.578032
v 0.200000 0.008155 -0.578032
v 0.200000 0.045575 -0.578032
v 1.000000 0.045575 -0.578032
v 0.600000 0.045575 -0.578032
v 0.200000 0.008155 2.583529
v 0.200000 0.045575 2.583529
v 2.000000 0.008155 2.583529
v 2.000000 0.045575 2.583529
v 1.000000 0.045575 2.583529
v 0.600000 0.045575 2.583529
vn -0.0000 1.0000 -0.0000
vn -0.0000 -0.0000 -1.0000
vn -0.0000 -0.0000 1.0000
vn 1.0000 -0.0000 -0.0000
vn -1.0000 -0.0000 -0.0000
vt 0.553671 0.749856
vt 0.553671 0.623426
vt 0.500322 0.623426
vt 0.500322 0.749856
vt 0.522528 0.618116
vt 0.522528 0.681332
vt 0.517797 0.681332
vt 0.517797 0.618116
vt 0.522750 0.681332
vt 0.522750 0.554901
vt 0.527481 0.554901
vt 0.527481 0.681332
vt 0.556132 0.618695
vt 0.502783 0.618695
vt 0.555340 0.632512
vt 0.502685 0.632512
vt 0.500224 0.627781
vt 0.552879 0.627781
vt 0.537493 0.586733
vt 0.537493 0.562111
vt 0.541258 0.562111
vt 0.541258 0.586733
vt 0.526158 0.696271
vt 0.526158 0.562111
vt 0.529924 0.562111
vt 0.529924 0.696271
vt 0.555340 0.618370
vt 0.586972 0.618370
vt 0.586972 0.623101
vt 0.552879 0.623101
vt 0.736568 0.674124
vt 0.736568 0.505550
vt 0.741299 0.505550
vt 0.741299 0.674124
vt 0.552879 0.749532
vt 0.586972 0.749532
vt 0.867729 0.674124
vt 0.867729 0.505550
vt 0.865574 0.744286
vt 0.739144 0.744286
vt 0.739144 0.575712
vt 0.865574 0.575712
vt 0.734413 0.744286
vt 0.734413 0.575712
vt 0.529937 0.696271
vt 0.529937 0.562111
vt 0.533702 0.562111
vt 0.533702 0.696271
vt 0.675412 0.745411
vt 0.612196 0.745411
vt 0.612196 0.576838
vt 0.675412 0.576838
vt 0.674970 0.673174
vt 0.611755 0.673174
vt 0.611755 0.504600
vt 0.674970 0.504600
vt 0.552879 0.564566
vt 0.552879 0.501351
vt 0.586972 0.501351
vt 0.586972 0.564566
vt 0.527704 0.618116
vt 0.527704 0.554901
vt 0.532435 0.554901
vt 0.532435 0.618116
vt 0.517574 0.554901
vt 0.517574 0.681332
vt 0.512843 0.681332
vt 0.512843 0.554901
vt 0.553616 0.564588
vt 0.553616 0.501373
vt 0.500267 0.501373
vt 0.500267 0.564588
vt 0.553616 0.627803
vt 0.500267 0.627803
vt 0.527704 0.681332
vt 0.532435 0.681332
vt 0.504135 0.577401
vt 0.552006 0.577401
vt 0.552006 0.607345
vt 0.504135 0.607345
vt 0.553652 0.741787
vt 0.505780 0.741787
vt 0.505780 0.582213
vt 0.553652 0.582213
vt 0.552951 0.673569
vt 0.505079 0.673569
vt 0.505079 0.513996
vt 0.552951 0.513996
vt 0.522528 0.554901
vt 0.517797 0.554901
vt 0.504836 0.577401
vt 0.552708 0.577401
vt 0.552708 0.606687
vt 0.504836 0.606687
vt 0.584554 0.564588
vt 0.584554 0.501373
vt 0.502728 0.632534
vt 0.556077 0.632534
vt 0.587070 0.618695
vt 0.584609 0.623426
vt 0.584609 0.749856
vt 0.500224 0.564566
vt 0.500224 0.501351
vt 0.500224 0.749532
vt 0.500224 0.623101
vt 0.502685 0.618370
vt 0.533715 0.587286
vt 0.533715 0.562111
vt 0.537480 0.562111
vt 0.537480 0.587286
s 0
usemtl Material.001
f 39/1/1 36/2/1 8/3/1 24/4/1
f 28/5/2 3/6/2 5/7/2 29/8/2
f 21/9/3 2/10/3 7/11/3 23/12/3
f 35/13/4 4/14/4 8/3/4 36/2/4
f 41/15/5 1/16/5 6/17/5 42/18/5
f 37/19/5 9/20/5 13/21/5 38/22/5
f 17/23/5 10/24/5 14/25/5 19/26/5
f 43/27/4 11/28/4 15/29/4 44/30/4
f 18/31/4 12/32/4 16/33/4 20/34/4
f 45/35/1 44/30/1 15/29/1 25/36/1
f 27/37/1 20/34/1 16/33/1 26/38/1
f 25/39/1 15/40/1 20/41/1 27/42/1
f 11/43/4 18/44/4 20/41/4 15/40/4
f 9/45/5 17/46/5 19/47/5 13/48/5
f 30/49/1 25/50/1 27/51/1 32/52/1
f 32/53/1 27/54/1 26/55/1 31/56/1
f 46/57/1 45/58/1 25/59/1 30/60/1
f 33/61/3 21/62/3 23/63/3 34/64/3
f 4/65/2 22/66/2 24/67/2 8/68/2
f 40/69/1 39/70/1 24/71/1 29/72/1
f 38/73/1 40/69/1 29/72/1 5/74/1
f 1/75/3 33/61/3 34/64/3 6/76/3
f 42/77/1 46/78/1 30/79/1 14/80/1
f 19/81/1 32/82/1 31/83/1 13/84/1
f 14/85/1 30/86/1 32/87/1 19/88/1
f 22/89/2 28/5/2 29/8/2 24/90/2
f 13/91/1 31/92/1 40/93/1 38/94/1
f 31/95/1 26/96/1 39/70/1 40/69/1
f 3/97/5 37/98/5 38/73/5 5/74/5
f 12/99/4 35/13/4 36/2/4 16/100/4
f 26/101/1 16/100/1 36/2/1 39/1/1
f 6/17/1 34/102/1 46/57/1 42/18/1
f 34/102/1 23/103/1 45/58/1 46/57/1
f 23/104/1 7/105/1 44/30/1 45/35/1
f 2/106/4 43/27/4 44/30/4 7/105/4
f 10/107/5 41/108/5 42/109/5 14/110/5
