# Blender 5.2.2 LTS
# www.blender.org
mtllib ColumnaPared.mtl
o ColumnaPared
v 1.000000 3.500000 -0.000000
v 1.000000 0.000000 0.000000
v 1.000000 3.500000 0.799631
v 0.000000 3.500000 -0.000000
v 0.000000 0.000000 0.000000
v 0.000000 3.500000 0.799631
v 1.000000 1.528477 -0.000000
v 0.000000 1.528477 0.799631
v 1.000000 1.528477 0.799631
v 0.000000 1.528477 -0.000000
v 1.000000 0.875000 -0.000000
v 1.000000 0.875000 0.799631
v 0.000000 0.875000 -0.000000
v 0.000000 0.875000 0.799631
v 0.000000 3.296032 0.799631
v 1.000000 3.296032 -0.000000
v 1.000000 3.296032 0.799631
v 0.000000 3.296032 -0.000000
v 1.000000 0.334101 -0.000000
v 1.000000 0.334101 0.799631
v 0.000000 0.334101 -0.000000
v 0.000000 0.334101 0.799631
v 0.000000 0.425757 0.799631
v 1.000000 0.437500 -0.000000
v 1.000000 0.425757 0.799631
v 0.000000 0.437500 -0.000000
v 1.000000 3.500000 0.500000
v 0.000000 3.500000 0.500000
v 1.000000 1.528477 0.500000
v 0.000000 1.528477 0.500000
v 0.000000 0.875000 0.500000
v 1.000000 0.875000 0.500000
v 1.000000 3.296032 0.500000
v 0.000000 3.296032 0.500000
v 1.100007 0.000000 0.500000
v 0.000000 0.334101 0.500000
v 1.000000 0.425757 0.500000
v 0.000000 0.425757 0.500000
v -0.100007 0.000000 0.500000
v -0.100007 0.000000 0.907078
v 1.100007 0.334101 0.907078
v 1.100007 0.000000 0.907078
v -0.100007 0.334101 0.907078
v 1.100007 0.334101 0.500000
v -0.100007 0.334101 0.500000
v 1.045634 0.425757 0.848830
v 1.045634 0.334101 0.848830
v 1.000000 0.334101 0.500000
v -0.045634 0.334101 0.848830
v -0.045634 0.425757 0.848830
v 1.045634 0.425757 0.500000
v -0.045634 0.334101 0.500000
v -0.045634 0.425757 0.500000
v -0.052352 3.500000 0.843001
v 1.052351 3.500000 0.843001
v 1.052351 3.500000 0.500000
v -0.052352 3.500000 0.500000
v -0.052352 3.300820 0.843001
v -0.047307 3.296032 0.838822
v 1.052351 3.300820 0.843001
v 1.047307 3.296032 0.838822
v 1.052351 3.300820 0.500000
v 1.047317 3.296032 0.500000
v -0.047317 3.296032 0.500000
v -0.052352 3.300820 0.500000
v -0.045634 0.000000 0.500000
v 0.000000 0.000000 0.500000
v 1.045634 0.334101 0.500000
v 1.045634 0.000000 0.500000
v 1.000000 0.000000 0.500000
vn -0.0000 1.0000 -0.0000
vn -0.0000 -0.0000 -1.0000
vn 1.0000 -0.0000 -0.0000
vn -1.0000 -0.0000 -0.0000
vn -0.0000 -0.0000 1.0000
vn -0.0000 -1.0000 -0.0000
vn 0.6888 -0.7249 -0.0000
vn -0.0000 -0.6575 0.7534
vn -0.6888 -0.7250 -0.0000
vt 0.589153 0.311584
vt 0.714704 0.311584
vt 0.714704 0.348868
vt 0.589153 0.348868
vt 0.714433 0.474253
vt 0.714433 0.499851
vt 0.589934 0.499851
vt 0.589934 0.474253
vt 0.715106 0.418032
vt 0.715106 0.499926
vt 0.589642 0.499926
vt 0.589641 0.418032
vt 0.814386 0.418304
vt 0.814386 0.499987
vt 0.776933 0.499987
vt 0.776933 0.418304
vt 0.776933 0.418161
vt 0.776933 0.499845
vt 0.714434 0.499845
vt 0.714434 0.418161
vt 0.765817 0.418304
vt 0.765817 0.499987
vt 0.640819 0.499987
vt 0.640819 0.418304
vt 0.765817 0.362333
vt 0.765817 0.418487
vt 0.640819 0.418487
vt 0.640819 0.362333
vt 0.776933 0.363593
vt 0.776933 0.418487
vt 0.714434 0.418487
vt 0.714434 0.363594
vt 0.814386 0.362333
vt 0.814386 0.418487
vt 0.776933 0.362333
vt 0.715106 0.363592
vt 0.715106 0.418276
vt 0.589641 0.418276
vt 0.589640 0.363593
vt 0.714433 0.250516
vt 0.714433 0.474555
vt 0.589934 0.474555
vt 0.589934 0.250516
vt 0.814386 0.250516
vt 0.814386 0.474555
vt 0.776933 0.474555
vt 0.776933 0.250516
vt 0.714434 0.474555
vt 0.714434 0.250516
vt 0.765817 0.250516
vt 0.765817 0.474555
vt 0.640817 0.474555
vt 0.640817 0.250516
vt 0.714974 0.309185
vt 0.714974 0.350952
vt 0.589962 0.350952
vt 0.589962 0.309185
vt 0.714974 0.363878
vt 0.589961 0.363878
vt 0.725086 0.328009
vt 0.725086 0.365463
vt 0.719382 0.371613
vt 0.719382 0.328009
vt 0.712798 0.365691
vt 0.712798 0.490690
vt 0.706648 0.496394
vt 0.706648 0.359987
vt 0.676980 0.474555
vt 0.676980 0.250516
vt 0.776933 0.250399
vt 0.714433 0.250399
vt 0.714433 0.418487
vt 0.714433 0.362333
vt 0.714434 0.362332
vt 0.676980 0.418487
vt 0.676980 0.362332
vt 0.714434 0.418303
vt 0.714434 0.499987
vt 0.676980 0.499987
vt 0.676980 0.418303
vt 0.714433 0.499987
vt 0.714433 0.418304
vt 0.589153 0.311610
vt 0.589153 0.349015
vt 0.582618 0.354429
vt 0.582618 0.311610
vt 0.589153 0.250314
vt 0.714704 0.250314
vt 0.714704 0.311584
vt 0.589153 0.311584
vt 0.733704 0.317569
vt 0.775467 0.317569
vt 0.775467 0.368453
vt 0.733704 0.368453
vt 0.661803 0.315624
vt 0.703565 0.315624
vt 0.703565 0.465625
vt 0.661803 0.465625
vt 0.745328 0.366509
vt 0.703565 0.366509
vt 0.745327 0.315624
vt 0.729968 0.328125
vt 0.729968 0.453125
vt 0.716538 0.465625
vt 0.716538 0.315624
vt 0.745327 0.353078
vt 0.757828 0.315624
vt 0.757828 0.366509
vt 0.733704 0.355022
vt 0.721204 0.368453
vt 0.721204 0.317569
vt 0.725434 0.328078
vt 0.736891 0.328078
vt 0.736891 0.371682
vt 0.725434 0.371682
vt 0.713448 0.360055
vt 0.724905 0.360055
vt 0.724905 0.496463
vt 0.713448 0.496463
vt 0.689867 0.326270
vt 0.689867 0.314813
vt 0.733470 0.314813
vt 0.733470 0.326270
vt 0.696016 0.317758
vt 0.733470 0.317758
vt 0.733470 0.323462
vt 0.689866 0.323462
vt 0.540864 0.294066
vt 0.540864 0.443755
vt 0.426237 0.132777
vt 0.426237 0.054086
vt 0.540864 0.499845
vt 0.714627 0.349015
vt 0.714627 0.311610
vt 0.721162 0.311610
vt 0.721162 0.354429
vt 0.589307 0.349015
vt 0.714704 0.349015
vt 0.721239 0.354429
vt 0.582772 0.354429
vt 0.760604 0.399569
vt 0.717728 0.399569
vt 0.718250 0.398700
vt 0.760604 0.398700
vt 0.729936 0.399581
vt 0.868026 0.399581
vt 0.867395 0.400376
vt 0.730566 0.400376
vt 0.760604 0.392773
vt 0.717728 0.392773
vt 0.717728 0.391905
vt 0.760081 0.391904
vt 0.588059 0.353549
vt 0.588059 0.332022
vt 0.657315 0.332022
vt 0.657315 0.353549
vt 0.817051 0.332022
vt 0.817051 0.353549
vt 0.717728 0.385990
vt 0.755182 0.385990
vt 0.861482 0.405275
vt 0.736480 0.405275
vt 0.879998 0.332022
vt 0.879998 0.353549
vt 0.723149 0.392786
vt 0.760604 0.392786
vt 0.604289 0.502898
vt 0.617389 0.502898
vt 0.604596 0.502898
vt 0.609992 0.368538
vt 0.597753 0.368538
vt 0.598041 0.368538
vt 0.714433 0.474355
vt 0.776933 0.474355
vt 0.776933 0.499851
vt 0.714433 0.499851
vt 0.970829 0.463476
vt 0.970829 0.474933
vt 0.965124 0.474933
vt 0.965124 0.463476
vt 0.977625 0.421714
vt 0.977625 0.463476
vt 0.970829 0.421714
vt 0.965124 0.421714
vt 0.776933 0.474355
vt 0.776933 0.499851
vt 0.714433 0.474355
vt 0.714433 0.363593
vt 0.714433 0.350668
vt 0.776933 0.350668
vt 0.527141 0.309190
vt 0.589641 0.309190
vt 0.589641 0.350952
vt 0.527141 0.350952
vt 0.865770 0.350952
vt 0.803270 0.350952
vt 0.803270 0.309190
vt 0.865770 0.309190
vt 0.865770 0.363877
vt 0.803270 0.363877
vt 0.803270 0.350952
s 0
usemtl TRIM.001
f 27/1/1 28/2/1 6/3/1 3/4/1
f 18/5/2 4/6/2 1/7/2 16/8/2
f 13/9/2 10/10/2 7/11/2 11/12/2
f 32/13/3 29/14/3 9/15/3 12/16/3
f 31/17/4 30/18/4 10/19/4 13/20/4
f 12/21/5 9/22/5 8/23/5 14/24/5
f 25/25/5 12/26/5 14/27/5 23/28/5
f 38/29/4 31/30/4 13/31/4 26/32/4
f 37/33/3 32/34/3 12/30/3 25/35/3
f 26/36/2 13/37/2 11/38/2 24/39/2
f 10/40/2 18/41/2 16/42/2 7/43/2
f 29/44/3 33/45/3 17/46/3 9/47/3
f 30/47/4 34/46/4 18/48/4 10/49/4
f 9/50/5 17/51/5 15/52/5 8/53/5
f 5/54/2 21/55/2 19/56/2 2/57/2
f 21/55/2 26/58/2 24/59/2 19/56/2
f 37/60/1 25/61/1 46/62/1 51/63/1
f 25/64/1 23/65/1 50/66/1 46/67/1
f 8/49/4 15/48/4 34/68/4 30/69/4
f 7/70/3 16/46/3 33/41/3 29/71/3
f 24/35/3 11/30/3 32/72/3 37/73/3
f 23/74/4 14/31/4 31/75/4 38/76/4
f 14/77/4 8/78/4 30/79/4 31/80/4
f 11/16/3 7/15/3 29/81/3 32/82/3
f 27/83/1 3/84/1 55/85/1 56/86/1
f 1/87/1 4/88/1 28/89/1 27/90/1
f 35/91/3 44/92/3 41/93/3 42/94/3
f 42/95/5 41/96/5 43/97/5 40/98/5
f 40/99/4 43/100/4 45/96/4 39/101/4
f 20/102/1 22/103/1 43/104/1 41/105/1
f 22/106/1 36/101/1 45/107/1 43/108/1
f 68/91/1 20/109/1 41/110/1 44/111/1
f 68/112/3 51/113/3 46/114/3 47/115/3
f 47/116/5 46/117/5 50/118/5 49/119/5
f 49/120/4 50/121/4 53/122/4 52/123/4
f 23/124/1 38/125/1 53/126/1 50/127/1
f 22/128/6 20/129/6 47/129/6 49/128/6
f 36/130/6 22/131/6 49/131/6 52/130/6
f 20/129/6 68/132/6 47/129/6
f 6/133/1 28/134/1 57/135/1 54/136/1
f 3/137/1 6/138/1 54/139/1 55/140/1
f 62/141/7 60/142/7 61/143/7 63/144/7
f 60/145/8 58/146/8 59/147/8 61/148/8
f 58/149/9 65/150/9 64/151/9 59/152/9
f 58/153/4 54/154/4 57/155/4 65/156/4
f 60/156/5 55/155/5 54/157/5 58/158/5
f 34/159/6 15/160/6 59/152/6 64/151/6
f 15/161/6 17/162/6 61/148/6 59/147/6
f 62/158/3 56/157/3 55/163/3 60/164/3
f 17/165/6 33/166/6 63/144/6 61/143/6
f 33/167/2 27/168/2 56/168/2 62/169/2 63/167/2
f 28/170/2 34/171/2 64/171/2 65/172/2 57/170/2
f 18/173/4 34/174/4 28/175/4 4/176/4
f 52/177/2 53/178/2 38/179/2 36/180/2
f 39/181/2 45/182/2 52/177/2 66/183/2
f 52/177/2 36/180/2 67/184/2 66/183/2
f 16/185/3 1/186/3 27/176/3 33/187/3
f 38/29/4 26/188/4 21/189/4 36/190/4
f 5/191/4 67/192/4 36/193/4 21/194/4
f 37/60/2 51/63/2 68/63/2 48/60/2
f 68/91/2 44/111/2 35/111/2 69/91/2
f 48/60/2 68/63/2 69/63/2 70/60/2
f 19/195/3 48/196/3 70/197/3 2/198/3
f 24/199/3 37/200/3 48/201/3 19/195/3
