# Blender 5.2.2 LTS
# www.blender.org
mtllib ColumnaPared_ROTA.mtl
o ColumnaParedROTA
v 1.000000 0.000000 0.000000
v 0.000000 0.000000 0.000000
v 1.000000 1.528477 -0.000000
v 0.000000 1.528477 0.799631
v 1.000000 1.528477 0.799631
v 0.000000 1.528477 -0.000000
v 1.000000 0.875000 -0.000000
v 1.000000 0.875000 0.799631
v 0.000000 0.875000 -0.000000
v 0.000000 0.875000 0.799631
v 1.000000 0.334101 -0.000000
v 1.000000 0.334101 0.799631
v 0.000000 0.334101 -0.000000
v 0.000000 0.334101 0.799631
v 0.000000 0.425757 0.799631
v 1.000000 0.437500 -0.000000
v 1.000000 0.425757 0.799631
v 0.000000 0.437500 -0.000000
v 1.000000 1.528477 0.500000
v 0.000000 1.528477 0.500000
v 0.000000 0.875000 0.500000
v 1.000000 0.875000 0.500000
v 1.100007 0.000000 0.500000
v 0.000000 0.334101 0.500000
v 1.000000 0.425757 0.500000
v 0.000000 0.425757 0.500000
v -0.100007 0.000000 0.500000
v -0.100007 0.000000 0.907078
v 1.100007 0.334101 0.907078
v 1.100007 0.000000 0.907078
v -0.100007 0.334101 0.907078
v 1.100007 0.334101 0.500000
v -0.100007 0.334101 0.500000
v 1.045634 0.425757 0.848830
v 1.045634 0.334101 0.848830
v 1.000000 0.334101 0.500000
v -0.045634 0.334101 0.848830
v -0.045634 0.425757 0.848830
v 1.045634 0.425757 0.500000
v -0.045634 0.334101 0.500000
v -0.045634 0.425757 0.500000
v -0.045634 0.000000 0.500000
v 0.000000 0.000000 0.500000
v 1.045634 0.334101 0.500000
v 1.045634 0.000000 0.500000
v 1.000000 0.000000 0.500000
v 0.000000 1.812892 -0.000000
v 1.000000 1.812892 -0.000000
v 1.000000 1.812892 0.500000
v 1.000000 1.812892 0.799631
v 0.000000 1.812892 0.500000
v 0.000000 1.812892 0.799631
vn -0.0000 -0.0000 -1.0000
vn 1.0000 -0.0000 -0.0000
vn -1.0000 -0.0000 -0.0000
vn -0.0000 -0.0000 1.0000
vn -0.0000 1.0000 -0.0000
vn -0.0000 -1.0000 -0.0000
vt 0.715106 0.418032
vt 0.715106 0.499926
vt 0.589642 0.499926
vt 0.589641 0.418032
vt 0.814386 0.418304
vt 0.814386 0.499987
vt 0.776933 0.499987
vt 0.776933 0.418304
vt 0.776933 0.418161
vt 0.776933 0.499845
vt 0.714434 0.499845
vt 0.714434 0.418161
vt 0.765817 0.418304
vt 0.765817 0.499987
vt 0.640819 0.499987
vt 0.640819 0.418304
vt 0.765817 0.362333
vt 0.765817 0.418487
vt 0.640819 0.418487
vt 0.640819 0.362333
vt 0.776933 0.363593
vt 0.776933 0.418487
vt 0.714434 0.418487
vt 0.714434 0.363594
vt 0.814386 0.362333
vt 0.814386 0.418487
vt 0.776933 0.362333
vt 0.715106 0.363592
vt 0.715106 0.418276
vt 0.589641 0.418276
vt 0.589640 0.363593
vt 0.714974 0.309185
vt 0.714974 0.350952
vt 0.589962 0.350952
vt 0.589962 0.309185
vt 0.714974 0.363878
vt 0.589961 0.363878
vt 0.725086 0.328009
vt 0.725086 0.365463
vt 0.719382 0.371613
vt 0.719382 0.328009
vt 0.712798 0.365691
vt 0.712798 0.490690
vt 0.706648 0.496394
vt 0.706648 0.359987
vt 0.714433 0.418487
vt 0.714433 0.362333
vt 0.714434 0.362332
vt 0.676980 0.418487
vt 0.676980 0.362332
vt 0.714434 0.418303
vt 0.714434 0.499987
vt 0.676980 0.499987
vt 0.676980 0.418303
vt 0.714433 0.499987
vt 0.714433 0.418304
vt 0.733704 0.317569
vt 0.775467 0.317569
vt 0.775467 0.368453
vt 0.733704 0.368453
vt 0.661803 0.315624
vt 0.703565 0.315624
vt 0.703565 0.465625
vt 0.661803 0.465625
vt 0.745328 0.366509
vt 0.703565 0.366509
vt 0.745327 0.315624
vt 0.729968 0.328125
vt 0.729968 0.453125
vt 0.716538 0.465625
vt 0.716538 0.315624
vt 0.745327 0.353078
vt 0.757828 0.315624
vt 0.757828 0.366509
vt 0.733704 0.355022
vt 0.721204 0.368453
vt 0.721204 0.317569
vt 0.725434 0.328078
vt 0.736891 0.328078
vt 0.736891 0.371682
vt 0.725434 0.371682
vt 0.713448 0.360055
vt 0.724905 0.360055
vt 0.724905 0.496463
vt 0.713448 0.496463
vt 0.689867 0.326270
vt 0.689867 0.314813
vt 0.733470 0.314813
vt 0.733470 0.326270
vt 0.696016 0.317758
vt 0.733470 0.317758
vt 0.733470 0.323462
vt 0.689866 0.323462
vt 0.540864 0.294066
vt 0.540864 0.443755
vt 0.426237 0.132777
vt 0.426237 0.054086
vt 0.540864 0.499845
vt 0.970829 0.463476
vt 0.970829 0.474933
vt 0.965124 0.474933
vt 0.965124 0.463476
vt 0.977625 0.421714
vt 0.977625 0.463476
vt 0.970829 0.421714
vt 0.965124 0.421714
vt 0.714433 0.363593
vt 0.714433 0.350668
vt 0.776933 0.350668
vt 0.527141 0.309190
vt 0.589641 0.309190
vt 0.589641 0.350952
vt 0.527141 0.350952
vt 0.865770 0.350952
vt 0.803270 0.350952
vt 0.803270 0.309190
vt 0.865770 0.309190
vt 0.865770 0.363877
vt 0.803270 0.363877
vt 0.803270 0.350952
vt 0.776933 0.250399
vt 0.776933 0.286468
vt 0.714433 0.286468
vt 0.714433 0.250399
vt 0.714434 0.250516
vt 0.714434 0.286566
vt 0.676980 0.286566
vt 0.676980 0.250516
vt 0.765817 0.250516
vt 0.765817 0.286566
vt 0.640817 0.286566
vt 0.640817 0.250516
vt 0.776933 0.250516
vt 0.776933 0.286566
vt 0.714434 0.286566
vt 0.814386 0.250516
vt 0.814386 0.286566
vt 0.776933 0.286566
vt 0.714433 0.250516
vt 0.589934 0.286566
vt 0.589934 0.250516
vt 0.789456 0.351091
vt 0.664457 0.351091
vt 0.664457 0.288591
vt 0.789456 0.288591
vt 0.789456 0.388544
vt 0.664457 0.388544
vt 0.664457 0.351090
vt 0.789456 0.351090
s 0
usemtl TRIM.001
f 9/1/1 6/2/1 3/3/1 7/4/1
f 22/5/2 19/6/2 5/7/2 8/8/2
f 21/9/3 20/10/3 6/11/3 9/12/3
f 8/13/4 5/14/4 4/15/4 10/16/4
f 17/17/4 8/18/4 10/19/4 15/20/4
f 26/21/3 21/22/3 9/23/3 18/24/3
f 25/25/2 22/26/2 8/22/2 17/27/2
f 18/28/1 9/29/1 7/30/1 16/31/1
f 2/32/1 13/33/1 11/34/1 1/35/1
f 13/33/1 18/36/1 16/37/1 11/34/1
f 25/38/5 17/39/5 34/40/5 39/41/5
f 17/42/5 15/43/5 38/44/5 34/45/5
f 16/27/2 7/22/2 22/46/2 25/47/2
f 15/48/3 10/23/3 21/49/3 26/50/3
f 10/51/3 4/52/3 20/53/3 21/54/3
f 7/8/2 3/7/2 19/55/2 22/56/2
f 23/57/2 32/58/2 29/59/2 30/60/2
f 30/61/4 29/62/4 31/63/4 28/64/4
f 28/65/3 31/66/3 33/62/3 27/67/3
f 12/68/5 14/69/5 31/70/5 29/71/5
f 14/72/5 24/67/5 33/73/5 31/74/5
f 44/57/5 12/75/5 29/76/5 32/77/5
f 44/78/2 39/79/2 34/80/2 35/81/2
f 35/82/4 34/83/4 38/84/4 37/85/4
f 37/86/3 38/87/3 41/88/3 40/89/3
f 15/90/5 26/91/5 41/92/5 38/93/5
f 14/94/6 12/95/6 35/95/6 37/94/6
f 24/96/6 14/97/6 37/97/6 40/96/6
f 12/95/6 44/98/6 35/95/6
f 40/99/1 41/100/1 26/101/1 24/102/1
f 27/103/1 33/104/1 40/99/1 42/105/1
f 40/99/1 24/102/1 43/106/1 42/105/1
f 26/21/3 18/107/3 13/108/3 24/109/3
f 2/110/3 43/111/3 24/112/3 13/113/3
f 25/38/1 39/41/1 44/41/1 36/38/1
f 44/57/1 32/77/1 23/77/1 45/57/1
f 36/38/1 44/41/1 45/41/1 46/38/1
f 11/114/2 36/115/2 46/116/2 1/117/2
f 16/118/2 25/119/2 36/120/2 11/114/2
f 3/121/2 48/122/2 49/123/2 19/124/2
f 4/125/3 52/126/3 51/127/3 20/128/3
f 5/129/4 50/130/4 52/131/4 4/132/4
f 20/133/3 51/134/3 47/135/3 6/125/3
f 19/136/2 49/137/2 50/138/2 5/133/2
f 6/139/1 47/135/1 48/140/1 3/141/1
f 48/142/5 47/143/5 51/144/5 49/145/5
f 49/146/5 51/147/5 52/148/5 50/149/5
