# Blender 5.2.2 LTS
# www.blender.org
mtllib Escaleras.mtl
o Escaleras
v 0.000000 0.000000 2.000000
v 0.000000 0.000000 0.000000
v 0.000000 0.261670 2.000000
v 2.758051 1.782709 2.000000
v 2.413295 1.782709 2.000000
v 2.413295 1.565418 2.000000
v 2.068538 1.565418 2.000000
v 2.068538 1.348126 2.000000
v 1.723782 1.348126 2.000000
v 1.723782 1.130835 2.000000
v 1.379025 1.130835 2.000000
v 1.379025 0.913544 2.000000
v 1.034269 0.913544 2.000000
v 1.034269 0.696252 2.000000
v 0.689513 0.696252 2.000000
v 0.689513 0.478961 2.000000
v 0.344756 0.478961 2.000000
v 0.344756 0.261670 2.000000
v 0.000000 0.261670 0.000000
v 0.344756 0.261670 0.000000
v 0.344756 0.478961 0.000000
v 0.689513 0.478961 0.000000
v 0.689513 0.696252 0.000000
v 1.034269 0.696252 0.000000
v 1.034269 0.913544 0.000000
v 1.379025 0.913544 0.000000
v 1.379025 1.130835 0.000000
v 1.723782 1.130835 0.000000
v 1.723782 1.348126 0.000000
v 2.068538 1.348126 0.000000
v 2.068538 1.565418 0.000000
v 2.413295 1.565418 0.000000
v 2.413295 1.782709 0.000000
v 2.758051 1.782709 0.000000
vn -0.0000 1.0000 -0.0000
vn -1.0000 -0.0000 -0.0000
vt 0.781254 0.071138
vt 0.531245 0.071138
vt 0.531245 0.028042
vt 0.781254 0.028042
vt 0.531245 0.000880
vt 0.781254 0.000880
vt 0.781254 0.250000
vt 0.531245 0.250000
vt 0.531245 0.211655
vt 0.781254 0.211655
vt 0.531245 0.184493
vt 0.781254 0.184493
vt 0.531245 0.141397
vt 0.781254 0.141397
vt 0.531245 0.114234
vt 0.781254 0.114234
vt 0.531245 0.071138
vt 0.781254 0.071138
vt 0.531245 0.043976
vt 0.781254 0.043976
vt 0.531245 0.217203
vt 0.781254 0.217203
vt 0.531245 0.174107
vt 0.781254 0.174107
vt 0.531245 0.146944
vt 0.781254 0.146944
vt 0.531245 0.103848
vt 0.781254 0.103848
vt 0.531245 0.076686
vt 0.781254 0.076686
vt 0.531245 0.033590
vt 0.781254 0.033590
s 0
usemtl TRIM
f 4/1/1 34/2/1 33/3/1 5/4/1
f 5/4/2 33/3/2 32/5/2 6/6/2
f 6/7/1 32/8/1 31/9/1 7/10/1
f 7/10/2 31/9/2 30/11/2 8/12/2
f 8/12/1 30/11/1 29/13/1 9/14/1
f 9/14/2 29/13/2 28/15/2 10/16/2
f 10/16/1 28/15/1 27/17/1 11/18/1
f 11/18/2 27/17/2 26/19/2 12/20/2
f 12/20/1 26/19/1 25/5/1 13/6/1
f 13/7/2 25/8/2 24/21/2 14/22/2
f 14/22/1 24/21/1 23/23/1 15/24/1
f 15/24/2 23/23/2 22/25/2 16/26/2
f 16/26/1 22/25/1 21/27/1 17/28/1
f 17/28/2 21/27/2 20/29/2 18/30/2
f 18/30/1 20/29/1 19/31/1 3/32/1
f 1/6/2 3/32/2 19/31/2 2/5/2
