# Blender 5.2.2 LTS
# www.blender.org
mtllib Farol.mtl
o Farol
v -0.018690 0.141201 0.109697
v -0.018690 0.411656 0.064770
v -0.018690 0.141201 0.299858
v -0.018690 0.411656 0.344785
v -0.072997 0.141201 0.268504
v -0.111905 0.411656 0.290968
v -0.072997 0.141201 0.141051
v -0.111905 0.411656 0.118588
v 0.000000 0.119911 0.184120
v 0.000000 0.432946 0.050443
v 0.000000 0.432946 0.359113
v 0.000000 0.119911 0.225436
v -0.091330 0.138720 0.238441
v -0.130952 0.414137 0.261317
v -0.130952 0.414137 0.148239
v -0.091330 0.138720 0.171115
v -0.133658 0.432946 0.281945
v -0.017890 0.119911 0.215107
v -0.017890 0.119911 0.194449
v -0.133658 0.432946 0.127610
v 0.000000 0.381712 0.353485
v -0.131251 0.393627 0.280555
v -0.131234 0.389655 0.129010
v 0.000000 0.377740 0.053439
v 0.000000 0.373769 0.029529
v 0.000000 0.428974 0.026534
v -0.154364 0.428974 0.293900
v 0.000000 0.428974 0.383022
v -0.154364 0.428974 0.115656
v 0.000000 0.377740 0.377394
v -0.151767 0.389655 0.292833
v -0.151748 0.385684 0.116729
v -0.133658 0.463447 0.281945
v 0.000000 0.463447 0.359113
v -0.133658 0.463447 0.127610
v 0.000000 0.463447 0.050443
v -0.154364 0.459475 0.293900
v -0.154364 0.459475 0.115656
v 0.000000 0.459475 0.383022
v 0.000000 0.459475 0.026534
v -0.015583 0.151006 0.127113
v -0.015583 0.401851 0.090415
v -0.015583 0.401851 0.319141
v -0.015583 0.151006 0.282443
v -0.065767 0.151006 0.256832
v -0.101720 0.401851 0.275181
v -0.101720 0.401851 0.134375
v -0.065767 0.151006 0.152724
v -0.112262 0.406860 0.255091
v -0.077003 0.150746 0.234735
v -0.077003 0.150746 0.174821
v -0.112262 0.406860 0.154464
v 0.000000 0.151006 0.127113
v 0.000000 0.401851 0.090415
v 0.000000 0.401851 0.319141
v 0.000000 0.151006 0.282443
v -0.066829 0.432946 0.320529
v -0.066829 0.432946 0.089027
v -0.065298 0.411656 0.317877
v -0.065298 0.411656 0.091679
v -0.077182 0.428974 0.338461
v -0.077182 0.428974 0.071095
v -0.075874 0.411531 0.073129
v -0.066829 0.463447 0.320529
v -0.066829 0.463447 0.089027
v -0.077182 0.459475 0.071095
v -0.058652 0.401851 0.297161
v -0.058652 0.401851 0.112395
v -0.075884 0.411005 0.336332
v -0.133658 0.432946 0.204778
v -0.130952 0.414137 0.204778
v 0.000000 0.432946 0.204778
v -0.154364 0.428974 0.204778
v -0.151757 0.412181 0.204781
v -0.154364 0.459475 0.204778
v -0.112262 0.414137 0.204778
v -0.066829 0.432946 0.204778
v 0.000000 0.517633 0.364587
v -0.133658 0.463447 0.204778
v -0.137733 0.517049 0.284298
v -0.138020 0.516467 0.125092
v -0.154364 0.521374 0.293900
v -0.154364 0.521374 0.115656
v -0.077182 0.459475 0.338461
v 0.000000 0.521374 0.383022
v 0.000000 0.515175 0.044674
v 0.000000 0.521374 0.026534
v -0.021172 0.143562 0.160082
v -0.021172 0.143562 0.249473
v 0.000000 0.143562 0.160082
v 0.000000 0.143562 0.249473
v -0.066952 0.408424 0.270799
v -0.066952 0.415701 0.204778
v -0.066952 0.408424 0.138756
v -0.019008 0.409988 0.286507
v -0.030411 0.414137 0.204778
v -0.019008 0.409988 0.123048
v 0.000000 0.409988 0.286507
v 0.000000 0.414137 0.204778
v 0.000000 0.409988 0.123048
v 0.018690 0.141201 0.109697
v 0.018690 0.411656 0.064770
v 0.018690 0.141201 0.299858
v 0.018690 0.411656 0.344785
v 0.072997 0.141201 0.268504
v 0.111905 0.411656 0.290968
v 0.072997 0.141201 0.141051
v 0.111905 0.411656 0.118588
v 0.091330 0.138720 0.238441
v 0.130952 0.414137 0.261317
v 0.130952 0.414137 0.148239
v 0.091330 0.138720 0.171115
v 0.133658 0.432946 0.281945
v 0.017890 0.119911 0.215107
v 0.017890 0.119911 0.194449
v 0.133658 0.432946 0.127610
v 0.131251 0.393627 0.280555
v 0.131234 0.389655 0.129010
v 0.154364 0.428974 0.293900
v 0.154364 0.428974 0.115656
v 0.151767 0.389655 0.292833
v 0.151748 0.385684 0.116729
v 0.133658 0.463447 0.281945
v 0.133658 0.463447 0.127610
v 0.154364 0.459475 0.293900
v 0.154364 0.459475 0.115656
v 0.015583 0.151006 0.127113
v 0.015583 0.401851 0.090415
v 0.015583 0.401851 0.319141
v 0.015583 0.151006 0.282443
v 0.065767 0.151006 0.256832
v 0.101720 0.401851 0.275181
v 0.101720 0.401851 0.134375
v 0.065767 0.151006 0.152724
v 0.112262 0.406860 0.255091
v 0.077003 0.150746 0.234735
v 0.077003 0.150746 0.174821
v 0.112262 0.406860 0.154464
v 0.066829 0.432946 0.320529
v 0.066829 0.432946 0.089027
v 0.065298 0.411656 0.317877
v 0.065298 0.411656 0.091679
v 0.077182 0.428974 0.338461
v 0.077182 0.428974 0.071095
v 0.075874 0.411531 0.073129
v 0.066829 0.463447 0.320529
v 0.066829 0.463447 0.089027
v 0.077182 0.459475 0.071095
v 0.058652 0.401851 0.297161
v 0.058652 0.401851 0.112395
v 0.075884 0.411005 0.336332
v 0.133658 0.432946 0.204778
v 0.130952 0.414137 0.204778
v 0.154364 0.428974 0.204778
v 0.151757 0.412181 0.204781
v 0.154364 0.459475 0.204778
v 0.112262 0.414137 0.204778
v 0.066829 0.432946 0.204778
v 0.133658 0.463447 0.204778
v 0.137733 0.517049 0.284298
v 0.138020 0.516467 0.125092
v 0.154364 0.521374 0.293900
v 0.154364 0.521374 0.115656
v 0.077182 0.459475 0.338461
v 0.021172 0.143562 0.160082
v 0.021172 0.143562 0.249473
v 0.066952 0.408424 0.270799
v 0.066952 0.415701 0.204778
v 0.066952 0.408424 0.138756
v 0.019008 0.409988 0.286507
v 0.027499 0.414137 0.204778
v 0.019008 0.409988 0.123048
v 0.000000 0.119911 0.307113
v -0.088625 0.119911 0.255945
v -0.088625 0.119911 0.153610
v 0.000000 0.119911 0.102443
v 0.088625 0.119911 0.255945
v 0.088625 0.119911 0.153610
v 0.000000 0.031231 0.225436
v 0.000000 0.031231 0.184120
v -0.017890 -0.010329 0.025985
v -0.017890 0.010329 0.025985
v 0.017890 -0.010329 0.025985
v 0.017890 0.010329 0.025985
v 0.000000 0.020658 0.025985
v 0.000000 -0.020658 0.025985
v 0.017890 0.031231 0.194449
v 0.017890 0.031231 0.215107
v -0.017890 0.031231 0.194449
v -0.017890 0.031231 0.215107
v 0.000000 0.020786 0.183092
v 0.000000 0.020070 0.180768
v 0.000000 0.019891 0.166906
v 0.017890 0.015104 0.191718
v 0.017890 0.010319 0.184174
v 0.017890 0.009564 0.167098
v 0.017890 0.003741 0.208970
v 0.017890 -0.009184 0.190985
v 0.017890 -0.011090 0.167483
v 0.000000 -0.001941 0.217595
v 0.000000 -0.018935 0.194390
v 0.000000 -0.021417 0.167675
v -0.017890 0.003741 0.208970
v -0.017890 -0.009184 0.190985
v -0.017890 -0.011090 0.167483
v -0.017890 0.009564 0.167098
v -0.017890 0.010319 0.184174
v -0.017890 0.015104 0.191718
v -0.109897 -0.109897 0.025985
v 0.109897 -0.109897 0.025985
v -0.109897 0.109897 0.025985
v 0.109897 0.109897 0.025985
v -0.109897 -0.109897 -0.000000
v 0.109897 -0.109897 -0.000000
v -0.109897 0.109897 0.000000
v 0.109897 0.109897 0.000000
v 0.000000 -0.109897 0.025985
v 0.000000 0.109897 0.025985
v 0.000000 -0.109897 -0.000000
v 0.000000 0.109897 0.000000
v -0.109897 0.000000 0.025985
v 0.109897 0.000000 0.025985
v -0.109897 0.000000 0.000000
v 0.109897 0.000000 0.000000
v 0.000000 0.000000 0.000000
v 0.000000 0.000000 0.025985
vn -0.2013 -0.9773 0.0666
vn -0.5990 -0.1402 -0.7884
vn -0.4949 -0.1424 0.8572
vn -0.5000 -0.0000 -0.8660
vn -0.4276 -0.1413 0.8929
vn -0.8607 -0.5022 0.0834
vn -0.4949 -0.1424 -0.8572
vn -0.9898 -0.1424 -0.0000
vn -0.9851 -0.1399 0.0999
vn -0.0000 1.0000 -0.0000
vn -0.9895 0.0224 0.1428
vn -0.1899 -0.9179 -0.3483
vn -0.8328 -0.5462 -0.0907
vn 0.4692 -0.6795 -0.5641
vn 0.3496 -0.8942 0.2796
vn -0.5464 -0.1416 0.8255
vn -0.9864 -0.1403 -0.0856
vn -0.3328 -0.5801 0.7435
vn -0.4160 -0.1410 -0.8984
vn -0.2924 -0.6520 -0.6996
vn -0.5028 -0.1056 0.8579
vn -0.4880 -0.0760 -0.8695
vn -0.9957 -0.0921 -0.0118
vn 0.0933 -0.8176 -0.5682
vn 0.4551 -0.8798 -0.1370
vn 0.4388 -0.7536 0.4895
vn -1.0000 -0.0000 -0.0000
vn 0.4981 0.0872 -0.8627
vn 0.5000 -0.0000 0.8660
vn 1.0000 -0.0000 -0.0000
vn 0.5000 -0.0000 -0.8660
vn -0.5000 -0.0000 0.8660
vn -0.9895 0.0224 -0.1428
vn -0.2589 0.8410 0.4750
vn -0.2103 -0.8984 0.3857
vn 0.8418 0.0791 0.5339
vn 0.8418 0.0791 -0.5339
vn -0.2589 0.8410 -0.4750
vn -0.2927 0.0365 -0.9555
vn -0.2927 0.0365 0.9555
vn -0.6429 0.7659 -0.0000
vn 0.4986 0.0758 -0.8635
vn -0.1899 -0.9179 0.3483
vn 0.3076 -0.9160 -0.2574
vn -0.5106 -0.0685 -0.8571
vn -0.4884 -0.0817 0.8688
vn 0.0871 -0.8073 0.5836
vn -0.2103 -0.8984 -0.3857
vn 0.5033 -0.8500 0.1558
vn -0.9962 -0.0864 0.0129
vn -0.2013 -0.9773 -0.0666
vn -0.5267 0.8257 0.2021
vn -0.1221 0.8190 0.5607
vn 0.4183 0.8157 0.3995
vn -0.5607 0.8135 -0.1545
vn 0.4245 0.8190 -0.3861
vn -0.1368 0.8157 -0.5620
vn 0.4977 0.0961 0.8620
vn 0.9971 0.0758 -0.0000
vn 0.9966 0.0820 -0.0000
vn 0.4983 0.0820 0.8631
vn 0.8846 0.1578 0.4389
vn 0.8846 0.1578 -0.4389
vn -0.0000 0.1448 -0.9895
vn -0.0000 0.1448 0.9895
vn 0.1335 0.9751 0.1772
vn -0.0000 0.9754 0.2203
vn 0.1276 0.9918 -0.0000
vn 0.1335 0.9751 -0.1772
vn -0.0000 0.9754 -0.2203
vn 0.1418 -0.9455 -0.2933
vn 0.1255 -0.9565 -0.2635
vn -0.0000 -0.9703 -0.2420
vn 0.0557 -0.9907 -0.1239
vn 0.0145 -0.9968 -0.0782
vn -0.0000 -0.9987 -0.0507
vn 0.0557 -0.9907 0.1239
vn 0.0145 -0.9968 0.0782
vn -0.0000 -0.9987 0.0507
vn 0.1418 -0.9455 0.2933
vn 0.1255 -0.9565 0.2635
vn -0.0000 -0.9703 0.2420
vn 0.2013 -0.9773 0.0666
vn 0.5990 -0.1402 -0.7884
vn 0.4949 -0.1424 0.8572
vn 0.4276 -0.1413 0.8929
vn 0.8607 -0.5022 0.0834
vn 0.4949 -0.1424 -0.8572
vn 0.9898 -0.1424 -0.0000
vn 0.9851 -0.1399 0.0999
vn 0.9895 0.0224 0.1428
vn 0.1899 -0.9179 -0.3483
vn 0.8328 -0.5462 -0.0907
vn -0.4692 -0.6795 -0.5641
vn -0.3496 -0.8942 0.2796
vn 0.5464 -0.1416 0.8255
vn 0.9864 -0.1403 -0.0856
vn 0.3328 -0.5801 0.7435
vn 0.4160 -0.1410 -0.8984
vn 0.2924 -0.6520 -0.6996
vn 0.5028 -0.1056 0.8579
vn 0.4880 -0.0760 -0.8695
vn 0.9957 -0.0921 -0.0118
vn -0.0933 -0.8176 -0.5682
vn -0.4551 -0.8798 -0.1370
vn -0.4388 -0.7535 0.4895
vn -0.4981 0.0872 -0.8627
vn 0.9895 0.0224 -0.1428
vn 0.2589 0.8410 0.4750
vn 0.2103 -0.8984 0.3857
vn -0.8418 0.0791 0.5339
vn -0.8418 0.0791 -0.5339
vn 0.2589 0.8410 -0.4750
vn 0.2927 0.0365 -0.9555
vn 0.2927 0.0365 0.9555
vn 0.6429 0.7659 -0.0000
vn -0.4986 0.0758 -0.8635
vn 0.1899 -0.9179 0.3483
vn -0.3076 -0.9160 -0.2574
vn 0.5106 -0.0685 -0.8571
vn 0.4884 -0.0817 0.8688
vn -0.0871 -0.8073 0.5836
vn 0.2103 -0.8984 -0.3857
vn -0.5033 -0.8500 0.1558
vn 0.9962 -0.0864 0.0129
vn 0.2013 -0.9773 -0.0666
vn 0.5267 0.8257 0.2021
vn 0.1221 0.8190 0.5607
vn -0.4183 0.8157 0.3995
vn 0.5607 0.8135 -0.1545
vn -0.4245 0.8190 -0.3861
vn 0.1368 0.8157 -0.5620
vn -0.4977 0.0961 0.8620
vn -0.9971 0.0758 -0.0000
vn -0.9966 0.0820 -0.0000
vn -0.4983 0.0820 0.8631
vn -0.8846 0.1578 0.4389
vn -0.8846 0.1578 -0.4389
vn -0.1335 0.9751 0.1772
vn -0.1276 0.9918 -0.0000
vn -0.1335 0.9751 -0.1772
vn -0.1418 -0.9455 -0.2933
vn -0.1255 -0.9565 -0.2635
vn -0.0557 -0.9907 -0.1239
vn -0.0140 -0.9969 -0.0779
vn -0.0557 -0.9907 0.1239
vn -0.0140 -0.9969 0.0779
vn -0.1418 -0.9455 0.2933
vn -0.1255 -0.9565 0.2635
vn -0.0000 -1.0000 -0.0000
vn -0.4999 -0.8660 -0.0047
vn 0.4999 -0.8660 -0.0047
vn 0.4999 0.8660 0.0047
vn -0.4999 0.8660 0.0047
vn 0.4912 0.8706 -0.0263
vn 0.4755 0.7684 -0.4283
vn 0.4797 0.1229 -0.8688
vn 0.4937 -0.8663 0.0757
vn 0.4796 -0.7100 0.5157
vn 0.4832 -0.1966 0.8532
vn -0.4937 -0.8663 0.0757
vn -0.4796 -0.7100 0.5157
vn -0.4832 -0.1966 0.8532
vn -0.4912 0.8706 -0.0263
vn -0.4755 0.7684 -0.4283
vn -0.4797 0.1229 -0.8688
vn -0.0000 -0.0000 1.0000
vn -0.0000 -0.0000 -1.0000
vt 0.667723 0.900658
vt 0.667702 0.907720
vt 0.665223 0.906947
vt 0.665384 0.900626
vt 0.661401 0.916190
vt 0.661872 0.950329
vt 0.658694 0.946437
vt 0.658694 0.913754
vt 0.721350 0.962795
vt 0.714548 0.966659
vt 0.711074 0.965547
vt 0.722173 0.959241
vt 0.607309 0.896120
vt 0.597368 0.893127
vt 0.597070 0.889477
vt 0.609589 0.892010
vt 0.572301 0.940226
vt 0.572288 0.974368
vt 0.569354 0.972388
vt 0.569626 0.937755
vt 0.548050 0.959378
vt 0.549525 0.964182
vt 0.545057 0.958988
vt 0.714531 0.983293
vt 0.721352 0.987159
vt 0.722181 0.990720
vt 0.711050 0.984411
vt 0.711878 0.970747
vt 0.711850 0.979172
vt 0.709465 0.981355
vt 0.709507 0.968548
vt 0.584109 0.939875
vt 0.585033 0.974631
vt 0.582285 0.971897
vt 0.581688 0.937756
vt 0.594171 0.921249
vt 0.606654 0.928456
vt 0.598332 0.933261
vt 0.590009 0.928456
vt 0.663784 0.917006
vt 0.664824 0.948560
vt 0.672180 0.980637
vt 0.666302 0.983877
vt 0.665861 0.980459
vt 0.671272 0.977804
vt 0.668823 0.931628
vt 0.667773 0.936032
vt 0.664787 0.936472
vt 0.548984 0.977575
vt 0.547994 0.981317
vt 0.545057 0.982015
vt 0.549255 0.970878
vt 0.546598 0.970757
vt 0.622622 0.984803
vt 0.619731 0.988287
vt 0.619930 0.954145
vt 0.622622 0.951692
vt 0.566694 0.974666
vt 0.567228 0.939901
vt 0.668721 0.911458
vt 0.671677 0.912057
vt 0.579323 0.974390
vt 0.579033 0.940249
vt 0.667898 0.893598
vt 0.668754 0.890205
vt 0.671677 0.889465
vt 0.581008 0.914213
vt 0.585050 0.922073
vt 0.581106 0.924338
vt 0.578830 0.914275
vt 0.606261 0.898009
vt 0.597593 0.897035
vt 0.589008 0.898904
vt 0.583705 0.905901
vt 0.580484 0.904194
vt 0.587880 0.897187
vt 0.668620 0.924929
vt 0.665971 0.925017
vt 0.670329 0.900694
vt 0.667667 0.914771
vt 0.668416 0.918230
vt 0.664787 0.913867
vt 0.577291 0.902621
vt 0.585481 0.893523
vt 0.525499 0.974814
vt 0.525194 0.965171
vt 0.532296 0.974814
vt 0.596470 0.880408
vt 0.522363 0.943892
vt 0.522607 0.934370
vt 0.526400 0.934364
vt 0.526127 0.943989
vt 0.521386 0.963086
vt 0.522079 0.953500
vt 0.525920 0.953695
vt 0.525140 0.963372
vt 0.519458 0.982250
vt 0.520620 0.972661
vt 0.524441 0.973052
vt 0.523247 0.982709
vt 0.577952 0.926058
vt 0.574654 0.914394
vt 0.616766 0.986542
vt 0.617554 0.954980
vt 0.721887 0.965260
vt 0.715632 0.968463
vt 0.671055 0.918263
vt 0.671517 0.924267
vt 0.574171 0.941184
vt 0.574427 0.972824
vt 0.577171 0.972862
vt 0.577171 0.941222
vt 0.715615 0.981484
vt 0.721888 0.984688
vt 0.564437 0.973343
vt 0.565153 0.941055
vt 0.586197 0.941006
vt 0.587275 0.973284
vt 0.714217 0.971218
vt 0.714193 0.978716
vt 0.531173 0.973711
vt 0.569477 0.898579
vt 0.570317 0.930416
vt 0.671984 0.930270
vt 0.521676 0.974814
vt 0.521458 0.965271
vt 0.610913 0.905821
vt 0.615359 0.903236
vt 0.678057 0.977385
vt 0.676678 0.975129
vt 0.598332 0.914041
vt 0.614977 0.923651
vt 0.618574 0.901340
vt 0.581687 0.904431
vt 0.581687 0.914041
vt 0.581687 0.923651
vt 0.665399 0.894302
vt 0.606758 0.895698
vt 0.596346 0.889225
vt 0.596041 0.886901
vt 0.607834 0.893128
vt 0.617967 0.909877
vt 0.618428 0.898567
vt 0.620297 0.897150
vt 0.620573 0.909794
vt 0.608979 0.928801
vt 0.619086 0.922009
vt 0.621225 0.923024
vt 0.610592 0.930842
vt 0.600030 0.937196
vt 0.600508 0.939432
vt 0.532877 0.934355
vt 0.532601 0.954035
vt 0.626637 0.896561
vt 0.589284 0.940961
vt 0.590084 0.972591
vt 0.577258 0.941126
vt 0.577258 0.973422
vt 0.614826 0.986493
vt 0.615614 0.954932
vt 0.602894 0.969370
vt 0.602894 0.937799
vt 0.604834 0.937799
vt 0.604834 0.969370
vt 0.721221 0.980482
vt 0.723834 0.980489
vt 0.723834 0.984691
vt 0.721217 0.969463
vt 0.723834 0.969459
vt 0.723834 0.965257
vt 0.678057 0.959838
vt 0.672396 0.957882
vt 0.671424 0.954474
vt 0.676797 0.957225
vt 0.666434 0.955939
vt 0.666044 0.951753
vt 0.664075 0.955922
vt 0.664102 0.951739
vt 0.677999 0.966186
vt 0.672356 0.966148
vt 0.667802 0.966118
vt 0.664009 0.966094
vt 0.677973 0.972533
vt 0.672288 0.974412
vt 0.666304 0.976278
vt 0.663945 0.976265
vt 0.663918 0.980448
vt 0.647680 0.965992
vt 0.650015 0.966006
vt 0.649966 0.972357
vt 0.647436 0.973047
vt 0.655987 0.916190
vt 0.655515 0.950329
vt 0.726319 0.962795
vt 0.725495 0.959241
vt 0.736595 0.965547
vt 0.733120 0.966659
vt 0.617749 0.913879
vt 0.622505 0.913837
vt 0.618775 0.926294
vt 0.615597 0.924325
vt 0.556660 0.940226
vt 0.559336 0.937755
vt 0.559607 0.972388
vt 0.556674 0.974368
vt 0.609822 0.987554
vt 0.606829 0.987944
vt 0.611297 0.982751
vt 0.733137 0.983293
vt 0.736618 0.984411
vt 0.725488 0.990720
vt 0.726317 0.987159
vt 0.735791 0.970747
vt 0.738162 0.968548
vt 0.738204 0.981355
vt 0.735819 0.979173
vt 0.595971 0.939875
vt 0.598392 0.937756
vt 0.597795 0.971897
vt 0.595046 0.974631
vt 0.602493 0.906834
vt 0.606654 0.899626
vt 0.614977 0.904431
vt 0.614977 0.914041
vt 0.652564 0.948560
vt 0.653604 0.917006
vt 0.655655 0.980533
vt 0.656599 0.977711
vt 0.661976 0.980434
vt 0.661492 0.983846
vt 0.662051 0.894308
vt 0.658015 0.889465
vt 0.661002 0.889904
vt 0.610756 0.969357
vt 0.606829 0.964917
vt 0.609765 0.965615
vt 0.611026 0.976054
vt 0.608370 0.976176
vt 0.625314 0.954145
vt 0.625513 0.988287
vt 0.561733 0.939901
vt 0.562268 0.974666
vt 0.674967 0.935873
vt 0.672015 0.936502
vt 0.675950 0.932123
vt 0.601047 0.940249
vt 0.600757 0.974390
vt 0.675755 0.918042
vt 0.672015 0.913867
vt 0.674934 0.914637
vt 0.589754 0.929365
vt 0.588636 0.931213
vt 0.615550 0.913893
vt 0.612086 0.922281
vt 0.606610 0.929338
vt 0.607657 0.931118
vt 0.598131 0.934641
vt 0.598096 0.931080
vt 0.661848 0.901007
vt 0.659199 0.900919
vt 0.675853 0.925082
vt 0.673250 0.925118
vt 0.660895 0.911166
vt 0.658015 0.912069
vt 0.661645 0.907706
vt 0.609885 0.934925
vt 0.598050 0.938196
vt 0.525194 0.984458
vt 0.626637 0.931039
vt 0.522335 0.924848
vt 0.526098 0.924740
vt 0.521373 0.905882
vt 0.525072 0.905597
vt 0.525848 0.915141
vt 0.522062 0.915326
vt 0.519458 0.887005
vt 0.523191 0.886549
vt 0.524375 0.896062
vt 0.520611 0.896450
vt 0.586397 0.934931
vt 0.627690 0.954980
vt 0.628478 0.986542
vt 0.732037 0.968463
vt 0.725782 0.965260
vt 0.664746 0.901669
vt 0.664283 0.907673
vt 0.554534 0.972824
vt 0.554790 0.941184
vt 0.602909 0.941222
vt 0.602909 0.972862
vt 0.725781 0.984688
vt 0.732054 0.981484
vt 0.563809 0.941055
vt 0.564524 0.973343
vt 0.592805 0.973284
vt 0.593883 0.941006
vt 0.733476 0.978716
vt 0.733451 0.971218
vt 0.531007 0.895407
vt 0.598041 0.947053
vt 0.665213 0.895666
vt 0.521458 0.984358
vt 0.649820 0.977207
vt 0.651228 0.974969
vt 0.590009 0.899626
vt 0.598332 0.894821
vt 0.647523 0.958934
vt 0.650044 0.959656
vt 0.588213 0.897945
vt 0.586486 0.895886
vt 0.579149 0.917684
vt 0.576382 0.917678
vt 0.575570 0.903988
vt 0.577757 0.905004
vt 0.588426 0.933232
vt 0.587584 0.935744
vt 0.575570 0.931009
vt 0.577635 0.929717
vt 0.532444 0.914787
vt 0.590796 0.940961
vt 0.589996 0.972591
vt 0.551703 0.973422
vt 0.551703 0.941126
vt 0.629630 0.954932
vt 0.630418 0.986493
vt 0.606775 0.969370
vt 0.606775 0.937799
vt 0.726447 0.980482
vt 0.726452 0.969463
vt 0.651338 0.957059
vt 0.656746 0.954379
vt 0.655729 0.957774
vt 0.662160 0.951728
vt 0.661716 0.955908
vt 0.655662 0.966041
vt 0.660580 0.966072
vt 0.655626 0.974307
vt 0.661586 0.976248
vt 0.596533 0.913318
vt 0.596533 0.915890
vt 0.587724 0.920976
vt 0.587724 0.908232
vt 0.598761 0.912031
vt 0.598761 0.901860
vt 0.600989 0.913318
vt 0.609798 0.908232
vt 0.598761 0.917176
vt 0.598761 0.927348
vt 0.600989 0.915890
vt 0.609798 0.920976
vt 0.634095 0.951878
vt 0.636518 0.952043
vt 0.635778 0.963406
vt 0.633225 0.962447
vt 0.643577 0.951927
vt 0.645913 0.951699
vt 0.646942 0.961586
vt 0.644665 0.962201
vt 0.638899 0.952129
vt 0.641270 0.952089
vt 0.642075 0.963247
vt 0.638909 0.964040
vt 0.631723 0.951699
vt 0.630954 0.961879
vt 0.636827 0.987257
vt 0.634395 0.987333
vt 0.633434 0.970311
vt 0.636033 0.969564
vt 0.631957 0.987442
vt 0.631108 0.970822
vt 0.646629 0.987231
vt 0.644189 0.987191
vt 0.644652 0.970142
vt 0.646998 0.970591
vt 0.641754 0.987186
vt 0.642022 0.969469
vt 0.639290 0.987215
vt 0.639017 0.969119
vt 0.638973 0.966576
vt 0.642666 0.966956
vt 0.638965 0.966133
vt 0.642709 0.965610
vt 0.645389 0.967570
vt 0.645534 0.965218
vt 0.647583 0.967889
vt 0.647704 0.964999
vt 0.630459 0.968145
vt 0.632632 0.967773
vt 0.630272 0.965277
vt 0.632429 0.965444
vt 0.635313 0.967086
vt 0.635229 0.965754
vt 0.696112 0.972994
vt 0.696112 0.986680
vt 0.682426 0.986680
vt 0.682426 0.972994
vt 0.598897 0.914053
vt 0.612583 0.914053
vt 0.612583 0.927739
vt 0.598897 0.927739
vt 0.610143 0.951519
vt 0.613379 0.951519
vt 0.613379 0.965205
vt 0.610143 0.965205
vt 0.524756 0.951741
vt 0.521520 0.951741
vt 0.521520 0.938055
vt 0.524756 0.938055
vt 0.606839 0.951519
vt 0.610075 0.951519
vt 0.610075 0.965205
vt 0.606839 0.965205
vt 0.528061 0.951741
vt 0.524825 0.951741
vt 0.524825 0.938055
vt 0.528061 0.938055
vt 0.524756 0.965427
vt 0.521520 0.965427
vt 0.610143 0.937833
vt 0.613379 0.937833
vt 0.598897 0.900367
vt 0.612583 0.900367
vt 0.696112 0.959308
vt 0.682426 0.959308
vt 0.709798 0.959308
vt 0.709798 0.972994
vt 0.585211 0.900367
vt 0.585211 0.914053
vt 0.528061 0.965427
vt 0.524825 0.965427
vt 0.606839 0.937833
vt 0.610075 0.937833
vt 0.585211 0.927739
vt 0.709798 0.986680
s 0
usemtl TRIM
f 71/1/1 15/2/1 52/3/1 76/4/1
f 1/5/2 2/6/2 24/7/2 176/8/2
f 3/9/3 5/10/3 174/11/3 173/12/3
f 62/13/4 29/14/4 38/15/4 66/16/4
f 5/17/5 6/18/5 22/19/5 174/20/5
f 24/21/6 2/22/6 25/23/6
f 7/24/7 1/25/7 176/26/7 175/27/7
f 13/28/8 16/29/8 175/30/8 174/31/8
f 16/32/9 15/33/9 23/34/9 175/35/9
f 77/36/10 58/37/10 20/38/10 70/39/10
f 2/6/11 1/5/11 41/40/11 42/41/11
f 60/42/12 2/43/12 42/44/12 68/45/12
f 4/46/13 21/47/13 30/48/13
f 8/49/14 23/50/14 32/51/14
f 60/52/15 8/49/15 32/51/15 63/53/15
f 21/54/16 4/55/16 3/56/16 173/57/16
f 22/19/17 14/58/17 13/59/17 174/20/17
f 23/60/18 15/2/18 32/61/18
f 23/34/19 8/62/19 7/63/19 175/35/19
f 14/64/20 22/65/20 31/66/20
f 69/67/21 30/68/21 28/69/21 61/70/21
f 63/71/22 32/72/22 29/14/22 62/13/22
f 74/73/23 31/74/23 27/75/23 73/76/23
f 59/77/24 4/46/24 30/48/24 69/78/24
f 71/1/25 14/64/25 31/66/25 74/79/25
f 22/80/26 6/81/26 31/82/26
f 73/76/27 27/75/27 37/83/27 75/84/27
f 34/85/28 64/86/28 78/87/28
f 66/16/4 38/15/4 83/88/4
f 58/89/29 10/90/29 36/91/29 65/92/29
f 70/93/30 20/94/30 35/95/30 79/96/30
f 57/97/31 17/98/31 33/99/31 64/100/31
f 61/70/32 28/69/32 39/101/32 84/102/32
f 3/56/33 4/55/33 43/103/33 44/104/33
f 5/10/34 3/9/34 44/105/34 45/106/34
f 59/77/35 6/81/35 46/107/35 67/108/35
f 6/18/36 5/17/36 45/109/36 46/110/36
f 7/63/37 8/62/37 47/111/37 48/112/37
f 1/25/38 7/24/38 48/113/38 41/114/38
f 13/59/39 14/58/39 49/115/39 50/116/39
f 15/33/40 16/32/40 51/117/40 52/118/40
f 16/29/41 13/28/41 50/119/41 51/120/41
f 64/100/42 33/99/42 80/121/42
f 75/84/27 37/83/27 82/122/27
f 84/102/32 39/101/32 85/123/32
f 4/46/43 59/77/43 67/108/43 43/124/43
f 27/75/32 61/70/32 84/102/32 37/83/32
f 11/125/31 57/126/31 64/86/31 34/85/31
f 20/94/29 58/89/29 65/92/29 35/95/29
f 6/81/44 59/77/44 69/78/44 31/82/44
f 25/127/45 63/71/45 62/13/45 26/128/45
f 31/74/46 69/67/46 61/70/46 27/75/46
f 2/22/47 60/52/47 63/53/47 25/23/47
f 8/129/48 60/42/48 68/45/48 47/130/48
f 72/131/10 10/132/10 58/37/10 77/36/10
f 26/128/4 62/13/4 66/16/4 40/133/4
f 11/134/10 72/131/10 77/36/10 57/135/10
f 38/15/27 75/84/27 83/88/27
f 17/98/30 70/93/30 79/96/30 33/99/30
f 29/14/27 73/76/27 75/84/27 38/15/27
f 15/2/49 71/1/49 74/79/49 32/61/49
f 32/72/50 74/73/50 73/76/50 29/14/50
f 57/135/10 77/36/10 70/39/10 17/136/10
f 14/64/51 71/1/51 76/4/51 49/137/51
f 65/138/52 86/139/52 87/140/52 66/141/52
f 79/142/53 81/143/53 83/144/53 75/145/53
f 64/146/54 80/147/54 82/148/54 84/149/54
f 78/150/55 64/146/55 84/149/55 85/151/55
f 81/143/56 65/138/56 66/141/56 83/144/56
f 80/147/57 79/142/57 75/145/57 82/148/57
f 65/92/58 36/91/58 86/152/58
f 33/99/59 79/96/59 80/121/59
f 37/83/32 84/102/32 82/122/32
f 79/96/60 35/95/60 81/153/60
f 35/95/61 65/92/61 81/153/61
f 40/133/4 66/16/4 87/154/4
f 48/155/62 47/156/62 52/118/62 51/117/62
f 45/109/63 50/157/63 49/158/63 46/110/63
f 44/104/64 43/103/64 55/159/64 56/160/64
f 42/161/65 41/162/65 53/163/65 54/164/65
f 51/120/66 88/165/66 41/114/66 48/113/66
f 88/165/67 90/166/67 53/167/67 41/114/67
f 50/119/68 89/168/68 88/165/68 51/120/68
f 89/168/10 91/169/10 90/166/10 88/165/10
f 45/106/69 44/105/69 89/168/69 50/119/69
f 44/105/70 56/170/70 91/169/70 89/168/70
f 49/171/71 92/172/71 67/173/71 46/174/71
f 92/172/72 95/175/72 43/176/72 67/173/72
f 95/175/73 98/177/73 55/178/73 43/176/73
f 76/179/74 93/180/74 92/172/74 49/171/74
f 93/180/75 96/181/75 95/175/75 92/172/75
f 96/181/76 99/182/76 98/177/76 95/175/76
f 52/183/77 94/184/77 93/180/77 76/179/77
f 94/184/78 97/185/78 96/181/78 93/180/78
f 97/185/79 100/186/79 99/182/79 96/181/79
f 47/130/80 68/45/80 94/184/80 52/183/80
f 68/45/81 42/44/81 97/185/81 94/184/81
f 42/44/82 54/187/82 100/186/82 97/185/82
f 153/188/83 157/189/83 138/190/83 111/191/83
f 101/192/84 176/8/84 24/7/84 102/193/84
f 103/194/85 173/195/85 177/196/85 105/197/85
f 144/198/31 148/199/31 126/200/31 120/201/31
f 105/202/86 177/203/86 117/204/86 106/205/86
f 24/206/87 25/207/87 102/208/87
f 107/209/88 178/210/88 176/211/88 101/212/88
f 109/213/89 177/214/89 178/215/89 112/216/89
f 112/217/90 178/218/90 118/219/90 111/220/90
f 158/221/10 152/222/10 116/223/10 140/224/10
f 102/193/91 128/225/91 127/226/91 101/192/91
f 142/227/92 150/228/92 128/229/92 102/230/92
f 104/231/93 30/232/93 21/233/93
f 108/234/94 122/235/94 118/236/94
f 142/237/95 145/238/95 122/235/95 108/234/95
f 21/54/96 173/57/96 103/239/96 104/240/96
f 117/204/97 177/203/97 109/241/97 110/242/97
f 118/243/98 122/244/98 111/245/98
f 118/219/99 178/218/99 107/246/99 108/247/99
f 110/248/100 121/249/100 117/250/100
f 151/251/101 143/252/101 28/69/101 30/68/101
f 145/253/102 144/198/102 120/201/102 122/254/102
f 155/255/103 154/256/103 119/257/103 121/258/103
f 141/259/104 151/260/104 30/232/104 104/231/104
f 153/261/105 155/262/105 121/249/105 110/248/105
f 117/263/106 121/264/106 106/265/106
f 154/256/30 156/266/30 125/267/30 119/257/30
f 34/85/107 78/87/107 146/268/107
f 148/199/31 163/269/31 126/200/31
f 140/270/32 147/271/32 36/91/32 10/90/32
f 152/272/27 159/273/27 124/274/27 116/275/27
f 139/276/4 146/277/4 123/278/4 113/279/4
f 143/252/29 164/280/29 39/101/29 28/69/29
f 103/239/108 130/281/108 129/282/108 104/240/108
f 105/197/109 131/283/109 130/284/109 103/194/109
f 141/259/110 149/285/110 132/286/110 106/265/110
f 106/205/111 132/287/111 131/288/111 105/202/111
f 107/246/112 134/289/112 133/290/112 108/247/112
f 101/212/113 127/291/113 134/292/113 107/209/113
f 109/241/114 136/293/114 135/294/114 110/242/114
f 111/220/115 138/295/115 137/296/115 112/217/115
f 112/216/116 137/297/116 136/298/116 109/213/116
f 146/277/117 160/299/117 123/278/117
f 156/266/30 162/300/30 125/267/30
f 164/280/29 85/123/29 39/101/29
f 104/231/118 129/301/118 149/285/118 141/259/118
f 119/257/29 125/267/29 164/280/29 143/252/29
f 11/125/4 34/85/4 146/268/4 139/302/4
f 116/275/32 124/274/32 147/271/32 140/270/32
f 106/265/119 121/264/119 151/260/119 141/259/119
f 25/127/120 26/128/120 144/198/120 145/253/120
f 121/258/121 119/257/121 143/252/121 151/251/121
f 102/208/122 25/207/122 145/238/122 142/237/122
f 108/303/123 133/304/123 150/228/123 142/227/123
f 72/131/10 158/221/10 140/224/10 10/132/10
f 26/128/31 40/133/31 148/199/31 144/198/31
f 11/134/10 139/305/10 158/221/10 72/131/10
f 126/200/30 163/269/30 156/266/30
f 113/279/27 123/278/27 159/273/27 152/272/27
f 120/201/30 126/200/30 156/266/30 154/256/30
f 111/245/124 122/244/124 155/262/124 153/261/124
f 122/254/125 120/201/125 154/256/125 155/255/125
f 139/305/10 113/306/10 152/222/10 158/221/10
f 110/307/126 135/308/126 157/189/126 153/188/126
f 147/309/127 148/310/127 87/140/127 86/139/127
f 159/311/128 156/312/128 163/313/128 161/314/128
f 146/315/129 164/316/129 162/317/129 160/318/129
f 78/150/130 85/151/130 164/316/130 146/315/130
f 161/314/131 163/313/131 148/310/131 147/309/131
f 160/318/132 162/317/132 156/312/132 159/311/132
f 147/271/133 86/152/133 36/91/133
f 123/278/134 160/299/134 159/273/134
f 125/267/29 162/300/29 164/280/29
f 159/273/135 161/319/135 124/274/135
f 124/274/136 161/319/136 147/271/136
f 40/133/31 87/154/31 148/199/31
f 134/320/137 137/296/137 138/295/137 133/321/137
f 131/288/138 132/287/138 135/322/138 136/323/138
f 130/281/64 56/324/64 55/325/64 129/282/64
f 128/326/65 54/164/65 53/163/65 127/327/65
f 137/297/139 134/292/139 127/291/139 165/328/139
f 165/328/67 127/291/67 53/167/67 90/166/67
f 136/298/140 137/297/140 165/328/140 166/329/140
f 166/329/10 165/328/10 90/166/10 91/169/10
f 131/283/141 136/298/141 166/329/141 130/284/141
f 130/284/70 166/329/70 91/169/70 56/170/70
f 135/308/142 132/330/142 149/331/142 167/332/142
f 167/332/143 149/331/143 129/333/143 170/334/143
f 170/334/73 129/333/73 55/178/73 98/177/73
f 157/189/144 135/308/144 167/332/144 168/335/144
f 168/335/145 167/332/145 170/334/145 171/336/145
f 171/336/76 170/334/76 98/177/76 99/182/76
f 138/190/146 157/189/146 168/335/146 169/337/146
f 169/337/147 168/335/147 171/336/147 172/338/147
f 172/338/79 171/336/79 99/182/79 100/186/79
f 133/304/148 138/190/148 169/337/148 150/228/148
f 150/228/149 169/337/149 172/338/149 128/229/149
f 128/229/82 172/338/82 100/186/82 54/187/82
f 18/339/150 12/340/150 173/341/150 174/342/150
f 19/343/150 18/339/150 174/342/150 175/344/150
f 9/345/150 19/343/150 175/344/150 176/346/150
f 12/340/150 114/347/150 177/348/150 173/341/150
f 114/347/150 115/349/150 178/350/150 177/348/150
f 115/349/150 9/345/150 176/346/150 178/350/150
f 18/351/27 19/352/27 189/353/27 190/354/27
f 114/355/29 12/356/29 179/357/29 188/358/29
f 9/359/31 115/360/31 187/361/31 180/362/31
f 12/363/32 18/351/32 190/354/32 179/364/32
f 19/352/4 9/359/4 180/362/4 189/353/4
f 115/360/30 114/355/30 188/358/30 187/361/30
f 182/365/27 181/366/27 205/367/27 206/368/27
f 181/366/151 186/369/151 202/370/151 205/367/151
f 186/371/152 183/372/152 199/373/152 202/374/152
f 183/372/30 184/375/30 196/376/30 199/373/30
f 184/375/153 185/377/153 193/378/153 196/376/153
f 185/377/154 182/365/154 206/368/154 193/378/154
f 196/376/155 193/378/155 192/379/155 195/380/155
f 195/380/156 192/379/156 191/381/156 194/382/156
f 194/382/157 191/381/157 180/362/157 187/361/157
f 199/373/30 196/376/30 195/380/30 198/383/30
f 198/383/30 195/380/30 194/382/30 197/384/30
f 197/384/30 194/382/30 187/361/30 188/358/30
f 202/374/158 199/373/158 198/383/158 201/385/158
f 201/385/159 198/383/159 197/384/159 200/386/159
f 200/386/160 197/384/160 188/358/160 179/357/160
f 205/367/161 202/370/161 201/387/161 204/388/161
f 204/388/162 201/387/162 200/389/162 203/390/162
f 203/390/163 200/389/163 179/364/163 190/354/163
f 206/368/27 205/367/27 204/388/27 207/391/27
f 207/391/27 204/388/27 203/390/27 208/392/27
f 208/392/27 203/390/27 190/354/27 189/353/27
f 193/378/164 206/368/164 207/391/164 192/379/164
f 192/379/165 207/391/165 208/392/165 191/381/165
f 191/381/166 208/392/166 189/353/166 180/362/166
f 226/393/167 222/394/167 212/395/167 218/396/167
f 225/397/168 220/398/168 216/399/168 224/400/168
f 218/401/10 220/402/10 215/403/10 211/404/10
f 217/405/150 219/406/150 214/407/150 210/408/150
f 222/409/30 224/410/30 216/411/30 212/412/30
f 221/413/27 223/414/27 213/415/27 209/416/27
f 209/417/150 213/418/150 219/406/150 217/405/150
f 212/419/10 216/420/10 220/402/10 218/401/10
f 223/421/168 215/422/168 220/398/168 225/397/168
f 221/423/167 226/393/167 218/396/167 211/424/167
f 209/425/167 217/426/167 226/393/167 221/423/167
f 213/427/168 223/421/168 225/397/168 219/428/168
f 211/429/27 215/430/27 223/414/27 221/413/27
f 210/431/30 214/432/30 224/410/30 222/409/30
f 219/428/168 225/397/168 224/400/168 214/433/168
f 217/426/167 210/434/167 222/394/167 226/393/167
