# Blender 4.5.2 LTS
# www.blender.org
mtllib HormaLiburu.mtl
o Estanterias
v 4.000000 3.500000 -0.000001
v 4.000000 0.000000 -0.000001
v 4.000000 3.500000 0.499999
v 4.000000 0.000000 0.499999
v 0.000000 3.500000 -0.000000
v 0.000000 0.000000 -0.000000
v 0.000000 3.500000 0.500000
v 0.000000 0.000000 0.500000
v 4.000000 1.750000 -0.000001
v 0.000000 1.750000 -0.000000
v 4.000000 0.875000 -0.000001
v 4.000000 0.875000 0.499999
v 0.000000 0.875000 -0.000000
v 0.000000 0.875000 0.500000
v 4.000000 3.296032 -0.000001
v 0.000000 3.296032 -0.000000
v 4.000000 0.437500 -0.000001
v 4.000000 0.437500 0.499999
v 0.000000 0.437500 -0.000000
v 0.000000 0.437500 0.500000
v 4.000000 3.296032 0.453000
v 4.000000 1.750000 0.453000
v 0.000000 1.750000 0.453000
v 4.000000 0.875000 0.453000
v 0.000000 0.875000 0.453000
v 0.000000 3.296032 0.452669
v 0.000000 3.500000 0.452669
v 0.000000 0.000000 0.453000
v 0.000000 0.437500 0.453000
v 4.000000 3.500000 0.453000
v 4.000000 0.437500 0.453000
v 4.000000 0.000000 0.453000
v 0.000000 3.296032 0.495212
v 0.000000 3.300820 0.500000
v 4.000000 3.300820 0.499999
v 4.000000 3.296032 0.495212
v 0.237983 3.296032 0.495212
v 0.237983 3.296032 0.452689
v 0.237983 0.875000 0.453000
v 0.237983 0.437500 0.500000
v 0.237983 3.500000 0.500000
v 0.237983 3.300820 0.500000
v 0.237983 0.875000 0.500000
v 0.237983 0.000000 0.500000
v 0.237983 1.750000 0.453000
v 1.951932 3.500000 0.499999
v 2.048068 3.500000 0.499999
v 2.048068 0.000000 0.499999
v 1.951932 0.000000 0.499999
v 1.951932 0.875000 0.499999
v 2.048068 0.875000 0.499999
v 2.048068 0.437500 0.499999
v 1.951932 0.437500 0.499999
v 1.951932 1.750000 0.453000
v 2.048068 1.750000 0.453000
v 2.048068 0.875000 0.453000
v 1.951932 0.875000 0.453000
v 1.951932 3.296032 0.452831
v 2.048068 3.296032 0.452839
v 1.951932 3.300820 0.499999
v 2.048068 3.300820 0.499999
v 2.048068 3.296032 0.495212
v 1.951932 3.296032 0.495212
v 0.951932 3.500000 0.500000
v 1.048068 3.500000 0.500000
v 0.951932 0.875000 0.500000
v 1.048068 0.875000 0.500000
v 1.048068 0.437500 0.500000
v 0.951932 0.437500 0.500000
v 0.951932 1.750000 0.453000
v 1.048068 1.750000 0.453000
v 1.048068 0.875000 0.453000
v 0.951932 0.875000 0.453000
v 0.951932 3.296032 0.452748
v 1.048068 3.296032 0.452756
v 0.951932 3.300820 0.500000
v 1.048068 3.300820 0.500000
v 1.048068 0.000000 0.500000
v 0.951932 0.000000 0.500000
v 1.048068 3.296032 0.495212
v 0.951932 3.296032 0.495212
v 3.048068 0.000000 0.499999
v 2.951932 0.000000 0.499999
v 2.951932 3.296032 0.495212
v 3.048068 3.296032 0.495212
v 2.951932 3.500000 0.499999
v 3.048068 3.500000 0.499999
v 3.048068 0.875000 0.499999
v 2.951932 0.875000 0.499999
v 2.951932 0.437500 0.499999
v 3.048068 0.437500 0.499999
v 3.048068 1.750000 0.453000
v 2.951932 1.750000 0.453000
v 2.951932 0.875000 0.453000
v 3.048068 0.875000 0.453000
v 3.048068 3.296032 0.452921
v 2.951932 3.296032 0.452913
v 3.048068 3.300820 0.499999
v 2.951932 3.300820 0.499999
v 3.762017 0.875000 0.453000
v 3.762017 3.296032 0.495212
v 3.762017 3.300820 0.499999
v 3.762017 0.437500 0.499999
v 3.762017 3.500000 0.499999
v 3.762017 0.000000 0.499999
v 3.762017 3.296032 0.452980
v 3.762017 0.875000 0.499999
v 3.762017 1.750000 0.453000
v 1.500000 3.300820 0.500000
v 1.500000 3.500000 0.500000
v 1.500000 0.000000 0.500000
v 1.500000 0.437500 0.500000
v 1.500000 0.875000 0.500000
v 1.500000 0.875000 0.453000
v 1.500000 3.296032 0.452793
v 1.500000 3.296032 0.495212
v 2.500000 3.300820 0.499999
v 2.500000 3.500000 0.499999
v 2.500000 0.000000 0.499999
v 2.500000 0.437500 0.499999
v 2.500000 0.875000 0.499999
v 2.500000 0.875000 0.453000
v 2.500000 3.296032 0.452876
v 2.500000 3.296032 0.495212
v 3.405043 0.000000 0.499999
v 3.405043 0.875000 0.499999
v 3.405043 3.296032 0.452951
v 3.405043 3.500000 0.499999
v 3.405043 0.437500 0.499999
v 3.405043 3.296032 0.495212
v 3.405043 3.300820 0.499999
v 3.405043 0.875000 0.453000
v 0.594958 3.296032 0.495212
v 0.594958 0.875000 0.453000
v 0.594958 3.296032 0.452719
v 0.594958 3.500000 0.500000
v 0.594958 3.300820 0.500000
v 0.594958 0.875000 0.500000
v 0.594958 0.437500 0.500000
v 0.594958 0.000000 0.500000
v 4.000000 3.050363 -0.000001
v 0.000000 3.050363 -0.000000
v 4.000000 3.050363 0.453000
v 0.000000 3.050363 0.452722
v 0.237983 3.050363 0.452739
v 1.951932 3.050363 0.452858
v 2.048068 3.050363 0.452864
v 0.951932 3.050363 0.452788
v 1.048068 3.050363 0.452795
v 2.951932 3.050363 0.452927
v 3.048068 3.050363 0.452934
v 3.762017 3.050363 0.452983
v 1.500000 3.162160 0.452826
v 2.500000 3.162160 0.452896
v 3.405043 3.162160 0.452958
v 0.594958 3.162160 0.452763
v 0.237989 1.749981 0.399670
v 0.237989 0.874981 0.399669
v 3.405049 1.749981 0.399669
v 3.762023 1.749981 0.399669
v 0.237989 3.050344 0.399408
v 0.594964 0.874981 0.399669
v 1.951939 3.050344 0.399527
v 1.951939 1.749981 0.399669
v 1.951939 0.874981 0.399669
v 2.048074 0.874981 0.399669
v 2.048074 1.749981 0.399669
v 0.951938 3.050344 0.399457
v 0.951938 1.749981 0.399669
v 0.951938 0.874981 0.399669
v 1.048074 0.874981 0.399669
v 1.048074 1.749981 0.399669
v 2.951938 1.749981 0.399669
v 2.951938 0.874981 0.399669
v 3.048074 0.874981 0.399669
v 3.048074 1.749981 0.399669
v 2.951938 3.050344 0.399596
v 2.500006 0.874981 0.399669
v 1.500006 0.874981 0.399669
v 2.500006 1.749981 0.399669
v 1.500006 1.749981 0.399669
v 0.594964 1.749981 0.399669
v 3.405049 0.874981 0.399669
v 3.762023 3.050344 0.399652
v 3.762023 0.874981 0.399669
v 1.500006 3.162141 0.399495
v 2.500006 3.162141 0.399565
v 0.594964 3.162141 0.399433
v 2.048074 3.050344 0.399533
v 1.048074 3.050344 0.399464
v 3.048074 3.050344 0.399603
v 3.405049 3.162141 0.399628
v 4.000000 2.429462 -0.000001
v 0.000000 2.429462 -0.000000
v 4.000000 2.429462 0.453000
v 0.237983 2.429462 0.452864
v 1.951932 2.429462 0.452926
v 0.951932 2.429462 0.452889
v 2.951932 2.429462 0.452962
v 3.762017 2.429462 0.452991
v 0.000000 2.429462 0.452855
v 2.048068 2.429462 0.452929
v 1.048068 2.429462 0.452893
v 3.048068 2.429462 0.452965
v 0.237989 2.429442 0.399533
v 1.951939 2.429442 0.399595
v 0.951938 2.429442 0.399559
v 2.951938 2.429442 0.399631
v 3.762023 2.429442 0.399660
v 1.500006 2.487858 0.399578
v 2.500006 2.487858 0.399615
v 0.594964 2.487858 0.399546
v 2.048074 2.429442 0.399598
v 1.048074 2.429442 0.399562
v 3.048074 2.429442 0.399634
v 3.405049 2.487858 0.399647
v 4.000000 2.161152 -0.000001
v 0.000000 2.161152 -0.000000
v 4.000000 2.161152 0.453000
v 0.237983 2.161152 0.452918
v 1.951932 2.161152 0.452955
v 0.951932 2.161152 0.452933
v 2.951932 2.161152 0.452977
v 3.762017 2.161152 0.452995
v 0.237989 2.161132 0.399587
v 1.951939 2.161132 0.399624
v 0.951938 2.161132 0.399602
v 2.951938 2.161132 0.399646
v 3.762023 2.161132 0.399664
v 1.500006 2.196481 0.399614
v 2.500006 2.196481 0.399636
v 0.594964 2.196481 0.399595
v 0.000000 2.161152 0.452912
v 2.048068 2.161152 0.452957
v 1.048068 2.161152 0.452935
v 3.048068 2.161152 0.452979
v 2.048074 2.161132 0.399626
v 1.048074 2.161132 0.399604
v 3.048074 2.161132 0.399648
v 3.405049 2.196481 0.399656
v 0.237983 2.161150 0.430210
v 0.237983 1.749998 0.430293
v 1.951932 2.161150 0.430247
v 1.951932 1.749998 0.430293
v 0.951932 2.161150 0.430226
v 0.951932 1.749998 0.430293
v 2.951932 2.161150 0.430269
v 2.951932 1.749998 0.430292
v 1.048075 1.749978 0.376962
v 1.048068 1.749998 0.430293
v 3.762017 2.161150 0.430287
v 3.762017 1.749998 0.430292
v 1.951939 1.749978 0.376962
v 0.951939 1.749978 0.376962
v 0.237990 1.749978 0.376962
v 2.951939 1.749978 0.376961
v 2.048075 1.749978 0.376962
v 2.048068 1.749998 0.430293
v 3.762024 1.749978 0.376961
v 3.048075 1.749978 0.376961
v 3.048068 1.749998 0.430292
v 2.048068 2.161150 0.430250
v 1.048068 2.161150 0.430228
v 3.048068 2.161150 0.430271
v 1.951939 2.161130 0.376917
v 0.951939 2.161130 0.376895
v 3.762024 2.161130 0.376956
v 2.951939 2.161130 0.376938
v 3.048075 2.161130 0.376941
v 0.237990 2.161130 0.376879
v 1.048075 2.161130 0.376897
v 2.048075 2.161130 0.376919
v 2.000000 3.500000 0.499999
v 2.000000 3.300820 0.499999
v 2.000000 3.296032 0.495212
v 2.000000 3.296032 0.452835
v 2.000000 0.875000 0.499999
v 2.000000 0.875000 0.453000
v 2.000000 1.750000 0.453000
v 2.000000 0.437500 0.499999
v 2.000000 0.000000 0.499999
v 2.000000 3.050363 0.452861
v 2.000000 2.429462 0.452927
v 2.000000 2.161152 0.452956
vn 1.0000 -0.0000 -0.0000
vn -0.0000 -0.0000 -1.0000
vn -0.0000 -1.0000 -0.0000
vn -1.0000 -0.0000 -0.0000
vn -0.0000 -0.0000 1.0000
vn -0.0000 1.0000 -0.0000
vn -0.0001 0.0002 1.0000
vn -0.0000 -0.7071 0.7071
vn -0.0001 -0.0000 1.0000
vn 1.0000 -0.0000 0.0001
vn -1.0000 -0.0000 -0.0001
vn -0.2401 -0.9707 0.0003
vn -0.0000 0.0001 1.0000
vn -0.0000 0.0002 1.0000
vn -0.0001 0.0001 1.0000
vn -0.0000 1.0000 -0.0004
vn 0.2989 -0.9543 0.0004
vn -0.2989 -0.9543 0.0003
vn 0.2401 -0.9707 0.0004
vn 0.9232 0.3844 -0.0000
vn -0.0000 -1.0000 0.0001
vn -0.9227 -0.3855 -0.0000
vn 0.9198 0.3923 -0.0000
vn -0.9198 -0.3923 -0.0000
vn 0.9227 0.3855 -0.0000
vn -0.0000 -1.0000 0.0004
vn -0.0000 1.0000 -0.0001
vn 0.9231 0.3845 -0.0000
vn 0.9231 0.3845 -0.0001
vn 0.9259 0.3779 -0.0000
vn -0.9198 -0.3923 0.0001
vn -0.9232 -0.3844 -0.0000
vt 0.498575 0.801309
vt 0.498575 0.815878
vt 0.277949 0.815878
vt 0.277948 0.801309
vt 0.748575 0.801309
vt 0.748575 0.815878
vt 0.157694 0.871652
vt 0.157694 0.808017
vt 0.448597 0.808017
vt 0.448597 0.871652
vt 0.207228 0.860999
vt 0.176804 0.860999
vt 0.176804 0.804899
vt 0.207228 0.804899
vt 0.249572 0.801309
vt 0.234639 0.801309
vt 0.233701 0.801309
vt 0.248575 0.801309
vt 0.404829 0.845659
vt 0.350648 0.845659
vt 0.350648 0.789558
vt 0.404829 0.789558
vt -0.007962 0.812603
vt -0.007962 0.762809
vt 0.447301 0.762809
vt 0.447301 0.812603
vt 0.448597 0.758552
vt 0.448597 0.776419
vt 0.157694 0.776419
vt 0.157694 0.758552
vt 0.974910 0.801309
vt 0.974910 0.815878
vt 0.476630 0.804899
vt 0.476630 0.860999
vt 0.368268 0.860999
vt 0.368268 0.804899
vt -0.007962 0.862397
vt 0.447301 0.862397
vt 0.459010 0.845659
vt 0.459010 0.789558
vt 0.350440 0.845659
vt 0.296259 0.845659
vt 0.296259 0.839839
vt 0.350440 0.839839
vt 0.228124 0.189629
vt 0.178805 0.189629
vt 0.178805 0.129185
vt 0.228124 0.129185
vt 0.423399 0.123122
vt 0.467345 0.123122
vt 0.467345 0.128908
vt 0.423399 0.128908
vt 0.229314 0.249749
vt 0.229314 0.189936
vt 0.180510 0.189936
vt 0.180510 0.249749
vt 0.558345 0.854167
vt 0.558345 0.871438
vt 0.512291 0.871438
vt 0.512291 0.839744
vt 0.242078 0.845659
vt 0.242078 0.839839
vt 0.334564 0.867151
vt 0.283646 0.867151
vt 0.283646 0.811050
vt 0.334564 0.811061
vt 0.175284 0.867151
vt 0.175284 0.811050
vt 0.296259 0.783738
vt 0.350440 0.783738
vt 0.242078 0.783738
vt 0.404829 0.783738
vt 0.459010 0.783738
vt 0.350648 0.783738
vt 0.035908 0.801309
vt 0.035760 0.801309
vt 0.058071 0.801309
vt 0.058308 0.801309
vt 0.996181 0.801309
vt 0.998575 0.801651
vt 0.998575 0.815878
vt 0.035760 0.801651
vt 0.013449 0.801651
vt 0.013508 0.801309
vt 0.248575 0.815878
vt 0.248575 0.801651
vt 0.077459 0.123122
vt 0.121405 0.123122
vt 0.121405 0.128908
vt 0.077459 0.128908
vt 0.229314 0.130123
vt 0.278118 0.189936
vt 0.278118 0.130123
vt 0.212239 0.801309
vt 0.189839 0.801309
vt 0.189079 0.801309
vt 0.211390 0.801309
vt 0.310322 0.189629
vt 0.310322 0.250073
vt 0.277443 0.250073
vt 0.277443 0.189629
vt 0.967316 0.869193
vt 0.967316 0.756307
vt 0.998018 0.756307
vt 0.998018 0.869193
vt 0.310322 0.129185
vt 0.277443 0.129185
vt 0.233701 0.801651
vt 0.233701 0.815878
vt 0.997636 0.839744
vt 0.997636 0.871438
vt 0.966934 0.871438
vt 0.966934 0.839744
vt 0.228124 0.250073
vt 0.178805 0.250073
vt 0.211390 0.801651
vt 0.189079 0.801651
vt 0.211390 0.815878
vt 0.189079 0.815878
vt 0.280423 0.783366
vt 0.390450 0.783406
vt 0.390450 0.790112
vt 0.280423 0.790072
vt 0.390450 0.783142
vt 0.280423 0.783182
vt 0.280423 0.776476
vt 0.390450 0.776436
vt 0.116908 0.783233
vt 0.058367 0.783240
vt 0.058367 0.776534
vt 0.116908 0.776526
vt 0.004216 0.123122
vt 0.033513 0.123122
vt 0.033513 0.128908
vt 0.004216 0.128908
vt 0.123575 0.815878
vt 0.123575 0.801651
vt 0.126579 0.801651
vt 0.126579 0.815878
vt 0.124074 0.801309
vt 0.123575 0.801309
vt 0.126579 0.801309
vt 0.127090 0.801309
vt 0.250429 0.123122
vt 0.250429 0.128908
vt 0.244512 0.128908
vt 0.244512 0.123122
vt 0.741048 0.791356
vt 0.741048 0.844400
vt 0.734846 0.844400
vt 0.734846 0.791356
vt 0.738482 0.756307
vt 0.738482 0.869193
vt 0.732280 0.869193
vt 0.732280 0.756307
vt 0.034007 0.189629
vt 0.034007 0.129185
vt 0.040648 0.129185
vt 0.040648 0.189629
vt 0.034007 0.250073
vt 0.040648 0.250073
vt 0.133240 0.123122
vt 0.133240 0.128908
vt 0.058071 0.815878
vt 0.058071 0.801651
vt 0.064079 0.801651
vt 0.064079 0.815878
vt 0.064079 0.801309
vt 0.064340 0.801309
vt 0.617825 0.791356
vt 0.617825 0.844400
vt 0.605422 0.844400
vt 0.605422 0.791356
vt 0.619841 0.756307
vt 0.619841 0.869193
vt 0.607438 0.869193
vt 0.607438 0.756307
vt 0.180510 0.130123
vt 0.167366 0.130123
vt 0.167366 0.189936
vt 0.167366 0.249749
vt 0.165523 0.250073
vt 0.165523 0.189629
vt 0.165523 0.129185
vt 0.877337 0.756307
vt 0.877337 0.869193
vt 0.864935 0.869193
vt 0.864935 0.756307
vt 0.877289 0.791356
vt 0.877289 0.844400
vt 0.864886 0.844400
vt 0.864886 0.791356
vt 0.183070 0.801651
vt 0.183807 0.801309
vt 0.183071 0.801309
vt 0.183071 0.815878
vt 0.379453 0.123122
vt 0.379453 0.128908
vt 0.367618 0.128908
vt 0.367618 0.123122
vt 0.154825 0.801651
vt 0.154825 0.815878
vt 0.092325 0.801651
vt 0.092325 0.815878
vt 0.673298 0.853934
vt 0.010357 0.853934
vt 0.010357 0.778911
vt 0.010357 0.771066
vt 0.049799 0.771066
vt 0.108963 0.771066
vt 0.168126 0.771066
vt 0.184059 0.771066
vt 0.258960 0.771066
vt 0.333861 0.771066
vt 0.341828 0.771066
vt 0.349794 0.771066
vt 0.424695 0.771066
vt 0.499597 0.771066
vt 0.515530 0.771066
vt 0.574693 0.771066
vt 0.633856 0.771066
vt 0.673298 0.771066
vt 0.673298 0.778856
vt 0.105580 0.130123
vt 0.105580 0.189936
vt 0.103086 0.129185
vt 0.103086 0.189629
vt 0.311983 0.123122
vt 0.311983 0.128908
vt 0.188876 0.123122
vt 0.188876 0.128908
vt 0.103086 0.250073
vt 0.105580 0.249749
vt 0.292363 0.824625
vt 0.402390 0.824666
vt 0.402390 0.831372
vt 0.292363 0.831331
vt 0.390450 0.796906
vt 0.280423 0.796946
vt 0.280423 0.790240
vt 0.390450 0.790200
vt 0.804118 0.854167
vt 0.804118 0.871438
vt 0.745814 0.871438
vt 0.745814 0.839744
vt 0.675106 0.854167
vt 0.675106 0.871438
vt 0.616802 0.871438
vt 0.616802 0.839744
vt 0.155448 0.801309
vt 0.154825 0.801309
vt 0.092699 0.801309
vt 0.092325 0.801309
vt 0.013449 0.815878
vt -0.001425 0.815878
vt -0.001425 0.801651
vt 0.278118 0.249749
vt 0.310654 0.249749
vt 0.310654 0.189936
vt 0.310654 0.130123
vt 0.481588 0.871438
vt 0.481588 0.839744
vt 0.483504 0.869193
vt 0.483504 0.756307
vt 0.514207 0.756307
vt 0.514207 0.869193
vt -0.001425 0.801309
vt 0.013449 0.801309
vt 0.496643 0.123122
vt 0.496643 0.128908
vt 0.035760 0.815878
vt 0.120571 0.801651
vt 0.121057 0.801309
vt 0.120571 0.801309
vt 0.733411 0.839744
vt 0.733411 0.871438
vt 0.447278 0.796913
vt 0.447278 0.790207
vt 0.043794 0.189936
vt 0.043794 0.249749
vt 0.043794 0.130123
vt 0.120571 0.815878
vt 0.862423 0.839744
vt 0.862423 0.871438
vt 0.081811 0.810840
vt 0.128849 0.810843
vt 0.128849 0.817549
vt 0.081811 0.817546
vt 0.256347 0.123122
vt 0.256347 0.128908
vt 0.280423 0.797114
vt 0.390450 0.797154
vt 0.390450 0.803860
vt 0.280423 0.803820
vt 0.128848 0.824506
vt 0.081811 0.824513
vt 0.081811 0.817807
vt 0.128848 0.817800
vt 0.402390 0.824433
vt 0.292363 0.824473
vt 0.292363 0.817767
vt 0.402390 0.817727
vt 0.604399 0.839744
vt 0.604399 0.871438
vt 0.402390 0.810935
vt 0.447278 0.810940
vt 0.447278 0.817646
vt 0.402390 0.817641
vt 0.874826 0.871438
vt 0.874826 0.839744
vt 0.920880 0.854167
vt 0.920880 0.871438
vt 0.081811 0.824594
vt 0.128848 0.824598
vt 0.128848 0.831304
vt 0.081811 0.831301
vt 0.194983 0.796968
vt 0.116908 0.796988
vt 0.116908 0.790282
vt 0.194983 0.790262
vt 0.512291 0.759640
vt 0.481588 0.759640
vt 0.447278 0.810660
vt 0.402390 0.810654
vt 0.402390 0.803948
vt 0.447278 0.803954
vt 0.206924 0.824491
vt 0.206924 0.817784
vt 0.739612 0.871438
vt 0.739612 0.839744
vt 0.997636 0.759640
vt 0.966934 0.759640
vt 0.475111 0.867151
vt 0.444686 0.867151
vt 0.444686 0.811085
vt 0.475111 0.811091
vt 0.128848 0.810752
vt 0.081811 0.810759
vt 0.081811 0.804053
vt 0.128848 0.804046
vt 0.157694 0.872890
vt 0.157694 0.827734
vt 0.448597 0.827734
vt 0.448597 0.872890
vt 0.284122 0.860999
vt 0.284122 0.804899
vt 0.059130 0.880968
vt 0.059130 0.826349
vt 0.102797 0.826349
vt 0.102797 0.876644
vt 0.369046 0.985156
vt 0.325379 0.985155
vt 0.325379 0.878119
vt 0.369046 0.878119
vt 0.279203 0.877342
vt 0.279203 0.984378
vt 0.235535 0.984378
vt 0.235535 0.877342
vt 0.181830 0.879107
vt 0.181830 0.986144
vt 0.126547 0.986144
vt 0.126547 0.879108
vt 0.074608 0.879108
vt 0.074608 0.986144
vt 0.019324 0.986144
vt 0.019324 0.879108
vt 0.129891 0.879108
vt 0.129891 0.986144
vt 0.237114 0.879107
vt 0.237114 0.986144
vt 0.412714 0.985156
vt 0.412714 0.878119
vt 0.015462 0.876644
vt 0.015462 0.826349
vt 0.322870 0.877342
vt 0.322870 0.984378
vt 0.411115 0.908605
vt 0.411115 0.984558
vt 0.367448 0.998234
vt 0.367448 0.915751
vt 0.323594 0.908605
vt 0.323594 0.984558
vt 0.268310 0.998234
vt 0.268310 0.915751
vt 0.212840 0.908605
vt 0.212840 0.984558
vt 0.157557 0.998234
vt 0.157557 0.915751
vt 0.102273 0.984558
vt 0.102273 0.908605
vt 0.213027 0.984558
vt 0.213027 0.908605
vt 0.323780 0.984558
vt 0.323780 0.908605
vt 0.206924 0.810725
vt 0.206924 0.804018
vt 0.058367 0.796996
vt 0.058367 0.790290
vt 0.447278 0.783413
vt 0.447278 0.790119
vt 0.292363 0.810894
vt 0.292363 0.817601
vt 0.058367 0.797077
vt 0.116908 0.797079
vt 0.116908 0.803785
vt 0.058367 0.803783
vt 0.447278 0.783149
vt 0.447278 0.776443
vt 0.447278 0.797161
vt 0.447278 0.803867
vt 0.058366 0.783321
vt 0.116908 0.783324
vt 0.116908 0.790030
vt 0.058366 0.790028
vt 0.194983 0.783208
vt 0.194983 0.776502
vt 0.747249 0.844400
vt 0.747249 0.791356
vt 0.292363 0.810694
vt 0.292363 0.803988
vt 0.447278 0.824439
vt 0.447278 0.817733
vt 0.447278 0.824671
vt 0.447278 0.831377
vt 0.206924 0.810868
vt 0.206924 0.817574
vt 0.228722 0.783198
vt 0.228722 0.776492
vt 0.206924 0.824611
vt 0.206924 0.831317
vt 0.194983 0.797096
vt 0.194983 0.803802
vt 0.194983 0.783344
vt 0.194983 0.790050
vt 0.240663 0.810713
vt 0.240663 0.804007
vt 0.367448 0.880108
vt 0.323780 0.875783
vt 0.268310 0.880108
vt 0.213027 0.875784
vt 0.157557 0.880108
vt 0.102273 0.875784
vt 0.212840 0.875784
vt 0.323594 0.875783
vt 0.411115 0.875784
vt 0.015462 0.985418
vt 0.015462 0.909465
vt 0.059130 0.916611
vt 0.059130 0.999094
vt 0.102797 0.909465
vt 0.102797 0.985418
vt 0.317350 0.860999
vt 0.317350 0.804899
vt 0.157694 0.773136
vt 0.157694 0.753623
vt 0.448597 0.753623
vt 0.448597 0.773136
vt 0.963551 0.791356
vt 0.963551 0.756741
vt 0.994253 0.756741
vt 0.994253 0.791356
vt 0.240663 0.824484
vt 0.240663 0.817778
vt 0.480845 0.791356
vt 0.480845 0.756741
vt 0.511548 0.756741
vt 0.511548 0.791356
vt 0.228722 0.796960
vt 0.228722 0.790253
vt 0.862423 0.759640
vt 0.874826 0.759640
vt 0.604399 0.759640
vt 0.616802 0.759640
vt 0.739612 0.759640
vt 0.745814 0.759640
vt 0.367792 0.867151
vt 0.367792 0.811068
vt 0.480845 0.844400
vt 0.511548 0.844400
vt 0.000000 0.000000
vt 0.963551 0.844400
vt 0.994254 0.844400
vt 0.157694 0.803038
vt 0.448597 0.803038
vt 0.411115 0.825489
vt 0.367448 0.825489
vt 0.323594 0.825489
vt 0.268310 0.825489
vt 0.212840 0.825489
vt 0.157557 0.825489
vt 0.102273 0.825489
vt 0.213027 0.825489
vt 0.323780 0.825489
vt 0.240663 0.810878
vt 0.240663 0.817584
vt 0.240663 0.824616
vt 0.240663 0.831322
vt 0.228722 0.797103
vt 0.228722 0.803809
vt 0.228722 0.783353
vt 0.228722 0.790059
vt 0.877289 0.756741
vt 0.864886 0.756741
vt 0.617825 0.756741
vt 0.605422 0.756741
vt 0.741048 0.756741
vt 0.734846 0.756741
vt 0.886417 0.758593
vt 0.886417 0.870530
vt 0.879812 0.870531
vt 0.879812 0.758594
vt 0.950608 0.758593
vt 0.950608 0.847011
vt 0.944004 0.847011
vt 0.944004 0.758594
vt 0.893085 0.847011
vt 0.893085 0.758594
vt 0.828894 0.870531
vt 0.828894 0.758594
vt 0.815620 0.758594
vt 0.815620 0.870531
vt 0.764702 0.870531
vt 0.764702 0.758594
vt 0.754523 0.764639
vt 0.754523 0.853057
vt 0.703605 0.853057
vt 0.703605 0.764639
vt 0.822225 0.758593
vt 0.822225 0.870531
vt 0.697000 0.853058
vt 0.697000 0.764640
vt 0.761128 0.764640
vt 0.761128 0.853058
vt 0.758097 0.870530
vt 0.758097 0.758593
vt 0.822289 0.870530
vt 0.822289 0.758593
vt 0.886481 0.847011
vt 0.886481 0.758593
vt 0.747249 0.756741
vt 0.733411 0.759640
vt 0.037222 0.189936
vt 0.037222 0.249749
vt 0.037222 0.130123
vt 0.744683 0.756307
vt 0.744683 0.869193
s 0
usemtl Material.001
f 15/1/1 1/2/1 30/3/1 21/4/1
f 16/5/2 5/6/2 1/2/2 15/1/2
f 13/7/2 10/8/2 9/9/2 11/10/2
f 141/11/1 15/12/1 21/13/1 143/14/1
f 36/15/3 101/16/3 106/17/3 21/18/3
f 17/19/1 11/20/1 24/21/1 31/22/1
f 19/23/2 13/24/2 11/25/2 17/26/2
f 142/27/2 16/28/2 15/29/2 141/30/2
f 26/31/4 27/32/4 5/6/4 16/5/4
f 24/33/1 11/34/1 9/35/1 22/36/1
f 6/37/2 19/23/2 17/26/2 2/38/2
f 2/39/1 17/19/1 31/22/1 32/40/1
f 8/41/4 20/42/4 29/43/4 28/44/4
f 129/45/5 91/46/5 82/47/5 125/48/5
f 126/49/6 107/50/6 100/51/6 132/52/6
f 138/53/5 139/54/5 69/55/5 66/56/5
f 156/57/7 135/58/7 38/59/7 145/60/7
f 20/42/4 14/61/4 25/62/4 29/43/4
f 218/63/4 10/64/4 23/65/4 233/66/4
f 10/64/4 13/67/4 25/68/4 23/65/4
f 28/44/4 29/43/4 19/69/4 6/70/4
f 29/43/4 25/62/4 13/71/4 19/69/4
f 32/40/1 31/22/1 18/72/1 4/73/1
f 31/22/1 24/21/1 12/74/1 18/72/1
f 133/75/3 135/76/3 74/77/3 81/78/3
f 33/79/4 34/80/4 7/81/4 27/32/4 26/31/4
f 137/82/8 42/83/8 37/84/8 133/75/8
f 21/4/1 30/3/1 3/85/1 35/86/1 36/15/1
f 138/87/6 66/88/6 73/89/6 134/90/6
f 140/91/5 139/54/5 40/92/5 44/93/5
f 130/94/3 85/95/3 96/96/3 127/97/3
f 18/98/5 12/99/5 107/100/5 103/101/5
f 24/102/5 22/103/5 108/104/5 100/105/5
f 4/106/5 18/98/5 103/101/5 105/107/5
f 35/86/8 102/108/8 101/16/8 36/15/8
f 35/86/5 3/85/5 104/109/5 102/108/5
f 143/110/9 21/111/9 106/112/9 152/113/9
f 126/114/5 88/115/5 91/46/5 129/45/5
f 131/116/8 98/117/8 85/95/8 130/94/8
f 128/118/5 87/119/5 98/117/5 131/116/5
f 55/120/10 56/121/10 166/122/10 167/123/10
f 94/124/11 93/125/11 173/126/11 174/127/11
f 150/128/12 154/129/12 187/130/12 177/131/12
f 14/132/6 43/133/6 39/134/6 25/135/6
f 273/136/5 274/137/5 61/138/5 47/139/5
f 275/140/3 276/141/3 59/142/3 62/143/3
f 274/137/8 275/140/8 62/143/8 61/138/8
f 277/144/6 278/145/6 57/146/6 50/147/6
f 284/148/13 279/149/13 55/150/13 234/151/13
f 279/152/5 278/153/5 56/154/5 55/155/5
f 280/156/5 281/157/5 48/158/5 52/159/5
f 277/160/5 280/156/5 52/159/5 51/161/5
f 67/162/6 72/163/6 73/89/6 66/88/6
f 64/164/5 76/165/5 77/166/5 65/167/5
f 81/78/3 74/77/3 75/168/3 80/169/3
f 76/165/8 81/78/8 80/169/8 77/166/8
f 222/170/14 70/171/14 71/172/14 235/173/14
f 70/174/5 73/175/5 72/176/5 71/177/5
f 69/55/5 79/178/5 78/179/5 68/180/5
f 66/56/5 69/55/5 68/180/5 67/181/5
f 89/182/5 90/183/5 91/46/5 88/115/5
f 90/183/5 83/184/5 82/47/5 91/46/5
f 93/185/5 94/186/5 95/187/5 92/188/5
f 223/189/13 93/190/13 92/191/13 236/192/13
f 99/193/8 84/194/8 85/95/8 98/117/8
f 84/194/3 97/195/3 96/96/3 85/95/3
f 86/196/5 99/193/5 98/117/5 87/119/5
f 88/197/6 95/198/6 94/199/6 89/200/6
f 117/201/5 118/202/5 47/139/5 61/138/5
f 109/203/5 110/204/5 65/167/5 77/166/5
f 1/205/6 5/206/6 27/207/6 7/208/6 41/209/6 136/210/6 64/211/6 65/212/6 110/213/6 46/214/6 273/215/6 47/216/6 118/217/6 86/218/6 87/219/6 128/220/6 104/221/6 3/222/6 30/223/6
f 111/224/5 112/225/5 68/180/5 78/179/5
f 119/226/5 120/227/5 52/159/5 48/158/5
f 121/228/6 89/200/6 94/199/6 122/229/6
f 113/230/6 50/147/6 57/146/6 114/231/6
f 120/227/5 121/232/5 51/161/5 52/159/5
f 112/225/5 113/233/5 67/181/5 68/180/5
f 45/234/10 39/235/10 158/236/10 157/237/10
f 57/238/11 54/239/11 164/240/11 165/241/11
f 154/242/15 123/243/15 59/244/15 147/245/15
f 153/246/7 115/247/7 75/248/7 149/249/7
f 124/250/3 62/143/3 59/142/3 123/251/3
f 116/252/3 80/169/3 75/168/3 115/253/3
f 117/201/8 61/138/8 62/143/8 124/250/8
f 109/203/8 77/166/8 80/169/8 116/252/8
f 42/83/5 41/254/5 7/255/5 34/256/5
f 40/92/5 43/257/5 14/258/5 20/259/5
f 44/93/5 40/92/5 20/259/5 8/260/5
f 145/60/7 38/59/7 26/261/7 144/262/7
f 39/263/5 45/264/5 23/265/5 25/266/5
f 37/84/3 33/267/3 26/267/3 38/268/3
f 42/83/8 34/256/8 33/267/8 37/84/8
f 107/50/6 12/269/6 24/270/6 100/51/6
f 137/82/5 136/271/5 41/254/5 42/83/5
f 60/272/8 109/203/8 116/252/8 63/273/8
f 63/273/3 116/252/3 115/253/3 58/274/3
f 146/275/7 58/276/7 115/247/7 153/246/7
f 114/277/16 57/238/16 165/241/16 179/278/16
f 53/279/5 50/280/5 113/233/5 112/225/5
f 67/162/6 113/230/6 114/231/6 72/163/6
f 49/281/5 53/279/5 112/225/5 111/224/5
f 60/272/5 46/282/5 110/204/5 109/203/5
f 99/193/8 117/201/8 124/250/8 84/194/8
f 84/194/3 124/250/3 123/251/3 97/195/3
f 150/283/15 97/284/15 123/243/15 154/242/15
f 155/285/17 151/286/17 191/287/17 192/288/17
f 90/183/5 89/182/5 121/232/5 120/227/5
f 51/289/6 121/228/6 122/229/6 56/290/6
f 83/184/5 90/183/5 120/227/5 119/226/5
f 99/193/5 86/196/5 118/202/5 117/201/5
f 71/291/10 72/292/10 171/293/10 172/294/10
f 148/295/18 156/296/18 188/297/18 168/298/18
f 104/109/5 128/118/5 131/116/5 102/108/5
f 102/108/8 131/116/8 130/94/8 101/16/8
f 107/100/5 126/114/5 129/45/5 103/101/5
f 101/16/3 130/94/3 127/97/3 106/17/3
f 88/197/6 126/49/6 132/52/6 95/198/6
f 103/101/5 129/45/5 125/48/5 105/107/5
f 76/165/5 64/164/5 136/271/5 137/82/5
f 73/299/11 70/300/11 169/301/11 170/302/11
f 79/178/5 69/55/5 139/54/5 140/91/5
f 43/133/6 138/87/6 134/90/6 39/134/6
f 76/165/8 137/82/8 133/75/8 81/78/8
f 37/84/3 38/268/3 135/76/3 133/75/3
f 148/303/14 74/304/14 135/58/14 156/57/14
f 43/257/5 40/92/5 139/54/5 138/53/5
f 95/305/16 132/306/16 183/307/16 175/308/16
f 96/309/15 151/310/15 155/311/15 127/312/15
f 156/313/17 145/314/17 161/315/17 188/316/17
f 197/317/11 146/318/11 163/319/11 206/320/11
f 196/321/7 145/60/7 144/262/7 201/322/7
f 132/323/16 100/324/16 185/325/16 183/326/16
f 198/327/11 148/295/11 168/298/11 207/328/11
f 97/284/15 150/283/15 151/310/15 96/309/15
f 74/304/7 148/303/7 149/249/7 75/248/7
f 276/329/15 282/330/15 147/245/15 59/244/15
f 127/312/9 155/311/9 152/113/9 106/112/9
f 195/331/9 143/110/9 152/113/9 200/332/9
f 16/333/4 142/334/4 144/335/4 26/336/4
f 152/337/18 155/338/18 192/339/18 184/340/18
f 194/341/2 142/342/2 141/343/2 193/344/2
f 193/345/1 141/11/1 143/14/1 195/346/1
f 240/347/5 159/348/5 160/349/5 229/350/5
f 159/351/5 176/352/5 175/353/5 183/354/5
f 162/355/5 182/356/5 157/357/5 158/358/5
f 178/359/5 180/360/5 167/361/5 166/362/5
f 179/363/5 181/364/5 172/365/5 171/366/5
f 165/367/5 164/368/5 181/364/5 179/363/5
f 174/369/5 173/370/5 180/360/5 178/359/5
f 160/371/5 159/351/5 183/354/5 185/372/5
f 239/373/5 176/374/5 159/348/5 240/347/5
f 170/375/5 169/376/5 182/356/5 162/355/5
f 207/377/14 168/378/14 188/379/14 212/380/14
f 208/381/13 177/382/13 187/383/13 211/384/13
f 206/385/13 163/386/13 186/387/13 210/388/13
f 210/388/15 186/387/15 190/389/15 214/390/15
f 211/384/15 187/383/15 189/391/15 213/392/15
f 212/380/7 188/379/7 161/393/7 205/394/7
f 200/395/11 152/337/11 184/340/11 209/396/11
f 146/318/12 153/397/12 186/398/12 163/319/12
f 56/121/16 122/399/16 178/400/16 166/122/16
f 92/401/10 95/305/10 175/308/10 176/402/10
f 153/403/19 149/404/19 190/405/19 186/406/19
f 122/407/16 94/124/16 174/127/16 178/408/16
f 45/234/20 157/237/20 255/237/20 242/234/20
f 72/292/16 114/409/16 179/410/16 171/293/16
f 154/411/19 147/412/19 189/413/19 187/414/19
f 199/415/11 150/128/11 177/131/11 208/416/11
f 54/417/4 221/418/4 243/418/4 244/417/4
f 100/324/11 108/419/11 160/420/11 185/325/11
f 134/421/16 73/299/16 170/302/16 162/422/16
f 39/235/16 134/423/16 162/424/16 158/236/16
f 151/286/10 204/425/10 215/426/10 191/287/10
f 223/427/11 199/415/11 208/416/11 228/428/11
f 145/314/10 196/429/10 205/430/10 161/315/10
f 149/404/10 203/431/10 214/432/10 190/405/10
f 147/412/10 202/433/10 213/434/10 189/413/10
f 224/435/11 200/395/11 209/396/11 229/436/11
f 232/437/7 212/380/7 205/394/7 225/438/7
f 231/439/13 211/384/13 213/392/13 237/440/13
f 230/441/13 210/388/13 214/390/13 238/442/13
f 226/443/13 206/385/13 210/388/13 230/441/13
f 228/444/13 208/381/13 211/384/13 231/439/13
f 227/445/14 207/377/14 212/380/14 232/437/14
f 191/446/9 215/447/9 216/448/9 192/449/9
f 192/449/5 216/448/5 209/450/5 184/451/5
f 217/452/1 193/345/1 195/346/1 219/453/1
f 218/454/2 194/455/2 193/456/2 217/457/2
f 219/458/5 195/459/5 200/460/5 224/461/5
f 222/462/11 198/327/11 207/328/11 227/463/11
f 220/464/14 196/465/14 201/466/14 233/467/14
f 221/468/11 197/317/11 206/320/11 226/469/11
f 150/283/15 199/470/15 204/471/15 151/310/15
f 148/303/7 198/472/7 203/473/7 149/249/7
f 282/330/15 283/474/15 202/475/15 147/245/15
f 142/334/4 194/476/4 201/477/4 144/335/4
f 235/173/1 71/172/1 250/172/1 263/173/1
f 45/478/14 220/464/14 233/467/14 23/479/14
f 226/480/21 238/480/21 271/480/21 265/480/21
f 22/481/5 219/458/5 224/461/5 108/482/5
f 10/483/2 218/454/2 217/457/2 9/484/2
f 9/35/1 217/452/1 219/453/1 22/36/1
f 169/485/14 227/445/14 232/437/14 182/486/14
f 173/487/13 228/444/13 231/439/13 180/488/13
f 164/489/13 226/443/13 230/441/13 181/490/13
f 181/490/13 230/441/13 238/442/13 172/491/13
f 180/488/13 231/439/13 237/440/13 167/492/13
f 182/486/14 232/437/14 225/438/14 157/493/14
f 164/240/22 54/239/22 244/239/22 253/240/22
f 234/151/1 55/150/1 258/150/1 262/151/1
f 204/425/10 236/494/10 239/495/10 215/426/10
f 196/429/10 220/496/10 225/497/10 205/430/10
f 203/431/10 235/498/10 238/499/10 214/432/10
f 202/433/10 234/500/10 237/501/10 213/434/10
f 215/447/5 239/373/5 240/347/5 216/448/5
f 216/448/5 240/347/5 229/350/5 209/450/5
f 199/502/13 223/189/13 236/192/13 204/503/13
f 198/504/14 222/170/14 235/173/14 203/505/14
f 283/506/13 284/148/13 234/151/13 202/507/13
f 194/476/4 218/63/4 233/66/4 201/477/4
f 228/480/21 237/480/21 272/480/21 268/480/21
f 70/171/4 222/170/4 245/170/4 246/171/4
f 92/401/23 176/402/23 260/402/23 261/401/23
f 229/480/21 239/480/21 269/480/21 267/480/21
f 237/501/24 234/500/24 262/500/24 272/501/24
f 71/291/25 172/294/25 249/294/25 250/291/25
f 268/508/16 272/509/16 262/510/16 247/511/16
f 267/512/16 269/513/16 264/514/16 251/515/16
f 251/515/5 264/514/5 261/516/5 252/517/5
f 247/511/13 262/510/13 258/518/13 248/519/13
f 243/520/13 263/521/13 250/522/13 244/523/13
f 242/524/14 246/525/14 245/526/14 241/527/14
f 265/528/16 271/529/16 263/521/16 243/520/16
f 266/530/16 270/531/16 241/527/16 245/526/16
f 246/525/26 242/524/26 255/532/26 254/533/26
f 250/522/26 249/534/26 253/535/26 244/523/26
f 248/519/26 258/518/26 257/536/26 256/537/26
f 252/517/26 261/516/26 260/538/26 259/539/26
f 227/480/21 225/480/21 270/480/21 266/480/21
f 236/192/1 92/191/1 261/191/1 264/192/1
f 157/480/27 169/480/27 254/480/27 255/480/27
f 172/480/27 164/480/27 253/480/27 249/480/27
f 169/301/22 70/300/22 246/300/22 254/301/22
f 173/126/24 93/125/24 248/125/24 256/126/24
f 167/480/27 173/480/27 256/480/27 257/480/27
f 108/482/4 224/461/4 251/461/4 252/482/4
f 224/435/28 229/436/28 267/436/28 251/435/28
f 176/480/27 160/480/27 259/480/27 260/480/27
f 223/427/29 228/428/29 268/428/29 247/427/29
f 221/468/30 226/469/30 265/469/30 243/468/30
f 55/120/23 167/123/23 257/123/23 258/120/23
f 239/495/31 236/494/31 264/494/31 269/495/31
f 220/464/1 45/478/1 242/478/1 241/464/1
f 160/420/24 108/419/24 252/419/24 259/420/24
f 225/497/32 220/496/32 241/496/32 270/497/32
f 93/190/4 223/189/4 247/189/4 248/190/4
f 222/462/30 227/463/30 266/463/30 245/462/30
f 238/499/22 235/498/22 263/498/22 271/499/22
f 197/540/13 221/418/13 284/148/13 283/506/13
f 146/275/15 197/541/15 283/474/15 282/330/15
f 58/276/15 146/275/15 282/330/15 276/329/15
f 50/280/5 53/279/5 280/542/5 277/543/5
f 53/279/5 49/281/5 281/544/5 280/542/5
f 54/545/5 57/546/5 278/153/5 279/152/5
f 221/418/13 54/417/13 279/149/13 284/148/13
f 51/289/6 56/290/6 278/145/6 277/144/6
f 60/272/8 63/273/8 275/140/8 274/137/8
f 63/273/3 58/274/3 276/141/3 275/140/3
f 46/282/5 60/272/5 274/137/5 273/136/5
