# Blender 5.2.2 LTS
# www.blender.org
mtllib Pared_Lisa_ROTA.mtl
o Pared.002
v 4.000000 0.000000 0.000000
v 0.000000 0.000000 0.000000
v 0.000000 1.528477 0.452911
v 4.000000 1.528477 0.453001
v 4.000000 0.875000 0.000000
v 0.000000 0.875000 0.000000
v 4.000000 0.437500 0.000000
v 0.000000 0.437500 0.000000
v 0.000000 1.528477 0.000000
v 4.000000 1.528477 0.000000
v 4.000000 0.875000 0.453001
v 0.000000 0.875000 0.453001
v 0.000000 0.000000 0.453001
v 0.000000 0.437500 0.453001
v 4.000000 0.437500 0.453001
v 4.000000 0.000000 0.453001
v 2.000000 0.000000 0.000000
v 2.000000 0.875000 0.000000
v 2.000000 0.437500 0.000000
v 2.000000 1.528477 0.000000
v -0.000000 0.000000 0.500000
v 4.000000 0.437500 0.500000
v -0.000000 0.437500 0.500000
v 4.000000 0.875000 0.500000
v 4.000000 0.000000 0.500000
v -0.000000 0.875000 0.500000
v 4.000000 1.528477 0.500000
v -0.000000 1.528477 0.500000
v 2.000000 0.000000 0.500000
v 2.000000 0.875000 0.500000
v 2.000000 0.437500 0.500000
v 2.000000 1.528477 0.500000
v 4.000000 1.812892 0.453001
v 0.000000 1.812892 0.000000
v 4.000000 1.812892 0.000000
v 0.000000 1.812892 0.452872
v 2.000000 1.812892 0.000000
v 2.000000 1.812892 0.500000
v -0.000000 1.812892 0.500000
v 4.000000 1.812892 0.500000
vn 1.0000 -0.0000 -0.0000
vn -0.0000 -0.0000 -1.0000
vn -1.0000 -0.0000 -0.0000
vn -0.0000 -0.0000 1.0000
vn -0.0000 1.0000 -0.0000
vt 0.589961 0.363696
vt 0.589961 0.418208
vt 0.530641 0.418207
vt 0.530641 0.363696
vt 0.836649 0.363696
vt 0.836649 0.418207
vt 0.836967 0.499926
vt 0.589642 0.499926
vt 0.589642 0.418032
vt 0.836967 0.418032
vt 0.589961 0.499214
vt 0.530641 0.499214
vt 0.836649 0.309185
vt 0.589961 0.309185
vt 0.530641 0.309185
vt 0.738975 0.499528
vt 0.738975 0.417839
vt 0.795604 0.417839
vt 0.795592 0.499528
vt 0.836510 0.286566
vt 0.589674 0.287738
vt 0.589934 0.250516
vt 0.836510 0.250516
vt 0.739155 0.286747
vt 0.739155 0.250790
vt 0.795414 0.250790
vt 0.795409 0.286746
vt 0.795604 0.308457
vt 0.795604 0.363148
vt 0.738975 0.363148
vt 0.738975 0.308457
vt 0.836967 0.499926
vt 0.589642 0.418032
vt 0.836967 0.418032
vt 0.836510 0.286491
vt 0.589934 0.286491
vt 0.589934 0.250441
vt 0.836510 0.250441
vt 0.836649 0.308348
vt 0.836649 0.363316
vt 0.589961 0.363316
vt 0.589961 0.308348
vt 0.836649 0.418284
vt 0.589961 0.418284
vt 0.859665 0.309185
vt 0.859665 0.363696
vt 0.612976 0.363696
vt 0.612976 0.309185
vt 0.859983 0.499926
vt 0.612658 0.499926
vt 0.612658 0.418032
vt 0.859983 0.418032
vt 0.859665 0.418207
vt 0.612976 0.418208
vt 0.859665 0.363316
vt 0.859665 0.418284
vt 0.612976 0.418284
vt 0.612976 0.363316
vt 0.859665 0.308348
vt 0.612976 0.308348
vt 0.859526 0.286491
vt 0.612950 0.286491
vt 0.612950 0.250441
vt 0.859526 0.250441
vt 0.859982 0.499926
vt 0.612658 0.418032
vt 0.859982 0.418032
vt 0.859526 0.286566
vt 0.612950 0.286566
vt 0.612950 0.250516
vt 0.859526 0.250516
vt 0.795604 0.417846
vt 0.801478 0.417846
vt 0.801478 0.499528
vt 0.795604 0.363153
vt 0.801478 0.363153
vt 0.801478 0.417839
vt 0.801478 0.308457
vt 0.801478 0.363143
vt 0.795604 0.363143
vt 0.595836 0.418208
vt 0.595836 0.499214
vt 0.589961 0.418208
vt 0.595835 0.363696
vt 0.595835 0.418208
vt 0.589961 0.363696
vt 0.595836 0.309185
vt 0.595836 0.363696
vt 0.589961 0.309185
vt 0.595288 0.253836
vt 0.595288 0.287738
vt 0.589413 0.287738
vt 0.589413 0.253836
vt 0.801300 0.250790
vt 0.801300 0.286746
vt 0.531726 0.253836
vt 0.531726 0.288910
vt 0.836510 0.344347
vt 0.589674 0.344347
vt 0.589674 0.287730
vt 0.836510 0.287730
vt 0.836510 0.344347
vt 0.589674 0.344347
vt 0.589674 0.287730
vt 0.836510 0.287730
s 0
usemtl TRIM
f 7/1/1 5/2/1 11/3/1 15/4/1
f 19/5/2 18/6/2 5/2/2 7/1/2
f 9/7/2 20/8/2 18/9/2 6/10/2
f 11/3/1 5/2/1 10/11/1 4/12/1
f 17/13/2 19/5/2 7/1/2 1/14/2
f 1/14/1 7/1/1 15/4/1 16/15/1
f 9/16/3 6/17/3 12/18/3 3/19/3
f 37/20/2 35/21/2 10/22/2 20/23/2
f 34/24/3 9/25/3 3/26/3 36/27/3
f 13/28/3 14/29/3 8/30/3 2/31/3
f 14/29/3 12/18/3 6/17/3 8/30/3
f 20/32/2 10/8/2 5/33/2 18/34/2
f 34/35/2 37/36/2 20/37/2 9/38/2
f 2/39/2 8/40/2 19/41/2 17/42/2
f 8/40/2 6/43/2 18/44/2 19/41/2
f 29/45/4 31/46/4 23/47/4 21/48/4
f 27/49/4 32/50/4 30/51/4 24/52/4
f 31/46/4 30/53/4 26/54/4 23/47/4
f 22/55/4 24/56/4 30/57/4 31/58/4
f 25/59/4 22/55/4 31/58/4 29/60/4
f 40/61/4 38/62/4 32/63/4 27/64/4
f 32/65/4 28/50/4 26/66/4 30/67/4
f 38/68/4 39/69/4 28/70/4 32/71/4
f 12/72/3 26/73/3 28/74/3 3/19/3
f 14/75/3 23/76/3 26/77/3 12/18/3
f 13/28/3 21/78/3 23/79/3 14/80/3
f 11/81/1 4/82/1 27/11/1 24/83/1
f 15/84/1 11/85/1 24/2/1 22/86/1
f 16/87/1 15/88/1 22/1/1 25/89/1
f 4/90/1 33/91/1 40/92/1 27/93/1
f 3/26/3 28/94/3 39/95/3 36/27/3
f 4/96/1 10/93/1 35/21/1 33/97/1
f 39/98/5 38/99/5 37/100/5 34/101/5
f 38/102/5 40/103/5 35/104/5 37/105/5
