# Blender 5.2.2 LTS
# www.blender.org
mtllib Pared.mtl
o Pared
v 4.000000 3.500000 0.000000
v 4.000000 0.000000 0.000000
v 4.000000 3.500000 0.500000
v 4.000000 0.000000 0.500000
v 0.000000 3.500000 0.000000
v 0.000000 0.000000 0.000000
v 0.000000 3.500000 0.500000
v 0.000000 0.000000 0.500000
v 0.000000 1.528477 0.452911
v 4.000000 1.528477 0.453001
v 4.000000 0.875000 0.000000
v 4.000000 0.875000 0.500000
v 0.000000 0.875000 0.000000
v 0.000000 0.875000 0.500000
v 4.000000 3.296032 0.000000
v 0.000000 3.296032 0.000000
v 4.000000 0.437500 0.000000
v 4.000000 0.437500 0.500000
v 0.000000 0.437500 0.000000
v 0.000000 0.437500 0.500000
v 4.000000 3.296032 0.453001
v 0.000000 1.528477 0.000000
v 4.000000 1.528477 0.000000
v 4.000000 0.875000 0.453001
v 0.000000 0.875000 0.453001
v 0.000000 3.296032 0.452670
v 0.000000 3.500000 0.452670
v 0.000000 0.000000 0.453001
v 0.000000 0.437500 0.453001
v 4.000000 3.500000 0.453001
v 4.000000 0.437500 0.453001
v 4.000000 0.000000 0.453001
v 0.000000 3.296032 0.495213
v 0.000000 3.300820 0.500000
v 4.000000 3.300820 0.500000
v 4.000000 3.296032 0.495213
v 2.000000 0.000000 0.000000
v 2.000000 3.500000 0.500000
v 2.000000 0.000000 0.500000
v 2.000000 3.500000 0.000000
v 2.000000 0.875000 0.500000
v 2.000000 0.875000 0.000000
v 2.000000 1.528477 0.452956
v 2.000000 3.296032 0.000000
v 2.000000 0.437500 0.000000
v 2.000000 0.437500 0.500000
v 2.000000 0.875000 0.453001
v 2.000000 3.296032 0.452835
v 2.000000 1.528477 0.000000
v 2.000000 3.300820 0.500000
v 2.000000 3.296032 0.495213
v 2.000000 3.500000 0.452835
vn -0.0000 1.0000 -0.0000
vn 1.0000 -0.0000 -0.0000
vn -0.0000 -0.0000 -1.0000
vn -0.0000 0.0001 1.0000
vn -0.0000 -0.0000 1.0000
vn -1.0000 -0.0000 -0.0000
vn -0.0001 0.0001 1.0000
vn -0.0000 -0.7071 0.7071
vn -0.0000 -1.0000 -0.0000
vn -0.0001 -0.0000 1.0000
vt 0.590187 0.250272
vt 0.838942 0.250272
vt 0.838943 0.307147
vt 0.590187 0.307168
vt 0.589413 0.471808
vt 0.589413 0.495871
vt 0.531726 0.495871
vt 0.531726 0.471808
vt 0.836510 0.474205
vt 0.836510 0.499851
vt 0.589934 0.499851
vt 0.589934 0.474205
vt 0.531726 0.253836
vt 0.589413 0.253836
vt 0.333243 0.500114
vt 0.333243 0.749889
vt 0.251553 0.749889
vt 0.251553 0.500114
vt 0.001099 0.123715
vt 0.001099 0.064584
vt 0.250226 0.064584
vt 0.250226 0.123715
vt 0.589961 0.363696
vt 0.589961 0.418208
vt 0.530641 0.418207
vt 0.530641 0.363696
vt 0.836649 0.363696
vt 0.836649 0.418207
vt 0.836967 0.499926
vt 0.589642 0.499926
vt 0.589642 0.418032
vt 0.836967 0.418032
vt 0.795384 0.474249
vt 0.795384 0.498917
vt 0.739155 0.498917
vt 0.739155 0.474249
vt 0.589961 0.499214
vt 0.530641 0.499214
vt 0.836649 0.309185
vt 0.589961 0.309185
vt 0.530641 0.309185
vt 0.251499 0.131506
vt 0.251499 0.186197
vt 0.245624 0.186197
vt 0.245624 0.131506
vt 0.001099 0.123715
vt 0.001099 0.064584
vt 0.738975 0.499528
vt 0.738975 0.417839
vt 0.795604 0.417839
vt 0.795592 0.499528
vt 0.402879 0.500111
vt 0.402879 0.749886
vt 0.181921 0.749886
vt 0.181921 0.500111
vt 0.001099 0.124240
vt 0.250166 0.124240
vt 0.250166 0.130115
vt 0.001099 0.130115
vt 0.251499 0.240888
vt 0.245624 0.240888
vt 0.836510 0.474555
vt 0.589934 0.474555
vt 0.589934 0.250516
vt 0.836510 0.250516
vt 0.739155 0.250790
vt 0.795414 0.250790
vt 0.795604 0.308457
vt 0.795604 0.363148
vt 0.738975 0.363148
vt 0.738975 0.308457
vt 0.257562 0.132849
vt 0.257562 0.186197
vt 0.251538 0.186197
vt 0.251538 0.132849
vt 0.257562 0.239545
vt 0.251538 0.239545
vt 0.990240 0.250000
vt 0.990240 0.500013
vt 0.989393 0.500013
vt 0.989393 0.250000
vt 0.800669 0.474249
vt 0.801263 0.474844
vt 0.801263 0.498917
vt 0.516219 0.249999
vt 0.516219 0.500014
vt 0.510900 0.500014
vt 0.510921 0.249999
vt 0.590187 0.338117
vt 0.590187 0.313094
vt 0.838943 0.313094
vt 0.838942 0.338117
vt 0.525741 0.495871
vt 0.525741 0.472418
vt 0.526350 0.471808
vt 0.836967 0.499926
vt 0.589642 0.418032
vt 0.836967 0.418032
vt 0.590178 0.307540
vt 0.838746 0.307520
vt 0.838746 0.313450
vt 0.590178 0.313450
vt 0.590178 0.332134
vt 0.590178 0.307089
vt 0.838746 0.307089
vt 0.838746 0.332134
vt 0.524928 0.249924
vt 0.524928 0.499783
vt 0.519628 0.499783
vt 0.519648 0.249924
vt 0.515929 0.249996
vt 0.515929 0.500017
vt 0.515083 0.500017
vt 0.515083 0.249996
vt 0.836510 0.474481
vt 0.589934 0.474481
vt 0.589934 0.250441
vt 0.836510 0.250441
vt 0.001099 0.124240
vt 0.250166 0.124240
vt 0.250166 0.130115
vt 0.001099 0.130115
vt 0.402877 0.500113
vt 0.402877 0.749888
vt 0.181919 0.749888
vt 0.181919 0.500113
vt 0.001099 0.123702
vt 0.001099 0.064570
vt 0.250226 0.064570
vt 0.250226 0.123702
vt 0.836649 0.308348
vt 0.836649 0.363316
vt 0.589961 0.363316
vt 0.589961 0.308348
vt 0.836649 0.418284
vt 0.589961 0.418284
vt 0.001099 0.123715
vt 0.001099 0.064584
vt 0.250226 0.064584
vt 0.250226 0.123715
vt 0.333243 0.500113
vt 0.333243 0.749888
vt 0.251553 0.749888
vt 0.251553 0.500113
vt 0.836510 0.474333
vt 0.836510 0.499899
vt 0.589934 0.499899
vt 0.589934 0.474333
vt 0.589934 0.250207
vt 0.838746 0.250207
vt 0.838746 0.307147
vt 0.589934 0.307168
s 0
usemtl TRIM
f 40/1/1 5/2/1 27/3/1 52/4/1
f 15/5/2 1/6/2 30/7/2 21/8/2
f 44/9/3 40/10/3 1/11/3 15/12/3
f 10/13/2 23/14/2 15/5/2 21/8/2
f 43/15/4 9/16/4 25/17/4 47/18/4
f 46/19/5 41/20/5 14/21/5 20/22/5
f 17/23/2 11/24/2 24/25/2 31/26/2
f 45/27/3 42/28/3 11/24/3 17/23/3
f 22/29/3 49/30/3 42/31/3 13/32/3
f 26/33/6 27/34/6 5/35/6 16/36/6
f 24/25/2 11/24/2 23/37/2 10/38/2
f 37/39/3 45/27/3 17/23/3 2/40/3
f 2/40/2 17/23/2 31/26/2 32/41/2
f 8/42/6 20/43/6 29/44/6 28/45/6
f 39/46/5 46/47/5 20/21/5 8/22/5
f 22/48/6 13/49/6 25/50/6 9/51/6
f 48/52/7 26/53/7 9/54/7 43/55/7
f 41/56/1 12/57/1 24/58/1 47/59/1
f 20/43/6 14/60/6 25/61/6 29/44/6
f 44/62/3 15/63/3 23/64/3 49/65/3
f 16/36/6 22/66/6 9/67/6 26/33/6
f 28/68/6 29/69/6 19/70/6 6/71/6
f 29/69/6 25/50/6 13/49/6 19/70/6
f 32/72/2 31/73/2 18/74/2 4/75/2
f 31/73/2 24/76/2 12/77/2 18/74/2
f 50/78/8 34/79/8 33/80/8 51/81/8
f 33/82/6 34/83/6 7/84/6 27/34/6 26/33/6
f 51/85/9 33/86/9 26/87/9 48/88/9
f 50/89/5 38/90/5 7/91/5 34/92/5
f 21/8/2 30/7/2 3/93/2 35/94/2 36/95/2
f 52/4/1 27/3/1 7/91/1 38/90/1
f 49/96/3 23/30/3 11/97/3 42/98/3
f 30/99/1 52/100/1 38/101/1 3/102/1
f 35/103/5 3/104/5 38/105/5 50/106/5
f 36/107/9 51/108/9 48/109/9 21/110/9
f 35/111/8 50/112/8 51/113/8 36/114/8
f 16/115/3 44/116/3 49/117/3 22/118/3
f 14/119/1 41/120/1 47/121/1 25/122/1
f 21/123/10 48/124/10 43/125/10 10/126/10
f 4/127/5 18/128/5 46/129/5 39/130/5
f 6/131/3 19/132/3 45/133/3 37/134/3
f 19/132/3 13/135/3 42/136/3 45/133/3
f 18/137/5 12/138/5 41/139/5 46/140/5
f 10/141/5 43/142/5 47/143/5 24/144/5
f 16/145/3 5/146/3 40/147/3 44/148/3
f 1/149/1 40/150/1 52/151/1 30/152/1
