# Blender 5.2.2 LTS
# www.blender.org
mtllib Pared_Lisa.mtl
o Pared.001
v 4.000000 3.500000 0.000000
v 4.000000 0.000000 0.000000
v 4.000000 3.500000 0.500000
v 0.000000 3.500000 0.000000
v 0.000000 0.000000 0.000000
v -0.000000 3.500000 0.500000
v 0.000000 1.528477 0.452911
v 4.000000 1.528477 0.453001
v 4.000000 0.875000 0.000000
v 0.000000 0.875000 0.000000
v 4.000000 3.296032 0.000000
v 0.000000 3.296032 0.000000
v 4.000000 0.437500 0.000000
v 0.000000 0.437500 0.000000
v 4.000000 3.296032 0.453001
v 0.000000 1.528477 0.000000
v 4.000000 1.528477 0.000000
v 4.000000 0.875000 0.453001
v 0.000000 0.875000 0.453001
v 0.000000 3.296032 0.452670
v 0.000000 3.500000 0.452670
v 0.000000 0.000000 0.453001
v 0.000000 0.437500 0.453001
v 4.000000 3.500000 0.453001
v 4.000000 0.437500 0.453001
v 4.000000 0.000000 0.453001
v 4.000000 3.300820 0.500000
v 4.000000 3.296032 0.495213
v 2.000000 0.000000 0.000000
v -0.000000 3.296032 0.500000
v 2.000000 3.500000 0.000000
v 2.000000 0.875000 0.000000
v 2.000000 3.296032 0.000000
v 2.000000 0.437500 0.000000
v 2.000000 1.528477 0.000000
v 2.000000 3.500000 0.452835
v 2.000000 3.500000 0.500000
v 4.000000 3.500000 0.500000
v -0.000000 0.000000 0.500000
v -0.000000 3.500000 0.500000
v 4.000000 0.437500 0.500000
v -0.000000 0.437500 0.500000
v 4.000000 3.296032 0.500000
v -0.000000 3.296032 0.500000
v 4.000000 0.875000 0.500000
v 4.000000 0.000000 0.500000
v -0.000000 0.875000 0.500000
v 4.000000 1.528477 0.500000
v -0.000000 1.528477 0.500000
v 2.000000 0.000000 0.500000
v 2.000000 3.500000 0.500000
v 2.000000 0.875000 0.500000
v 2.000000 3.296032 0.500000
v 2.000000 0.437500 0.500000
v 2.000000 1.528477 0.500000
vn -0.0000 1.0000 -0.0000
vn 1.0000 -0.0000 -0.0000
vn -0.0000 -0.0000 -1.0000
vn -1.0000 -0.0000 -0.0000
vn -0.0000 -0.0000 1.0000
vt 0.590187 0.250272
vt 0.838942 0.250272
vt 0.838943 0.307147
vt 0.590187 0.307168
vt 0.589413 0.471808
vt 0.589413 0.495871
vt 0.531726 0.495871
vt 0.531726 0.471808
vt 0.836510 0.474205
vt 0.836510 0.499851
vt 0.589934 0.499851
vt 0.589934 0.474205
vt 0.531726 0.253836
vt 0.589413 0.253836
vt 0.589961 0.363696
vt 0.589961 0.418208
vt 0.530641 0.418207
vt 0.530641 0.363696
vt 0.836649 0.363696
vt 0.836649 0.418207
vt 0.836967 0.499926
vt 0.589642 0.499926
vt 0.589642 0.418032
vt 0.836967 0.418032
vt 0.795384 0.474249
vt 0.795384 0.498917
vt 0.739155 0.498917
vt 0.739155 0.474249
vt 0.589961 0.499214
vt 0.530641 0.499214
vt 0.836649 0.309185
vt 0.589961 0.309185
vt 0.530641 0.309185
vt 0.738975 0.499528
vt 0.738975 0.417839
vt 0.795604 0.417839
vt 0.795592 0.499528
vt 0.836510 0.474555
vt 0.589934 0.474555
vt 0.589934 0.250516
vt 0.836510 0.250516
vt 0.739155 0.250790
vt 0.795414 0.250790
vt 0.795604 0.308457
vt 0.795604 0.363148
vt 0.738975 0.363148
vt 0.738975 0.308457
vt 0.801263 0.474249
vt 0.801263 0.498917
vt 0.525741 0.495871
vt 0.525741 0.472418
vt 0.526350 0.471808
vt 0.838943 0.313094
vt 0.590187 0.313094
vt 0.836967 0.499926
vt 0.589642 0.418032
vt 0.836967 0.418032
vt 0.590178 0.307540
vt 0.838746 0.307520
vt 0.838746 0.313450
vt 0.590178 0.313450
vt 0.836510 0.474481
vt 0.589934 0.474481
vt 0.589934 0.250441
vt 0.836510 0.250441
vt 0.836649 0.308348
vt 0.836649 0.363316
vt 0.589961 0.363316
vt 0.589961 0.308348
vt 0.836649 0.418284
vt 0.589961 0.418284
vt 0.836510 0.474333
vt 0.836510 0.499899
vt 0.589934 0.499899
vt 0.589934 0.474333
vt 0.589934 0.250207
vt 0.838746 0.250207
vt 0.838746 0.307147
vt 0.589934 0.307168
vt 0.859526 0.474333
vt 0.859526 0.499899
vt 0.612950 0.499899
vt 0.612950 0.474333
vt 0.859665 0.309185
vt 0.859665 0.363696
vt 0.612976 0.363696
vt 0.612976 0.309185
vt 0.859983 0.499926
vt 0.612658 0.499926
vt 0.612658 0.418032
vt 0.859983 0.418032
vt 0.859665 0.418207
vt 0.612976 0.418208
vt 0.859526 0.474205
vt 0.859526 0.499851
vt 0.612950 0.499851
vt 0.612950 0.474205
vt 0.859665 0.363316
vt 0.859665 0.418284
vt 0.612976 0.418284
vt 0.612976 0.363316
vt 0.859665 0.308348
vt 0.612976 0.308348
vt 0.859526 0.474481
vt 0.612950 0.474481
vt 0.612950 0.250441
vt 0.859526 0.250441
vt 0.859982 0.499926
vt 0.612658 0.418032
vt 0.859982 0.418032
vt 0.859526 0.474555
vt 0.612950 0.474555
vt 0.612950 0.250516
vt 0.859526 0.250516
vt 0.801300 0.250790
vt 0.801300 0.474243
vt 0.801303 0.474249
vt 0.795384 0.474243
vt 0.795604 0.417846
vt 0.801478 0.417846
vt 0.801478 0.499528
vt 0.795604 0.363153
vt 0.801478 0.363153
vt 0.801478 0.417839
vt 0.801478 0.308457
vt 0.801478 0.363143
vt 0.795604 0.363143
s 0
usemtl TRIM
f 31/1/1 4/2/1 21/3/1 36/4/1
f 11/5/2 1/6/2 24/7/2 15/8/2
f 33/9/3 31/10/3 1/11/3 11/12/3
f 8/13/2 17/14/2 11/5/2 15/8/2
f 13/15/2 9/16/2 18/17/2 25/18/2
f 34/19/3 32/20/3 9/16/3 13/15/3
f 16/21/3 35/22/3 32/23/3 10/24/3
f 20/25/4 21/26/4 4/27/4 12/28/4
f 18/17/2 9/16/2 17/29/2 8/30/2
f 29/31/3 34/19/3 13/15/3 2/32/3
f 2/32/2 13/15/2 25/18/2 26/33/2
f 16/34/4 10/35/4 19/36/4 7/37/4
f 33/38/3 11/39/3 17/40/3 35/41/3
f 12/28/4 16/42/4 7/43/4 20/25/4
f 22/44/4 23/45/4 14/46/4 5/47/4
f 23/45/4 19/36/4 10/35/4 14/46/4
f 30/48/4 6/49/4 21/26/4 20/25/4
f 15/8/2 24/7/2 3/50/2 27/51/2 28/52/2
f 36/4/1 21/3/1 6/53/1 37/54/1
f 35/55/3 17/22/3 9/56/3 32/57/3
f 24/58/1 36/59/1 37/60/1 3/61/1
f 12/62/3 33/63/3 35/64/3 16/65/3
f 5/66/3 14/67/3 34/68/3 29/69/3
f 14/67/3 10/70/3 32/71/3 34/68/3
f 12/72/3 4/73/3 31/74/3 33/75/3
f 1/76/1 31/77/1 36/78/1 24/79/1
f 43/80/5 38/81/5 51/82/5 53/83/5
f 50/84/5 54/85/5 42/86/5 39/87/5
f 48/88/5 55/89/5 52/90/5 45/91/5
f 54/85/5 52/92/5 47/93/5 42/86/5
f 53/94/5 51/95/5 40/96/5 44/97/5
f 41/98/5 45/99/5 52/100/5 54/101/5
f 46/102/5 41/98/5 54/101/5 50/103/5
f 43/104/5 53/105/5 55/106/5 48/107/5
f 55/108/5 49/89/5 47/109/5 52/110/5
f 53/111/5 44/112/5 49/113/5 55/114/5
f 7/43/4 49/115/4 44/116/4 30/117/4 20/118/4
f 19/119/4 47/120/4 49/121/4 7/37/4
f 23/122/4 42/123/4 47/124/4 19/36/4
f 22/44/4 39/125/4 42/126/4 23/127/4
f 18/17/2 8/30/2 48/88/2 45/91/2
f 8/30/2 15/8/2 43/104/2 48/88/2
f 25/18/2 18/17/2 45/99/2 41/98/2
f 26/33/2 25/18/2 41/98/2 46/102/2
