# Blender 4.5.2 LTS
# www.blender.org
mtllib ZoruPlanoaHarria.mtl
o suelo.005
v 0.000000 0.000000 2.000000
v 2.000000 0.000000 2.000000
v 0.000000 0.000000 0.000000
v 2.000000 0.000000 0.000000
v 0.000000 0.000000 1.000000
v 2.000000 0.000000 1.000000
vn -0.0000 1.0000 -0.0000
vt 0.285340 0.499113
vt 0.285340 0.251837
vt 0.159617 0.251836
vt 0.159617 0.499113
vt 0.408812 0.498835
vt 0.408812 0.251558
vt 0.283089 0.251558
vt 0.283089 0.498835
s 0
usemtl Material.001
f 5/1/1 6/2/1 4/3/1 3/4/1
f 1/5/1 2/6/1 6/7/1 5/8/1
